  0
SECTION
  2
HEADER
  9
$ACADVER
  1
AC1009
  9
$DWGCODEPAGE
  3
mac-roman
  9
$INSBASE
 10
0.0
 20
0.0
 30
0.0
  9
$EXTMIN
 10
0.0
 20
0.0
 30
0.0
  9
$EXTMAX
 10
90.32721424102783
 20
161.7528811454773
 30
30.46231618826984
  9
$LIMMIN
 10
0.0
 20
0.0
  9
$LIMMAX
 10
420.0
 20
297.0
  9
$ORTHOMODE
 70
     0
  9
$REGENMODE
 70
     1
  9
$FILLMODE
 70
     1
  9
$QTEXTMODE
 70
     0
  9
$MIRRTEXT
 70
     1
  9
$DRAGMODE
 70
     2
  9
$LTSCALE
 40
1.0
  9
$OSMODE
 70
    37
  9
$ATTMODE
 70
     1
  9
$TEXTSIZE
 40
2.5
  9
$TRACEWID
 40
1.0
  9
$TEXTSTYLE
  7
STANDARD
  9
$CLAYER
  8
0
  9
$CELTYPE
  6
BYLAYER
  9
$CECOLOR
 62
   256
  9
$DIMSCALE
 40
1.0
  9
$DIMASZ
 40
2.5
  9
$DIMEXO
 40
0.625
  9
$DIMDLI
 40
3.75
  9
$DIMRND
 40
0.0
  9
$DIMDLE
 40
0.0
  9
$DIMEXE
 40
1.25
  9
$DIMTP
 40
0.0
  9
$DIMTM
 40
0.0
  9
$DIMTXT
 40
2.5
  9
$DIMCEN
 40
2.5
  9
$DIMTSZ
 40
0.0
  9
$DIMTOL
 70
     0
  9
$DIMLIM
 70
     0
  9
$DIMTIH
 70
     0
  9
$DIMTOH
 70
     0
  9
$DIMSE1
 70
     0
  9
$DIMSE2
 70
     0
  9
$DIMTAD
 70
     1
  9
$DIMZIN
 70
     8
  9
$DIMBLK
  1

  9
$DIMASO
 70
     1
  9
$DIMSHO
 70
     1
  9
$DIMPOST
  1

  9
$DIMAPOST
  1

  9
$DIMALT
 70
     0
  9
$DIMALTD
 70
     3
  9
$DIMALTF
 40
0.03937007874016
  9
$DIMLFAC
 40
1.0
  9
$DIMTOFL
 70
     1
  9
$DIMTVP
 40
0.0
  9
$DIMTIX
 70
     0
  9
$DIMSOXD
 70
     0
  9
$DIMSAH
 70
     0
  9
$DIMBLK1
  1

  9
$DIMBLK2
  1

  9
$DIMSTYLE
  2
ISO-25
  9
$DIMCLRD
 70
     0
  9
$DIMCLRE
 70
     0
  9
$DIMCLRT
 70
     0
  9
$DIMTFAC
 40
1.0
  9
$DIMGAP
 40
0.625
  9
$LUNITS
 70
     2
  9
$LUPREC
 70
     4
  9
$SKETCHINC
 40
1.0
  9
$FILLETRAD
 40
10.0
  9
$AUNITS
 70
     0
  9
$AUPREC
 70
     0
  9
$MENU
  1
.
  9
$ELEVATION
 40
0.0
  9
$PELEVATION
 40
0.0
  9
$THICKNESS
 40
0.0
  9
$LIMCHECK
 70
     0
  9
$CHAMFERA
 40
0.0
  9
$CHAMFERB
 40
0.0
  9
$SKPOLY
 70
     0
  9
$TDCREATE
 40
1800759.590300926
  9
$TDUPDATE
 40
2458196.548649942
  9
$TDINDWG
 40
0.0000000116
  9
$TDUSRTIMER
 40
0.0000000116
  9
$USRTIMER
 70
     1
  9
$ANGBASE
 50
0.0
  9
$ANGDIR
 70
     0
  9
$PDMODE
 70
     0
  9
$PDSIZE
 40
0.0
  9
$PLINEWID
 40
0.0
  9
$COORDS
 70
     1
  9
$SPLFRAME
 70
     0
  9
$SPLINETYPE
 70
     6
  9
$SPLINESEGS
 70
     8
  9
$ATTDIA
 70
     0
  9
$ATTREQ
 70
     1
  9
$HANDLING
 70
     1
  9
$HANDSEED
  5
567
  9
$SURFTAB1
 70
     6
  9
$SURFTAB2
 70
     6
  9
$SURFTYPE
 70
     6
  9
$SURFU
 70
     6
  9
$SURFV
 70
     6
  9
$UCSNAME
  2

  9
$UCSORG
 10
0.0
 20
0.0
 30
0.0
  9
$UCSXDIR
 10
1.0
 20
0.0
 30
0.0
  9
$UCSYDIR
 10
0.0
 20
1.0
 30
0.0
  9
$PUCSNAME
  2

  9
$PUCSORG
 10
0.0
 20
0.0
 30
0.0
  9
$PUCSXDIR
 10
1.0
 20
0.0
 30
0.0
  9
$PUCSYDIR
 10
0.0
 20
1.0
 30
0.0
  9
$USERI1
 70
     0
  9
$USERI2
 70
     0
  9
$USERI3
 70
     0
  9
$USERI4
 70
     0
  9
$USERI5
 70
     0
  9
$USERR1
 40
0.0
  9
$USERR2
 40
0.0
  9
$USERR3
 40
0.0
  9
$USERR4
 40
0.0
  9
$USERR5
 40
0.0
  9
$WORLDVIEW
 70
     1
  9
$SHADEDGE
 70
     3
  9
$SHADEDIF
 70
    70
  9
$TILEMODE
 70
     1
  9
$MAXACTVP
 70
    64
  9
$PLIMCHECK
 70
     0
  9
$PEXTMIN
 10
1.000000000000000E+20
 20
1.000000000000000E+20
 30
1.000000000000000E+20
  9
$PEXTMAX
 10
-1.000000000000000E+20
 20
-1.000000000000000E+20
 30
-1.000000000000000E+20
  9
$PLIMMIN
 10
0.0
 20
0.0
  9
$PLIMMAX
 10
420.0
 20
297.0
  9
$UNITMODE
 70
     0
  9
$VISRETAIN
 70
     1
  9
$PLINEGEN
 70
     0
  9
$PSLTSCALE
 70
     1
  0
ENDSEC
  0
SECTION
  2
TABLES
  0
TABLE
  2
VPORT
 70
     1
  0
VPORT
  2
*ACTIVE
 70
     0
 10
0.0
 20
0.0
 11
1.0
 21
1.0
 12
344.1869158878504
 22
148.5
 13
0.0
 23
0.0
 14
10.0
 24
10.0
 15
10.0
 25
10.0
 16
0.0
 26
0.0
 36
1.0
 17
0.0
 27
0.0
 37
0.0
 40
297.0
 41
1.972972972850329
 42
50.0
 43
0.0
 44
0.0
 50
0.0
 51
0.0
 71
     0
 72
   100
 73
     1
 74
     3
 75
     0
 76
     0
 77
     0
 78
     0
  0
ENDTAB
  0
TABLE
  2
LTYPE
 70
    13
  0
LTYPE
  2
CONTINUOUS
 70
     0
  3
Solid line
 72
    65
 73
     0
 40
0.0
  0
LTYPE
  2
BORDER
 70
     0
  3
__ __ . __ __ . __ 
 72
    65
 73
     6
 40
0.875
 49
0.25
 49
-0.125
 49
0.25
 49
-0.125
 49
0.0
 49
-0.125
  0
LTYPE
  2
CENTER
 70
     0
  3
___ _ ___ _ ___ _ _
 72
    65
 73
     4
 40
1.125
 49
0.75
 49
-0.125
 49
0.125
 49
-0.125
  0
LTYPE
  2
DASHDOT
 70
     0
  3
_._._._._._._._._._
 72
    65
 73
     4
 40
0.5
 49
0.25
 49
-0.125
 49
0.0
 49
-0.125
  0
LTYPE
  2
DASHED
 70
     0
  3
_ _ _ _ _ _ _ _ _ _
 72
    65
 73
     2
 40
0.375
 49
0.25
 49
-0.125
  0
LTYPE
  2
DIVIDE
 70
     0
  3
__..__..__..__..__.
 72
    65
 73
     6
 40
0.625
 49
0.25
 49
-0.125
 49
0.0
 49
-0.125
 49
0.0
 49
-0.125
  0
LTYPE
  2
DOT
 70
     0
  3
...................
 72
    65
 73
     2
 40
0.125
 49
0.0
 49
-0.125
  0
LTYPE
  2
HIDDEN
 70
     0
  3
__ __ __ __ __ __ _
 72
    65
 73
     2
 40
0.1875
 49
0.125
 49
-0.0625
  0
LTYPE
  2
PHANTOM
 70
     0
  3
___ _ _ ___ _ _ ___
 72
    65
 73
     6
 40
1.25
 49
0.625
 49
-0.125
 49
0.125
 49
-0.125
 49
0.125
 49
-0.125
  0
LTYPE
  2
CUTTING
 70
     0
  3
________ _ _ ______
 72
    65
 73
     6
 40
1.4675
 49
1.0
 49
-0.0725
 49
0.125
 49
-0.0725
 49
0.125
 49
-0.0725
  0
LTYPE
  2
STITCH
 70
     0
  3
_ _ _ _ _ _ _ _ _ _
 72
    65
 73
     2
 40
0.145
 49
0.0725
 49
-0.0725
  0
LTYPE
  2
CENTERX2
 70
     0
  3
Center (2x) _______
 72
    65
 73
     4
 40
20.32
 49
12.7
 49
-2.54
 49
2.54
 49
-2.54
  0
LTYPE
  2
DOT2
 70
     0
  3
Dot (.5x) .........
 72
    65
 73
     2
 40
0.635
 49
0.0
 49
-0.635
  0
ENDTAB
  0
TABLE
  2
LAYER
 70
     5
  0
LAYER
  2
0
 70
     0
 62
     7
  6
CONTINUOUS
  0
LAYER
  2
LAYER1
 70
     0
 62
     7
  6
CONTINUOUS
  0
LAYER
  2
DXF_HASE1_GUT
 70
     0
 62
     7
  6
CONTINUOUS
  0
LAYER
  2
DXF_HASE1_GUT_MODEL
 70
     0
 62
     7
  6
CONTINUOUS
  0
LAYER
  2
DXF_HASE1_GUT_MODEL_EBENE_
 70
     0
 62
     7
  6
CONTINUOUS
  0
ENDTAB
  0
TABLE
  2
STYLE
 70
     1
  0
STYLE
  2
STANDARD
 70
     0
 40
0.0
 41
1.0
 50
0.0
 71
     0
 42
2.5
  3
txt
  4

  0
ENDTAB
  0
TABLE
  2
VIEW
 70
     0
  0
ENDTAB
  0
TABLE
  2
UCS
 70
     0
  0
ENDTAB
  0
TABLE
  2
APPID
 70
     2
  0
APPID
  2
ACAD
 70
     0
  0
APPID
  2
TURBOCAD
 70
     0
  0
ENDTAB
  0
TABLE
  2
DIMSTYLE
 70
     1
  0
DIMSTYLE
  2
ISO-25
 70
     0
  3

  4

  5

  6

  7

 40
1.0
 41
2.5
 42
0.625
 43
3.75
 44
1.25
 45
0.0
 46
0.0
 47
0.0
 48
0.0
140
2.5
141
2.5
142
0.0
143
0.03937007874016
144
1.0
145
0.0
146
1.0
147
0.625
 71
     0
 72
     0
 73
     0
 74
     0
 75
     0
 76
     0
 77
     1
 78
     8
170
     0
171
     3
172
     1
173
     0
174
     0
175
     0
176
     0
177
     0
178
     0
  0
ENDTAB
  0
ENDSEC
  0
SECTION
  2
BLOCKS
  0
BLOCK
  8
0
  2
$MODEL_SPACE
 70
     0
 10
0.0
 20
0.0
 30
0.0
  3
$MODEL_SPACE
  1

  0
ENDBLK
  5
21
  8
0
  0
BLOCK
 67
     1
  8
0
  2
$PAPER_SPACE
 70
     0
 10
0.0
 20
0.0
 30
0.0
  3
$PAPER_SPACE
  1

  0
ENDBLK
  5
1D
 67
     1
  8
0
  0
ENDSEC
  0
SECTION
  2
ENTITIES
  0
POLYLINE
  5
7F
  8
LAYER1
 62
   178
 10
0.0
 20
0.0
 30
0.0
 66
     1
 70
     8
  0
VERTEX
  5
80
  8
LAYER1
 62
   178
 10
6.431191999999998
 20
141.49373
 30
0.0
 70
    32
  0
VERTEX
  5
81
  8
LAYER1
 62
   178
 10
6.414020861802654
 20
141.7083218862115
 30
0.0
 70
    32
  0
VERTEX
  5
82
  8
LAYER1
 62
   178
 10
6.413011743867328
 20
141.7209492863074
 30
0.0
 70
    32
  0
VERTEX
  5
83
  8
LAYER1
 62
   178
 10
6.410993885658201
 20
141.7462055193633
 30
0.0
 70
    32
  0
VERTEX
  5
84
  8
LAYER1
 62
   178
 10
6.406959765737373
 20
141.7967236938898
 30
0.0
 70
    32
  0
VERTEX
  5
85
  8
LAYER1
 62
   178
 10
6.398898598695998
 20
141.897782692272
 30
0.0
 70
    32
  0
VERTEX
  5
86
  8
LAYER1
 62
   178
 10
6.382810050298997
 20
142.099989811718
 30
0.0
 70
    32
  0
VERTEX
  5
87
  8
LAYER1
 62
   178
 10
6.350812052124997
 20
142.50474874425
 30
0.0
 70
    32
  0
VERTEX
  5
88
  8
LAYER1
 62
   178
 10
6.287884097272999
 20
143.315551007186
 30
0.0
 70
    32
  0
VERTEX
  5
89
  8
LAYER1
 62
   178
 10
6.169113529680999
 20
144.941538111042
 30
0.0
 70
    32
  0
VERTEX
  5
8A
  8
LAYER1
 62
   178
 10
5.982419171969001
 20
148.205002522658
 30
0.0
 70
    32
  0
VERTEX
  5
8B
  8
LAYER1
 62
   178
 10
5.981453346083983
 20
148.2276177131783
 30
0.0
 70
    32
  0
VERTEX
  5
8C
  8
LAYER1
 62
   178
 10
5.927355615577003
 20
149.8390283401141
 30
0.0
 70
    32
  0
VERTEX
  5
8D
  8
LAYER1
 62
   178
 10
5.906387963313001
 20
151.472282238466
 30
0.0
 70
    32
  0
VERTEX
  5
8E
  8
LAYER1
 62
   178
 10
5.925946332041002
 20
153.103038472562
 30
0.0
 70
    32
  0
VERTEX
  5
8F
  8
LAYER1
 62
   178
 10
5.952932185797001
 20
153.916940670154
 30
0.0
 70
    32
  0
VERTEX
  5
90
  8
LAYER1
 62
   178
 10
6.016377588477337
 20
155.1230019311481
 30
0.0
 70
    32
  0
VERTEX
  5
91
  8
LAYER1
 62
   178
 10
6.118610987259262
 20
156.4175246945185
 30
0.0
 70
    32
  0
VERTEX
  5
92
  8
LAYER1
 62
   178
 10
6.266123104000003
 20
157.761928848
 30
0.0
 70
    32
  0
VERTEX
  5
93
  8
LAYER1
 62
   178
 10
6.406377850125003
 20
158.76610074025
 30
0.0
 70
    32
  0
VERTEX
  5
94
  8
LAYER1
 62
   178
 10
6.769857445375002
 20
160.76199564075
 30
0.0
 70
    32
  0
VERTEX
  5
95
  8
LAYER1
 62
   178
 10
6.996222000000002
 20
161.752876
 30
0.0
 70
    32
  0
SEQEND
  5
96
  8
LAYER1
 62
   178
  0
POLYLINE
  5
97
  8
LAYER1
 62
   178
 10
0.0
 20
0.0
 30
0.0
 66
     1
 70
     8
  0
VERTEX
  5
98
  8
LAYER1
 62
   178
 10
6.996222000000002
 20
161.752876
 30
0.0
 70
    32
  0
VERTEX
  5
99
  8
LAYER1
 62
   178
 10
7.13135996024219
 20
161.6996663897618
 30
0.0
 70
    32
  0
VERTEX
  5
9A
  8
LAYER1
 62
   178
 10
7.158054617023502
 20
161.6886180627033
 30
0.0
 70
    32
  0
VERTEX
  5
9B
  8
LAYER1
 62
   178
 10
7.211114082352002
 20
161.666119057504
 30
0.0
 70
    32
  0
VERTEX
  5
9C
  8
LAYER1
 62
   178
 10
7.315924424688002
 20
161.619525831526
 30
0.0
 70
    32
  0
VERTEX
  5
9D
  8
LAYER1
 62
   178
 10
7.520397193000001
 20
161.52007202725
 30
0.0
 70
    32
  0
VERTEX
  5
9E
  8
LAYER1
 62
   178
 10
7.909442559576003
 20
161.297003089402
 30
0.0
 70
    32
  0
VERTEX
  5
9F
  8
LAYER1
 62
   178
 10
8.613464575672001
 20
160.761484536394
 30
0.0
 70
    32
  0
VERTEX
  5
A0
  8
LAYER1
 62
   178
 10
9.598169732913913
 20
159.6414698347451
 30
0.0
 70
    32
  0
VERTEX
  5
A1
  8
LAYER1
 62
   178
 10
9.769489444727999
 20
159.391041840106
 30
0.0
 70
    32
  0
VERTEX
  5
A2
  8
LAYER1
 62
   178
 10
10.246781272024
 20
158.589327479098
 30
0.0
 70
    32
  0
VERTEX
  5
A3
  8
LAYER1
 62
   178
 10
10.673785344056
 20
157.732090964362
 30
0.0
 70
    32
  0
VERTEX
  5
A4
  8
LAYER1
 62
   178
 10
11.063146147992
 20
156.835937187034
 30
0.0
 70
    32
  0
VERTEX
  5
A5
  8
LAYER1
 62
   178
 10
11.247661726664
 20
156.378455353378
 30
0.0
 70
    32
  0
VERTEX
  5
A6
  8
LAYER1
 62
   178
 10
11.471925451824
 20
155.801920932448
 30
0.0
 70
    32
  0
VERTEX
  5
A7
  8
LAYER1
 62
   178
 10
11.60034004797626
 20
155.4653896360813
 30
0.0
 70
    32
  0
VERTEX
  5
A8
  8
LAYER1
 62
   178
 10
11.7576381143125
 20
155.0509112928438
 30
0.0
 70
    32
  0
VERTEX
  5
A9
  8
LAYER1
 62
   178
 10
12.043020641216
 20
154.306410533182
 30
0.0
 70
    32
  0
VERTEX
  5
AA
  8
LAYER1
 62
   178
 10
12.3348552440355
 20
153.5773251343772
 30
0.0
 70
    32
  0
VERTEX
  5
AB
  8
LAYER1
 62
   178
 10
12.48531151500781
 20
153.221346470582
 30
0.0
 70
    32
  0
VERTEX
  5
AC
  8
LAYER1
 62
   178
 10
12.56204529507607
 20
153.0459852207613
 30
0.0
 70
    32
  0
VERTEX
  5
AD
  8
LAYER1
 62
   178
 10
12.787065712
 20
152.55795410275
 30
0.0
 70
    32
  0
VERTEX
  5
AE
  8
LAYER1
 62
   178
 10
13.043588
 20
152.051716
 30
0.0
 70
    32
  0
SEQEND
  5
AF
  8
LAYER1
 62
   178
  0
POLYLINE
  5
B0
  8
LAYER1
 62
   178
 10
0.0
 20
0.0
 30
0.0
 66
     1
 70
     8
  0
VERTEX
  5
B1
  8
LAYER1
 62
   178
 10
13.043588
 20
152.051716
 30
0.0
 70
    32
  0
VERTEX
  5
B2
  8
LAYER1
 62
   178
 10
13.13820917391483
 20
151.7944324427082
 30
0.0
 70
    32
  0
VERTEX
  5
B3
  8
LAYER1
 62
   178
 10
13.14379476951131
 20
151.7793062183494
 30
0.0
 70
    32
  0
VERTEX
  5
B4
  8
LAYER1
 62
   178
 10
13.15497246938086
 20
151.7490564545176
 30
0.0
 70
    32
  0
VERTEX
  5
B5
  8
LAYER1
 62
   178
 10
13.17735384868513
 20
151.6885676440514
 30
0.0
 70
    32
  0
VERTEX
  5
B6
  8
LAYER1
 62
   178
 10
13.222220084424
 20
151.567632713144
 30
0.0
 70
    32
  0
VERTEX
  5
B7
  8
LAYER1
 62
   178
 10
13.312362935381
 20
151.325932181311
 30
0.0
 70
    32
  0
VERTEX
  5
B8
  8
LAYER1
 62
   178
 10
13.494261922875
 20
150.843196996625
 30
0.0
 70
    32
  0
VERTEX
  5
B9
  8
LAYER1
 62
   178
 10
13.864287181487
 20
149.880298615597
 30
0.0
 70
    32
  0
VERTEX
  5
BA
  8
LAYER1
 62
   178
 10
14.627439963639
 20
147.964057586309
 30
0.0
 70
    32
  0
VERTEX
  5
BB
  8
LAYER1
 62
   178
 10
16.231699631111
 20
144.163940693941
 30
0.0
 70
    32
  0
VERTEX
  5
BC
  8
LAYER1
 62
   178
 10
16.26387471429673
 20
144.0901421865966
 30
0.0
 70
    32
  0
VERTEX
  5
BD
  8
LAYER1
 62
   178
 10
17.91236485224701
 20
140.395819709157
 30
0.0
 70
    32
  0
VERTEX
  5
BE
  8
LAYER1
 62
   178
 10
18.77102457647901
 20
138.519573564349
 30
0.0
 70
    32
  0
VERTEX
  5
BF
  8
LAYER1
 62
   178
 10
19.81988196788651
 20
136.2503533231392
 30
0.0
 70
    32
  0
VERTEX
  5
C0
  8
LAYER1
 62
   178
 10
22.870810994625
 20
129.6195034958751
 30
0.0
 70
    32
  0
VERTEX
  5
C1
  8
LAYER1
 62
   178
 10
23.39811700000001
 20
128.443956
 30
0.0
 70
    32
  0
SEQEND
  5
C2
  8
LAYER1
 62
   178
  0
POLYLINE
  5
C3
  8
LAYER1
 62
   178
 10
0.0
 20
0.0
 30
0.0
 66
     1
 70
     8
  0
VERTEX
  5
C4
  8
LAYER1
 62
   178
 10
23.39811700000001
 20
128.443956
 30
0.0
 70
    32
  0
VERTEX
  5
C5
  8
LAYER1
 62
   178
 10
23.55889855089017
 20
127.9784598867249
 30
0.0
 70
    32
  0
VERTEX
  5
C6
  8
LAYER1
 62
   178
 10
23.56838310604642
 20
127.9510832346643
 30
0.0
 70
    32
  0
VERTEX
  5
C7
  8
LAYER1
 62
   178
 10
23.58736101316017
 20
127.8963317171446
 30
0.0
 70
    32
  0
VERTEX
  5
C8
  8
LAYER1
 62
   178
 10
23.62535181557575
 20
127.7868357760357
 30
0.0
 70
    32
  0
VERTEX
  5
C9
  8
LAYER1
 62
   178
 10
23.70147178102401
 20
127.567871849744
 30
0.0
 70
    32
  0
VERTEX
  5
CA
  8
LAYER1
 62
   178
 10
23.854252417306
 20
127.130052462486
 30
0.0
 70
    32
  0
VERTEX
  5
CB
  8
LAYER1
 62
   178
 10
24.16187461475
 20
126.25482068225
 30
0.0
 70
    32
  0
VERTEX
  5
CC
  8
LAYER1
 62
   178
 10
24.78454753586201
 20
124.505770162722
 30
0.0
 70
    32
  0
VERTEX
  5
CD
  8
LAYER1
 62
   178
 10
26.053086096614
 20
121.011601798034
 30
0.0
 70
    32
  0
VERTEX
  5
CE
  8
LAYER1
 62
   178
 10
28.630763001286
 20
114.025239850866
 30
0.0
 70
    32
  0
VERTEX
  5
CF
  8
LAYER1
 62
   178
 10
28.66754689734607
 20
113.9253283521397
 30
0.0
 70
    32
  0
VERTEX
  5
D0
  8
LAYER1
 62
   178
 10
29.910089293238
 20
110.5251857453781
 30
0.0
 70
    32
  0
VERTEX
  5
D1
  8
LAYER1
 62
   178
 10
31.163199443622
 20
107.015309203282
 30
0.0
 70
    32
  0
VERTEX
  5
D2
  8
LAYER1
 62
   178
 10
32.375187426454
 20
103.491679963074
 30
0.0
 70
    32
  0
VERTEX
  5
D3
  8
LAYER1
 62
   178
 10
32.961102471918
 20
101.723479874458
 30
0.0
 70
    32
  0
VERTEX
  5
D4
  8
LAYER1
 62
   178
 10
33.248225084866
 20
100.837568526846
 30
0.0
 70
    32
  0
VERTEX
  5
D5
  8
LAYER1
 62
   178
 10
33.76995198296849
 20
99.18941556890636
 30
0.0
 70
    32
  0
VERTEX
  5
D6
  8
LAYER1
 62
   178
 10
37.017538071552
 20
86.90310314411202
 30
0.0
 70
    32
  0
VERTEX
  5
D7
  8
LAYER1
 62
   178
 10
37.11254480525
 20
86.44586736275
 30
0.0
 70
    32
  0
VERTEX
  5
D8
  8
LAYER1
 62
   178
 10
37.55727
 20
84.151015
 30
0.0
 70
    32
  0
SEQEND
  5
D9
  8
LAYER1
 62
   178
  0
POLYLINE
  5
DA
  8
LAYER1
 62
   178
 10
0.0
 20
0.0
 30
0.0
 66
     1
 70
     8
  0
VERTEX
  5
DB
  8
LAYER1
 62
   178
 10
37.55727
 20
84.151015
 30
0.0
 70
    32
  0
VERTEX
  5
DC
  8
LAYER1
 62
   178
 10
37.58232842223512
 20
84.05304376455807
 30
0.0
 70
    32
  0
VERTEX
  5
DD
  8
LAYER1
 62
   178
 10
37.58510792004883
 20
84.04215729436916
 30
0.0
 70
    32
  0
VERTEX
  5
DE
  8
LAYER1
 62
   178
 10
37.59066405921936
 20
84.02038388713488
 30
0.0
 70
    32
  0
VERTEX
  5
DF
  8
LAYER1
 62
   178
 10
37.60176492651999
 20
83.97683520421602
 30
0.0
 70
    32
  0
VERTEX
  5
E0
  8
LAYER1
 62
   178
 10
37.623921135255
 20
83.88973035637898
 30
0.0
 70
    32
  0
VERTEX
  5
E1
  8
LAYER1
 62
   178
 10
37.66805239562498
 20
83.71549066712498
 30
0.0
 70
    32
  0
VERTEX
  5
E2
  8
LAYER1
 62
   178
 10
37.755597858885
 20
83.36689078963302
 30
0.0
 70
    32
  0
VERTEX
  5
E3
  8
LAYER1
 62
   178
 10
37.92788112284499
 20
82.669204841401
 30
0.0
 70
    32
  0
VERTEX
  5
E4
  8
LAYER1
 62
   178
 10
38.26170153940498
 20
81.27185459344898
 30
0.0
 70
    32
  0
VERTEX
  5
E5
  8
LAYER1
 62
   178
 10
38.26893623183214
 20
81.24088836576564
 30
0.0
 70
    32
  0
VERTEX
  5
E6
  8
LAYER1
 62
   178
 10
38.92125581525274
 20
78.32459971651923
 30
0.0
 70
    32
  0
VERTEX
  5
E7
  8
LAYER1
 62
   178
 10
39.43866416687499
 20
75.830908675375
 30
0.0
 70
    32
  0
VERTEX
  5
E8
  8
LAYER1
 62
   178
 10
39.52675699999998
 20
75.39022
 30
0.0
 70
    32
  0
SEQEND
  5
E9
  8
LAYER1
 62
   178
  0
POLYLINE
  5
EA
  8
LAYER1
 62
   178
 10
0.0
 20
0.0
 30
0.0
 66
     1
 70
     8
  0
VERTEX
  5
EB
  8
LAYER1
 62
   178
 10
39.52675699999998
 20
75.39022
 30
0.0
 70
    32
  0
VERTEX
  5
EC
  8
LAYER1
 62
   178
 10
39.55819106343936
 20
75.62784044160792
 30
0.0
 70
    32
  0
VERTEX
  5
ED
  8
LAYER1
 62
   178
 10
39.56004252387518
 20
75.64182022631788
 30
0.0
 70
    32
  0
VERTEX
  5
EE
  8
LAYER1
 62
   178
 10
39.56374628824999
 20
75.66978048323635
 30
0.0
 70
    32
  0
VERTEX
  5
EF
  8
LAYER1
 62
   178
 10
39.57115725290598
 20
75.72570372411738
 30
0.0
 70
    32
  0
VERTEX
  5
F0
  8
LAYER1
 62
   178
 10
39.58599342099198
 20
75.837560930456
 30
0.0
 70
    32
  0
VERTEX
  5
F1
  8
LAYER1
 62
   178
 10
39.61572667344798
 20
76.061316772639
 30
0.0
 70
    32
  0
VERTEX
  5
F2
  8
LAYER1
 62
   178
 10
39.67546853299999
 20
76.50898242462499
 30
0.0
 70
    32
  0
VERTEX
  5
F3
  8
LAYER1
 62
   178
 10
39.79630718669599
 20
77.404835595853
 30
0.0
 70
    32
  0
VERTEX
  5
F4
  8
LAYER1
 62
   178
 10
40.04543236071199
 20
79.19787738154099
 30
0.0
 70
    32
  0
VERTEX
  5
F5
  8
LAYER1
 62
   178
 10
40.58969920128798
 20
82.78328651950896
 30
0.0
 70
    32
  0
VERTEX
  5
F6
  8
LAYER1
 62
   178
 10
40.59731255394654
 20
82.82991092937309
 30
0.0
 70
    32
  0
VERTEX
  5
F7
  8
LAYER1
 62
   178
 10
41.226226176776
 20
86.35633697229298
 30
0.0
 70
    32
  0
VERTEX
  5
F8
  8
LAYER1
 62
   178
 10
41.59067651943199
 20
88.13393040150098
 30
0.0
 70
    32
  0
VERTEX
  5
F9
  8
LAYER1
 62
   178
 10
41.78647653274399
 20
89.01974214101699
 30
0.0
 70
    32
  0
VERTEX
  5
FA
  8
LAYER1
 62
   178
 10
42.08391811651953
 20
90.28341493316779
 30
0.0
 70
    32
  0
VERTEX
  5
FB
  8
LAYER1
 62
   178
 10
42.86055696799998
 20
93.192592064
 30
0.0
 70
    32
  0
VERTEX
  5
FC
  8
LAYER1
 62
   178
 10
43.30148388088888
 20
94.64030057748148
 30
0.0
 70
    32
  0
VERTEX
  5
FD
  8
LAYER1
 62
   178
 10
43.90585045699999
 20
96.43554158787498
 30
0.0
 70
    32
  0
VERTEX
  5
FE
  8
LAYER1
 62
   178
 10
44.29886
 20
97.504263
 30
0.0
 70
    32
  0
SEQEND
  5
FF
  8
LAYER1
 62
   178
  0
POLYLINE
  5
100
  8
LAYER1
 62
   178
 10
0.0
 20
0.0
 30
0.0
 66
     1
 70
     8
  0
VERTEX
  5
101
  8
LAYER1
 62
   178
 10
44.29886
 20
97.504263
 30
0.0
 70
    32
  0
VERTEX
  5
102
  8
LAYER1
 62
   178
 10
44.39538798728383
 20
97.80357086988269
 30
0.0
 70
    32
  0
VERTEX
  5
103
  8
LAYER1
 62
   178
 10
44.40104958954357
 20
97.82118554897244
 30
0.0
 70
    32
  0
VERTEX
  5
104
  8
LAYER1
 62
   178
 10
44.41236738661133
 20
97.85641764092969
 30
0.0
 70
    32
  0
VERTEX
  5
105
  8
LAYER1
 62
   178
 10
44.43498148733937
 20
97.9268926981365
 30
0.0
 70
    32
  0
VERTEX
  5
106
  8
LAYER1
 62
   178
 10
44.48012480636
 20
98.067885811168
 30
0.0
 70
    32
  0
VERTEX
  5
107
  8
LAYER1
 62
   178
 10
44.570080644215
 20
98.35004007529199
 30
0.0
 70
    32
  0
VERTEX
  5
108
  8
LAYER1
 62
   178
 10
44.74873895562499
 20
98.91498910449998
 30
0.0
 70
    32
  0
VERTEX
  5
109
  8
LAYER1
 62
   178
 10
45.10160081280501
 20
100.047195956484
 30
0.0
 70
    32
  0
VERTEX
  5
10A
  8
LAYER1
 62
   178
 10
45.793974997085
 20
102.318819152548
 30
0.0
 70
    32
  0
VERTEX
  5
10B
  8
LAYER1
 62
   178
 10
47.161081505165
 20
106.874698055652
 30
0.0
 70
    32
  0
VERTEX
  5
10C
  8
LAYER1
 62
   178
 10
47.17993579790877
 20
106.9371071399193
 30
0.0
 70
    32
  0
VERTEX
  5
10D
  8
LAYER1
 62
   178
 10
47.85624597744502
 20
109.149693501316
 30
0.0
 70
    32
  0
VERTEX
  5
10E
  8
LAYER1
 62
   178
 10
48.57277269420501
 20
111.416552768804
 30
0.0
 70
    32
  0
VERTEX
  5
10F
  8
LAYER1
 62
   178
 10
49.32087772968502
 20
113.670645727428
 30
0.0
 70
    32
  0
VERTEX
  5
110
  8
LAYER1
 62
   178
 10
49.70996464014502
 20
114.791457925076
 30
0.0
 70
    32
  0
VERTEX
  5
111
  8
LAYER1
 62
   178
 10
50.29617628051145
 20
116.4100614188368
 30
0.0
 70
    32
  0
VERTEX
  5
112
  8
LAYER1
 62
   178
 10
53.48509108628002
 20
123.796760692064
 30
0.0
 70
    32
  0
VERTEX
  5
113
  8
LAYER1
 62
   178
 10
53.61952290687503
 20
124.0609793755
 30
0.0
 70
    32
  0
VERTEX
  5
114
  8
LAYER1
 62
   178
 10
54.31325000000002
 20
125.37266
 30
0.0
 70
    32
  0
SEQEND
  5
115
  8
LAYER1
 62
   178
  0
POLYLINE
  5
116
  8
LAYER1
 62
   178
 10
0.0
 20
0.0
 30
0.0
 66
     1
 70
     8
  0
VERTEX
  5
117
  8
LAYER1
 62
   178
 10
54.31325000000002
 20
125.37266
 30
0.0
 70
    32
  0
VERTEX
  5
118
  8
LAYER1
 62
   178
 10
54.43819849038882
 20
125.5820850623787
 30
0.0
 70
    32
  0
VERTEX
  5
119
  8
LAYER1
 62
   178
 10
54.44562772717742
 20
125.5941841270138
 30
0.0
 70
    32
  0
VERTEX
  5
11A
  8
LAYER1
 62
   178
 10
54.4605124227305
 20
125.6183091971446
 30
0.0
 70
    32
  0
VERTEX
  5
11B
  8
LAYER1
 62
   178
 10
54.49038639389828
 20
125.6662675111707
 30
0.0
 70
    32
  0
VERTEX
  5
11C
  8
LAYER1
 62
   178
 10
54.55055019374403
 20
125.761020116864
 30
0.0
 70
    32
  0
VERTEX
  5
11D
  8
LAYER1
 62
   178
 10
54.67252152158602
 20
125.945895499466
 30
0.0
 70
    32
  0
VERTEX
  5
11E
  8
LAYER1
 62
   178
 10
54.92288147475001
 20
126.29733703475
 30
0.0
 70
    32
  0
VERTEX
  5
11F
  8
LAYER1
 62
   178
 10
55.44800965002203
 20
126.928663867382
 30
0.0
 70
    32
  0
VERTEX
  5
120
  8
LAYER1
 62
   178
 10
56.58581170853401
 20
127.918538034854
 30
0.0
 70
    32
  0
VERTEX
  5
121
  8
LAYER1
 62
   178
 10
57.82112734375001
 20
128.57031659375
 30
0.0
 70
    32
  0
VERTEX
  5
122
  8
LAYER1
 62
   178
 10
58.82894555569219
 20
128.8620625781009
 30
0.0
 70
    32
  0
VERTEX
  5
123
  8
LAYER1
 62
   178
 10
59.13089971496601
 20
128.914732010246
 30
0.0
 70
    32
  0
VERTEX
  5
124
  8
LAYER1
 62
   178
 10
60.49207198147801
 20
128.982516750518
 30
0.0
 70
    32
  0
VERTEX
  5
125
  8
LAYER1
 62
   178
 10
61.881587302582
 20
128.804403280742
 30
0.0
 70
    32
  0
VERTEX
  5
126
  8
LAYER1
 62
   178
 10
63.276388837574
 20
128.411124067094
 30
0.0
 70
    32
  0
VERTEX
  5
127
  8
LAYER1
 62
   178
 10
63.968566672558
 20
128.143401201998
 30
0.0
 70
    32
  0
VERTEX
  5
128
  8
LAYER1
 62
   178
 10
64.823150773328
 20
127.749760170368
 30
0.0
 70
    32
  0
VERTEX
  5
129
  8
LAYER1
 62
   178
 10
65.43801479151686
 20
127.4241859294767
 30
0.0
 70
    32
  0
VERTEX
  5
12A
  8
LAYER1
 62
   178
 10
65.90774284471875
 20
127.1516330719062
 30
0.0
 70
    32
  0
VERTEX
  5
12B
  8
LAYER1
 62
   178
 10
66.43535346322166
 20
126.8206218849839
 30
0.0
 70
    32
  0
VERTEX
  5
12C
  8
LAYER1
 62
   178
 10
66.951112610602
 20
126.471059637362
 30
0.0
 70
    32
  0
VERTEX
  5
12D
  8
LAYER1
 62
   178
 10
67.45347439211409
 20
126.1050068523619
 30
0.0
 70
    32
  0
VERTEX
  5
12E
  8
LAYER1
 62
   178
 10
67.94089291301225
 20
125.7245240533048
 30
0.0
 70
    32
  0
VERTEX
  5
12F
  8
LAYER1
 62
   178
 10
68.41182227855077
 20
125.3316717635117
 30
0.0
 70
    32
  0
VERTEX
  5
130
  8
LAYER1
 62
   178
 10
68.64062043595216
 20
125.1312509731272
 30
0.0
 70
    32
  0
VERTEX
  5
131
  8
LAYER1
 62
   178
 10
69.26542853025
 20
124.54899365525
 30
0.0
 70
    32
  0
VERTEX
  5
132
  8
LAYER1
 62
   178
 10
69.89290299999999
 20
123.905249
 30
0.0
 70
    32
  0
SEQEND
  5
133
  8
LAYER1
 62
   178
  0
POLYLINE
  5
134
  8
LAYER1
 62
   178
 10
0.0
 20
0.0
 30
0.0
 66
     1
 70
     8
  0
VERTEX
  5
135
  8
LAYER1
 62
   178
 10
69.89290299999999
 20
123.905249
 30
0.0
 70
    32
  0
VERTEX
  5
136
  8
LAYER1
 62
   178
 10
70.05515754374272
 20
123.7418840878769
 30
0.0
 70
    32
  0
VERTEX
  5
137
  8
LAYER1
 62
   178
 10
70.07308618105078
 20
123.7236181838282
 30
0.0
 70
    32
  0
VERTEX
  5
138
  8
LAYER1
 62
   178
 10
70.10888453872074
 20
123.68701883402
 30
0.0
 70
    32
  0
VERTEX
  5
139
  8
LAYER1
 62
   178
 10
70.18024761686401
 20
123.61355231624
 30
0.0
 70
    32
  0
VERTEX
  5
13A
  8
LAYER1
 62
   178
 10
70.32205546906597
 20
123.46556679746
 30
0.0
 70
    32
  0
VERTEX
  5
13B
  8
LAYER1
 62
   178
 10
70.60212791474999
 20
123.1655361425
 30
0.0
 70
    32
  0
VERTEX
  5
13C
  8
LAYER1
 62
   178
 10
71.149139432182
 20
122.55043888682
 30
0.0
 70
    32
  0
VERTEX
  5
13D
  8
LAYER1
 62
   178
 10
72.198946258854
 20
121.26972078314
 30
0.0
 70
    32
  0
VERTEX
  5
13E
  8
LAYER1
 62
   178
 10
74.12917889920142
 20
118.6655244599024
 30
0.0
 70
    32
  0
VERTEX
  5
13F
  8
LAYER1
 62
   178
 10
74.188233379846
 20
118.58315173226
 30
0.0
 70
    32
  0
VERTEX
  5
140
  8
LAYER1
 62
   178
 10
75.16573556011802
 20
117.22127879978
 30
0.0
 70
    32
  0
VERTEX
  5
141
  8
LAYER1
 62
   178
 10
75.65851859275
 20
116.5453154225
 30
0.0
 70
    32
  0
VERTEX
  5
142
  8
LAYER1
 62
   178
 10
76.15715807754202
 20
115.87633227242
 30
0.0
 70
    32
  0
VERTEX
  5
143
  8
LAYER1
 62
   178
 10
76.664030382366
 20
115.21707797546
 30
0.0
 70
    32
  0
VERTEX
  5
144
  8
LAYER1
 62
   178
 10
77.18151187509402
 20
114.57030115754
 30
0.0
 70
    32
  0
VERTEX
  5
145
  8
LAYER1
 62
   178
 10
77.71197892359801
 20
113.93875044458
 30
0.0
 70
    32
  0
VERTEX
  5
146
  8
LAYER1
 62
   178
 10
77.982824646226
 20
113.62954382306
 30
0.0
 70
    32
  0
VERTEX
  5
147
  8
LAYER1
 62
   178
 10
78.39694391996801
 20
113.17491112328
 30
0.0
 70
    32
  0
VERTEX
  5
148
  8
LAYER1
 62
   178
 10
78.60338329480545
 20
112.9566547209964
 30
0.0
 70
    32
  0
VERTEX
  5
149
  8
LAYER1
 62
   178
 10
79.33091559815625
 20
112.23273620375
 30
0.0
 70
    32
  0
VERTEX
  5
14A
  8
LAYER1
 62
   178
 10
79.8192413659526
 20
111.7865359192119
 30
0.0
 70
    32
  0
VERTEX
  5
14B
  8
LAYER1
 62
   178
 10
80.32349325816202
 20
111.35889281762
 30
0.0
 70
    32
  0
VERTEX
  5
14C
  8
LAYER1
 62
   178
 10
80.84494590374317
 20
110.9512811985706
 30
0.0
 70
    32
  0
VERTEX
  5
14D
  8
LAYER1
 62
   178
 10
81.38487393165477
 20
110.56517536166
 30
0.0
 70
    32
  0
VERTEX
  5
14E
  8
LAYER1
 62
   178
 10
81.94455197085549
 20
110.2020496064844
 30
0.0
 70
    32
  0
VERTEX
  5
14F
  8
LAYER1
 62
   178
 10
82.23219556623884
 20
110.0295649781711
 30
0.0
 70
    32
  0
VERTEX
  5
150
  8
LAYER1
 62
   178
 10
82.37803821414747
 20
109.9456728520921
 30
0.0
 70
    32
  0
VERTEX
  5
151
  8
LAYER1
 62
   178
 10
83.08105113525001
 20
109.5737385725
 30
0.0
 70
    32
  0
VERTEX
  5
152
  8
LAYER1
 62
   178
 10
83.27071225388801
 20
109.48230201248
 30
0.0
 70
    32
  0
VERTEX
  5
153
  8
LAYER1
 62
   178
 10
84.05232500000001
 20
109.143251
 30
0.0
 70
    32
  0
SEQEND
  5
154
  8
LAYER1
 62
   178
  0
POLYLINE
  5
155
  8
LAYER1
 62
   178
 10
0.0
 20
0.0
 30
0.0
 66
     1
 70
     8
  0
VERTEX
  5
156
  8
LAYER1
 62
   178
 10
84.05232500000001
 20
109.143251
 30
0.0
 70
    32
  0
VERTEX
  5
157
  8
LAYER1
 62
   178
 10
84.18710657196989
 20
109.1287596309459
 30
0.0
 70
    32
  0
VERTEX
  5
158
  8
LAYER1
 62
   178
 10
84.232892273736
 20
109.124724631368
 30
0.0
 70
    32
  0
VERTEX
  5
159
  8
LAYER1
 62
   178
 10
84.325693281959
 20
109.1178040891671
 30
0.0
 70
    32
  0
VERTEX
  5
15A
  8
LAYER1
 62
   178
 10
84.515942294625
 20
109.108356767625
 30
0.0
 70
    32
  0
VERTEX
  5
15B
  8
LAYER1
 62
   178
 10
84.91285692449303
 20
109.105404656309
 30
0.0
 70
    32
  0
VERTEX
  5
15C
  8
LAYER1
 62
   178
 10
85.75498155962099
 20
109.150210403373
 30
0.0
 70
    32
  0
VERTEX
  5
15D
  8
LAYER1
 62
   178
 10
86.94555565973768
 20
109.2742958684731
 30
0.0
 70
    32
  0
VERTEX
  5
15E
  8
LAYER1
 62
   178
 10
87.49344398942898
 20
109.338180517277
 30
0.0
 70
    32
  0
VERTEX
  5
15F
  8
LAYER1
 62
   178
 10
87.910402267201
 20
109.383897495913
 30
0.0
 70
    32
  0
VERTEX
  5
160
  8
LAYER1
 62
   178
 10
88.31037130295701
 20
109.4216413075411
 30
0.0
 70
    32
  0
VERTEX
  5
161
  8
LAYER1
 62
   178
 10
88.688387941625
 20
109.447680478625
 30
0.0
 70
    32
  0
VERTEX
  5
162
  8
LAYER1
 62
   178
 10
88.86761312609099
 20
109.455144738483
 30
0.0
 70
    32
  0
VERTEX
  5
163
  8
LAYER1
 62
   178
 10
89.039489028133
 20
109.4582835356291
 30
0.0
 70
    32
  0
VERTEX
  5
164
  8
LAYER1
 62
   178
 10
89.35871140740898
 20
109.449719005017
 30
0.0
 70
    32
  0
VERTEX
  5
165
  8
LAYER1
 62
   178
 10
89.50481709587498
 20
109.437082808875
 30
0.0
 70
    32
  0
VERTEX
  5
166
  8
LAYER1
 62
   178
 10
89.64109192438099
 20
109.418255413253
 30
0.0
 70
    32
  0
VERTEX
  5
167
  8
LAYER1
 62
   178
 10
89.766915498543
 20
109.392770383959
 30
0.0
 70
    32
  0
VERTEX
  5
168
  8
LAYER1
 62
   178
 10
89.88166742397699
 20
109.360161286801
 30
0.0
 70
    32
  0
VERTEX
  5
169
  8
LAYER1
 62
   178
 10
89.98472730629899
 20
109.319961687587
 30
0.0
 70
    32
  0
VERTEX
  5
16A
  8
LAYER1
 62
   178
 10
90.031678858048
 20
109.296869689024
 30
0.0
 70
    32
  0
VERTEX
  5
16B
  8
LAYER1
 62
   178
 10
90.116037436232
 20
109.244409772616
 30
0.0
 70
    32
  0
VERTEX
  5
16C
  8
LAYER1
 62
   178
 10
90.22948307667458
 20
109.1338678108652
 30
0.0
 70
    32
  0
VERTEX
  5
16D
  8
LAYER1
 62
   178
 10
90.29552969676563
 20
109.0110238782656
 30
0.0
 70
    32
  0
VERTEX
  5
16E
  8
LAYER1
 62
   178
 10
90.32616571157904
 20
108.8546429441323
 30
0.0
 70
    32
  0
VERTEX
  5
16F
  8
LAYER1
 62
   178
 10
90.313845486763
 20
108.669134716819
 30
0.0
 70
    32
  0
VERTEX
  5
170
  8
LAYER1
 62
   178
 10
90.14968783026086
 20
108.2027304770289
 30
0.0
 70
    32
  0
VERTEX
  5
171
  8
LAYER1
 62
   178
 10
89.99252615458397
 20
107.9178315117402
 30
0.0
 70
    32
  0
VERTEX
  5
172
  8
LAYER1
 62
   178
 10
89.01770799999997
 20
106.632223
 30
0.0
 70
    32
  0
SEQEND
  5
173
  8
LAYER1
 62
   178
  0
POLYLINE
  5
174
  8
LAYER1
 62
   178
 10
0.0
 20
0.0
 30
0.0
 66
     1
 70
     8
  0
VERTEX
  5
175
  8
LAYER1
 62
   178
 10
89.01770799999997
 20
106.632223
 30
0.0
 70
    32
  0
VERTEX
  5
176
  8
LAYER1
 62
   178
 10
88.7504694681696
 20
106.2657259016777
 30
0.0
 70
    32
  0
VERTEX
  5
177
  8
LAYER1
 62
   178
 10
88.72923636066034
 20
106.2381736195156
 30
0.0
 70
    32
  0
VERTEX
  5
178
  8
LAYER1
 62
   178
 10
88.68648564838396
 20
106.183342992
 30
0.0
 70
    32
  0
VERTEX
  5
179
  8
LAYER1
 62
   178
 10
88.59985558762494
 20
106.074777021875
 30
0.0
 70
    32
  0
VERTEX
  5
17A
  8
LAYER1
 62
   178
 10
87.13393228799998
 20
104.6208356
 30
0.0
 70
    32
  0
VERTEX
  5
17B
  8
LAYER1
 62
   178
 10
85.82163565661163
 20
103.7222937968907
 30
0.0
 70
    32
  0
VERTEX
  5
17C
  8
LAYER1
 62
   178
 10
84.57736517726464
 20
103.0955084571902
 30
0.0
 70
    32
  0
VERTEX
  5
17D
  8
LAYER1
 62
   178
 10
84.36926063018711
 20
103.0078613032402
 30
0.0
 70
    32
  0
VERTEX
  5
17E
  8
LAYER1
 62
   178
 10
83.9478409263771
 20
102.8438042237969
 30
0.0
 70
    32
  0
VERTEX
  5
17F
  8
LAYER1
 62
   178
 10
83.08672759973699
 20
102.560512011875
 30
0.0
 70
    32
  0
VERTEX
  5
180
  8
LAYER1
 62
   178
 10
81.311953427176
 20
102.172199641
 30
0.0
 70
    32
  0
VERTEX
  5
181
  8
LAYER1
 62
   178
 10
80.9592748684839
 20
102.1238308583927
 30
0.0
 70
    32
  0
VERTEX
  5
182
  8
LAYER1
 62
   178
 10
80.41003438514062
 20
102.0665990621094
 30
0.0
 70
    32
  0
VERTEX
  5
183
  8
LAYER1
 62
   178
 10
79.95801039478417
 20
102.0358107074395
 30
0.0
 70
    32
  0
VERTEX
  5
184
  8
LAYER1
 62
   178
 10
79.50625524185901
 20
102.019648607625
 30
0.0
 70
    32
  0
VERTEX
  5
185
  8
LAYER1
 62
   178
 10
78.60648689927389
 20
102.0310580675781
 30
0.0
 70
    32
  0
VERTEX
  5
186
  8
LAYER1
 62
   178
 10
78.15994143509961
 20
102.0585570748535
 30
0.0
 70
    32
  0
VERTEX
  5
187
  8
LAYER1
 62
   178
 10
77.93782444474205
 20
102.0777392769583
 30
0.0
 70
    32
  0
VERTEX
  5
188
  8
LAYER1
 62
   178
 10
77.310840949875
 20
102.152109865625
 30
0.0
 70
    32
  0
VERTEX
  5
189
  8
LAYER1
 62
   178
 10
76.6436
 20
102.265338
 30
0.0
 70
    32
  0
SEQEND
  5
18A
  8
LAYER1
 62
   178
  0
POLYLINE
  5
18B
  8
LAYER1
 62
   178
 10
0.0
 20
0.0
 30
0.0
 66
     1
 70
     8
  0
VERTEX
  5
18C
  8
LAYER1
 62
   178
 10
76.6436
 20
102.265338
 30
0.0
 70
    32
  0
VERTEX
  5
18D
  8
LAYER1
 62
   178
 10
76.11754810419755
 20
102.4208502312075
 30
0.0
 70
    32
  0
VERTEX
  5
18E
  8
LAYER1
 62
   178
 10
76.07739477817475
 20
102.4334313320447
 30
0.0
 70
    32
  0
VERTEX
  5
18F
  8
LAYER1
 62
   178
 10
75.997222493504
 20
102.458856425984
 30
0.0
 70
    32
  0
VERTEX
  5
190
  8
LAYER1
 62
   178
 10
75.83741638324999
 20
102.51075427825
 30
0.0
 70
    32
  0
VERTEX
  5
191
  8
LAYER1
 62
   178
 10
74.53390722311111
 20
102.9964220616296
 30
0.0
 70
    32
  0
VERTEX
  5
192
  8
LAYER1
 62
   178
 10
71.66279095932497
 20
104.495761120775
 30
0.0
 70
    32
  0
VERTEX
  5
193
  8
LAYER1
 62
   178
 10
70.60615517105846
 20
105.2169656160702
 30
0.0
 70
    32
  0
VERTEX
  5
194
  8
LAYER1
 62
   178
 10
70.49899327451031
 20
105.2958301385506
 30
0.0
 70
    32
  0
VERTEX
  5
195
  8
LAYER1
 62
   178
 10
70.28626036355251
 20
105.4556587861625
 30
0.0
 70
    32
  0
VERTEX
  5
196
  8
LAYER1
 62
   178
 10
69.86719204090022
 20
105.7835804519302
 30
0.0
 70
    32
  0
VERTEX
  5
197
  8
LAYER1
 62
   178
 10
69.054917158322
 20
106.471408945162
 30
0.0
 70
    32
  0
VERTEX
  5
198
  8
LAYER1
 62
   178
 10
67.53598856945598
 20
107.966428014576
 30
0.0
 70
    32
  0
VERTEX
  5
199
  8
LAYER1
 62
   178
 10
67.41096273753041
 20
108.1031571631041
 30
0.0
 70
    32
  0
VERTEX
  5
19A
  8
LAYER1
 62
   178
 10
66.83057722053124
 20
108.7687165542813
 30
0.0
 70
    32
  0
VERTEX
  5
19B
  8
LAYER1
 62
   178
 10
66.16202940685397
 20
109.604256406334
 30
0.0
 70
    32
  0
VERTEX
  5
19C
  8
LAYER1
 62
   178
 10
65.53096630710573
 20
110.4705965524957
 30
0.0
 70
    32
  0
VERTEX
  5
19D
  8
LAYER1
 62
   178
 10
65.22968564329294
 20
110.914550792668
 30
0.0
 70
    32
  0
VERTEX
  5
19E
  8
LAYER1
 62
   178
 10
65.08264200361104
 20
111.139089914467
 30
0.0
 70
    32
  0
VERTEX
  5
19F
  8
LAYER1
 62
   178
 10
64.67736073174997
 20
111.78710284675
 30
0.0
 70
    32
  0
VERTEX
  5
1A0
  8
LAYER1
 62
   178
 10
64.26144499999998
 20
112.501736
 30
0.0
 70
    32
  0
SEQEND
  5
1A1
  8
LAYER1
 62
   178
  0
POLYLINE
  5
1A2
  8
LAYER1
 62
   178
 10
0.0
 20
0.0
 30
0.0
 66
     1
 70
     8
  0
VERTEX
  5
1A3
  8
LAYER1
 62
   178
 10
64.26144499999998
 20
112.501736
 30
0.0
 70
    32
  0
VERTEX
  5
1A4
  8
LAYER1
 62
   178
 10
64.1878058650066
 20
112.4739218021762
 30
0.0
 70
    32
  0
VERTEX
  5
1A5
  8
LAYER1
 62
   178
 10
64.16331905911197
 20
112.462733434536
 30
0.0
 70
    32
  0
VERTEX
  5
1A6
  8
LAYER1
 62
   178
 10
64.11443317895298
 20
112.437525925709
 30
0.0
 70
    32
  0
VERTEX
  5
1A7
  8
LAYER1
 62
   178
 10
64.01700475237496
 20
112.375996315875
 30
0.0
 70
    32
  0
VERTEX
  5
1A8
  8
LAYER1
 62
   178
 10
63.82346049193099
 20
112.210146743543
 30
0.0
 70
    32
  0
VERTEX
  5
1A9
  8
LAYER1
 62
   178
 10
63.44113640390698
 20
111.720630316671
 30
0.0
 70
    32
  0
VERTEX
  5
1AA
  8
LAYER1
 62
   178
 10
63.33846538044232
 20
111.5547619364328
 30
0.0
 70
    32
  0
VERTEX
  5
1AB
  8
LAYER1
 62
   178
 10
63.06423929687499
 20
111.046108234375
 30
0.0
 70
    32
  0
VERTEX
  5
1AC
  8
LAYER1
 62
   178
 10
62.69165845544298
 20
110.217081361679
 30
0.0
 70
    32
  0
VERTEX
  5
1AD
  8
LAYER1
 62
   178
 10
62.322283164219
 20
109.264050563607
 30
0.0
 70
    32
  0
VERTEX
  5
1AE
  8
LAYER1
 62
   178
 10
61.95500270781099
 20
108.217516705183
 30
0.0
 70
    32
  0
VERTEX
  5
1AF
  8
LAYER1
 62
   178
 10
61.58870637082699
 20
107.107980651431
 30
0.0
 70
    32
  0
VERTEX
  5
1B0
  8
LAYER1
 62
   178
 10
61.405580148559
 20
106.539118321627
 30
0.0
 70
    32
  0
VERTEX
  5
1B1
  8
LAYER1
 62
   178
 10
61.176416351144
 20
105.822422430632
 30
0.0
 70
    32
  0
VERTEX
  5
1B2
  8
LAYER1
 62
   178
 10
60.92454638000089
 20
105.0377658574359
 30
0.0
 70
    32
  0
VERTEX
  5
1B3
  8
LAYER1
 62
   178
 10
60.57739786002099
 20
103.980912402313
 30
0.0
 70
    32
  0
VERTEX
  5
1B4
  8
LAYER1
 62
   178
 10
60.27503649730362
 20
103.1028517369171
 30
0.0
 70
    32
  0
VERTEX
  5
1B5
  8
LAYER1
 62
   178
 10
60.1228821407207
 20
102.6816524743692
 30
0.0
 70
    32
  0
VERTEX
  5
1B6
  8
LAYER1
 62
   178
 10
60.04652896288127
 20
102.4764052960026
 30
0.0
 70
    32
  0
VERTEX
  5
1B7
  8
LAYER1
 62
   178
 10
59.828109685125
 20
101.914497401625
 30
0.0
 70
    32
  0
VERTEX
  5
1B8
  8
LAYER1
 62
   178
 10
59.58994299999999
 20
101.34946
 30
0.0
 70
    32
  0
SEQEND
  5
1B9
  8
LAYER1
 62
   178
  0
POLYLINE
  5
1BA
  8
LAYER1
 62
   178
 10
0.0
 20
0.0
 30
0.0
 66
     1
 70
     8
  0
VERTEX
  5
1BB
  8
LAYER1
 62
   178
 10
59.58994299999999
 20
101.34946
 30
0.0
 70
    32
  0
VERTEX
  5
1BC
  8
LAYER1
 62
   178
 10
59.51952660833383
 20
101.1692263023029
 30
0.0
 70
    32
  0
VERTEX
  5
1BD
  8
LAYER1
 62
   178
 10
59.51172636778711
 20
101.1491909099922
 30
0.0
 70
    32
  0
VERTEX
  5
1BE
  8
LAYER1
 62
   178
 10
59.49614000743112
 20
101.1091145313115
 30
0.0
 70
    32
  0
VERTEX
  5
1BF
  8
LAYER1
 62
   178
 10
59.465023393896
 20
101.0289395411681
 30
0.0
 70
    32
  0
VERTEX
  5
1C0
  8
LAYER1
 62
   178
 10
59.40301158934899
 20
100.868501777392
 30
0.0
 70
    32
  0
VERTEX
  5
1C1
  8
LAYER1
 62
   178
 10
59.27984962087498
 20
100.547284297
 30
0.0
 70
    32
  0
VERTEX
  5
1C2
  8
LAYER1
 62
   178
 10
59.03677985062299
 20
99.90355497378403
 30
0.0
 70
    32
  0
VERTEX
  5
1C3
  8
LAYER1
 62
   178
 10
58.56211781063098
 20
98.61150646904801
 30
0.0
 70
    32
  0
VERTEX
  5
1C4
  8
LAYER1
 62
   178
 10
57.64639040251897
 20
96.01375075775199
 30
0.0
 70
    32
  0
VERTEX
  5
1C5
  8
LAYER1
 62
   178
 10
57.62983223444283
 20
95.96584678419455
 30
0.0
 70
    32
  0
VERTEX
  5
1C6
  8
LAYER1
 62
   178
 10
56.75200459466299
 20
93.406737218104
 30
0.0
 70
    32
  0
VERTEX
  5
1C7
  8
LAYER1
 62
   178
 10
56.30401955499099
 20
92.103116427928
 30
0.0
 70
    32
  0
VERTEX
  5
1C8
  8
LAYER1
 62
   178
 10
55.75466477296842
 20
90.52819416024667
 30
0.0
 70
    32
  0
VERTEX
  5
1C9
  8
LAYER1
 62
   178
 10
54.97474370400001
 20
88.36943411199996
 30
0.0
 70
    32
  0
VERTEX
  5
1CA
  8
LAYER1
 62
   178
 10
54.04476527662501
 20
85.957261168
 30
0.0
 70
    32
  0
VERTEX
  5
1CB
  8
LAYER1
 62
   178
 10
53.71878500000002
 20
85.15908999999999
 30
0.0
 70
    32
  0
SEQEND
  5
1CC
  8
LAYER1
 62
   178
  0
POLYLINE
  5
1CD
  8
LAYER1
 62
   178
 10
0.0
 20
0.0
 30
0.0
 66
     1
 70
     8
  0
VERTEX
  5
1CE
  8
LAYER1
 62
   178
 10
53.71878500000002
 20
85.15908999999999
 30
0.0
 70
    32
  0
VERTEX
  5
1CF
  8
LAYER1
 62
   178
 10
53.68224475841718
 20
85.03909445038973
 30
0.0
 70
    32
  0
VERTEX
  5
1D0
  8
LAYER1
 62
   178
 10
53.67818606730666
 20
85.02575861769532
 30
0.0
 70
    32
  0
VERTEX
  5
1D1
  8
LAYER1
 62
   178
 10
53.67006937972589
 20
84.99908521650248
 30
0.0
 70
    32
  0
VERTEX
  5
1D2
  8
LAYER1
 62
   178
 10
53.65383853392801
 20
84.94573161207998
 30
0.0
 70
    32
  0
VERTEX
  5
1D3
  8
LAYER1
 62
   178
 10
53.62138496620702
 20
84.83899832451999
 30
0.0
 70
    32
  0
VERTEX
  5
1D4
  8
LAYER1
 62
   178
 10
53.55649437762501
 20
84.62543646999998
 30
0.0
 70
    32
  0
VERTEX
  5
1D5
  8
LAYER1
 62
   178
 10
53.42665179878902
 20
84.19800392704
 30
0.0
 70
    32
  0
VERTEX
  5
1D6
  8
LAYER1
 62
   178
 10
53.16570032153302
 20
83.34248177487997
 30
0.0
 70
    32
  0
VERTEX
  5
1D7
  8
LAYER1
 62
   178
 10
52.630566385517
 20
81.63343536111998
 30
0.0
 70
    32
  0
VERTEX
  5
1D8
  8
LAYER1
 62
   178
 10
52.62258638094485
 20
81.6086462727199
 30
0.0
 70
    32
  0
VERTEX
  5
1D9
  8
LAYER1
 62
   178
 10
52.06223742050901
 20
79.93586452624
 30
0.0
 70
    32
  0
VERTEX
  5
1DA
  8
LAYER1
 62
   178
 10
51.75979215701301
 20
79.09468684768
 30
0.0
 70
    32
  0
VERTEX
  5
1DB
  8
LAYER1
 62
   178
 10
51.36685293168613
 20
78.07028783148036
 30
0.0
 70
    32
  0
VERTEX
  5
1DC
  8
LAYER1
 62
   178
 10
50.79692535200001
 20
76.71897111999999
 30
0.0
 70
    32
  0
VERTEX
  5
1DD
  8
LAYER1
 62
   178
 10
50.074438749875
 20
75.21498485499998
 30
0.0
 70
    32
  0
VERTEX
  5
1DE
  8
LAYER1
 62
   178
 10
49.81376000000001
 20
74.72346999999998
 30
0.0
 70
    32
  0
SEQEND
  5
1DF
  8
LAYER1
 62
   178
  0
POLYLINE
  5
1E0
  8
LAYER1
 62
   178
 10
0.0
 20
0.0
 30
0.0
 66
     1
 70
     8
  0
VERTEX
  5
1E1
  8
LAYER1
 62
   178
 10
49.81376000000001
 20
74.72346999999998
 30
0.0
 70
    32
  0
VERTEX
  5
1E2
  8
LAYER1
 62
   178
 10
50.15138023177779
 20
74.68896707051388
 30
0.0
 70
    32
  0
VERTEX
  5
1E3
  8
LAYER1
 62
   178
 10
50.513588486924
 20
74.6394545609391
 30
0.0
 70
    32
  0
VERTEX
  5
1E4
  8
LAYER1
 62
   178
 10
50.610737311616
 20
74.62389009702397
 30
0.0
 70
    32
  0
VERTEX
  5
1E5
  8
LAYER1
 62
   178
 10
50.802967598
 20
74.59015478387497
 30
0.0
 70
    32
  0
VERTEX
  5
1E6
  8
LAYER1
 62
   178
 10
51.11732467377778
 20
74.52632919288885
 30
0.0
 70
    32
  0
VERTEX
  5
1E7
  8
LAYER1
 62
   178
 10
52.01698911977778
 20
74.28007722626387
 30
0.0
 70
    32
  0
VERTEX
  5
1E8
  8
LAYER1
 62
   178
 10
52.44361140927778
 20
74.12763684809202
 30
0.0
 70
    32
  0
VERTEX
  5
1E9
  8
LAYER1
 62
   178
 10
53.383438832
 20
73.701586288
 30
0.0
 70
    32
  0
VERTEX
  5
1EA
  8
LAYER1
 62
   178
 10
55.22456638782992
 20
72.45155881074952
 30
0.0
 70
    32
  0
VERTEX
  5
1EB
  8
LAYER1
 62
   178
 10
56.88197564207598
 20
70.78587430507336
 30
0.0
 70
    32
  0
VERTEX
  5
1EC
  8
LAYER1
 62
   178
 10
57.60556969668799
 20
69.897843432307
 30
0.0
 70
    32
  0
VERTEX
  5
1ED
  8
LAYER1
 62
   178
 10
58.97560671142399
 20
68.01903859573599
 30
0.0
 70
    32
  0
VERTEX
  5
1EE
  8
LAYER1
 62
   178
 10
59.14505395772331
 20
67.77619708187258
 30
0.0
 70
    32
  0
VERTEX
  5
1EF
  8
LAYER1
 62
   178
 10
59.64518060149999
 20
67.05696115717187
 30
0.0
 70
    32
  0
VERTEX
  5
1F0
  8
LAYER1
 62
   178
 10
59.98116628314198
 20
66.57653104771651
 30
0.0
 70
    32
  0
VERTEX
  5
1F1
  8
LAYER1
 62
   178
 10
60.31987870001599
 20
66.098898055249
 30
0.0
 70
    32
  0
VERTEX
  5
1F2
  8
LAYER1
 62
   178
 10
60.66276353524398
 20
65.62585571259685
 30
0.0
 70
    32
  0
VERTEX
  5
1F3
  8
LAYER1
 62
   178
 10
61.01126647194798
 20
65.15919755258761
 30
0.0
 70
    32
  0
VERTEX
  5
1F4
  8
LAYER1
 62
   178
 10
61.36683319324998
 20
64.70071710804882
 30
0.0
 70
    32
  0
VERTEX
  5
1F5
  8
LAYER1
 62
   178
 10
61.54771724910086
 20
64.47510400808943
 30
0.0
 70
    32
  0
VERTEX
  5
1F6
  8
LAYER1
 62
   178
 10
62.07578274199998
 20
63.84860071862499
 30
0.0
 70
    32
  0
VERTEX
  5
1F7
  8
LAYER1
 62
   178
 10
62.67250999999998
 20
63.20202999999999
 30
0.0
 70
    32
  0
SEQEND
  5
1F8
  8
LAYER1
 62
   178
  0
POLYLINE
  5
1F9
  8
LAYER1
 62
   178
 10
0.0
 20
0.0
 30
0.0
 66
     1
 70
     8
  0
VERTEX
  5
1FA
  8
LAYER1
 62
   178
 10
62.67250999999998
 20
63.20202999999999
 30
0.0
 70
    32
  0
VERTEX
  5
1FB
  8
LAYER1
 62
   178
 10
62.82645833758809
 20
63.07478951568815
 30
0.0
 70
    32
  0
VERTEX
  5
1FC
  8
LAYER1
 62
   178
 10
62.84331984906054
 20
63.06053577698242
 30
0.0
 70
    32
  0
VERTEX
  5
1FD
  8
LAYER1
 62
   178
 10
62.8768970199616
 20
63.03195932745061
 30
0.0
 70
    32
  0
VERTEX
  5
1FE
  8
LAYER1
 62
   178
 10
62.94346903527198
 20
62.97453187491998
 30
0.0
 70
    32
  0
VERTEX
  5
1FF
  8
LAYER1
 62
   178
 10
63.07429241339297
 20
62.85858943610499
 30
0.0
 70
    32
  0
VERTEX
  5
200
  8
LAYER1
 62
   178
 10
63.32672578737498
 20
62.62243986437498
 30
0.0
 70
    32
  0
VERTEX
  5
201
  8
LAYER1
 62
   178
 10
63.79529282821099
 20
62.133765471835
 30
0.0
 70
    32
  0
VERTEX
  5
202
  8
LAYER1
 62
   178
 10
64.59165865666698
 20
61.09638390899499
 30
0.0
 70
    32
  0
VERTEX
  5
203
  8
LAYER1
 62
   178
 10
65.62538682467647
 20
58.92491922640977
 30
0.0
 70
    32
  0
VERTEX
  5
204
  8
LAYER1
 62
   178
 10
65.65676190308297
 20
58.82523542075498
 30
0.0
 70
    32
  0
VERTEX
  5
205
  8
LAYER1
 62
   178
 10
65.945753379539
 20
57.616466065915
 30
0.0
 70
    32
  0
VERTEX
  5
206
  8
LAYER1
 62
   178
 10
66.08587413049099
 20
56.37556501763499
 30
0.0
 70
    32
  0
VERTEX
  5
207
  8
LAYER1
 62
   178
 10
66.087251185187
 20
55.11503106119499
 30
0.0
 70
    32
  0
VERTEX
  5
208
  8
LAYER1
 62
   178
 10
66.03907552307899
 20
54.48130761281499
 30
0.0
 70
    32
  0
VERTEX
  5
209
  8
LAYER1
 62
   178
 10
65.935567635464
 20
53.68902535203999
 30
0.0
 70
    32
  0
VERTEX
  5
20A
  8
LAYER1
 62
   178
 10
65.87911649529845
 20
53.36134104540634
 30
0.0
 70
    32
  0
VERTEX
  5
20B
  8
LAYER1
 62
   178
 10
65.73292016454687
 20
52.66355987242186
 30
0.0
 70
    32
  0
VERTEX
  5
20C
  8
LAYER1
 62
   178
 10
65.60427415047175
 20
52.15463699247038
 30
0.0
 70
    32
  0
VERTEX
  5
20D
  8
LAYER1
 62
   178
 10
65.45831860150099
 20
51.64937136248498
 30
0.0
 70
    32
  0
VERTEX
  5
20E
  8
LAYER1
 62
   178
 10
65.11719485141862
 20
50.65316388259561
 30
0.0
 70
    32
  0
VERTEX
  5
20F
  8
LAYER1
 62
   178
 10
64.92338462658006
 20
50.16389804778319
 30
0.0
 70
    32
  0
VERTEX
  5
210
  8
LAYER1
 62
   178
 10
64.82096448402119
 20
49.92184123496132
 30
0.0
 70
    32
  0
VERTEX
  5
211
  8
LAYER1
 62
   178
 10
64.51024239012499
 20
49.24342757312499
 30
0.0
 70
    32
  0
VERTEX
  5
212
  8
LAYER1
 62
   178
 10
64.14411499999999
 20
48.52971999999999
 30
0.0
 70
    32
  0
SEQEND
  5
213
  8
LAYER1
 62
   178
  0
POLYLINE
  5
214
  8
LAYER1
 62
   178
 10
0.0
 20
0.0
 30
0.0
 66
     1
 70
     8
  0
VERTEX
  5
215
  8
LAYER1
 62
   178
 10
64.14411499999999
 20
48.52971999999999
 30
0.0
 70
    32
  0
VERTEX
  5
216
  8
LAYER1
 62
   178
 10
64.02858117368281
 20
48.4327476349181
 30
0.0
 70
    32
  0
VERTEX
  5
217
  8
LAYER1
 62
   178
 10
64.01580450932423
 20
48.42193753695898
 30
0.0
 70
    32
  0
VERTEX
  5
218
  8
LAYER1
 62
   178
 10
63.99028817229723
 20
48.40029620106512
 30
0.0
 70
    32
  0
VERTEX
  5
219
  8
LAYER1
 62
   178
 10
63.93940518051198
 20
48.35692918978398
 30
0.0
 70
    32
  0
VERTEX
  5
21A
  8
LAYER1
 62
   178
 10
63.83825165007798
 20
48.26985957252099
 30
0.0
 70
    32
  0
VERTEX
  5
21B
  8
LAYER1
 62
   178
 10
63.63850419424998
 20
48.09439206537498
 30
0.0
 70
    32
  0
VERTEX
  5
21C
  8
LAYER1
 62
   178
 10
63.25012604270599
 20
47.73825681006701
 30
0.0
 70
    32
  0
VERTEX
  5
21D
  8
LAYER1
 62
   178
 10
62.52486349968198
 20
47.00608813109899
 30
0.0
 70
    32
  0
VERTEX
  5
21E
  8
LAYER1
 62
   178
 10
61.33652721081798
 20
45.469380465451
 30
0.0
 70
    32
  0
VERTEX
  5
21F
  8
LAYER1
 62
   178
 10
61.25680933357517
 20
45.338149145941
 30
0.0
 70
    32
  0
VERTEX
  5
220
  8
LAYER1
 62
   178
 10
60.60484980758599
 20
43.84993594322701
 30
0.0
 70
    32
  0
VERTEX
  5
221
  8
LAYER1
 62
   178
 10
60.50834066397799
 20
43.43408174107101
 30
0.0
 70
    32
  0
VERTEX
  5
222
  8
LAYER1
 62
   178
 10
60.45207069602548
 20
42.22497871675861
 30
0.0
 70
    32
  0
VERTEX
  5
223
  8
LAYER1
 62
   178
 10
60.471523509344
 20
42.05708609960801
 30
0.0
 70
    32
  0
VERTEX
  5
224
  8
LAYER1
 62
   178
 10
60.911119069046
 20
40.64794840019701
 30
0.0
 70
    32
  0
VERTEX
  5
225
  8
LAYER1
 62
   178
 10
61.10353381085385
 20
40.29167943338981
 30
0.0
 70
    32
  0
VERTEX
  5
226
  8
LAYER1
 62
   178
 10
61.33110859081925
 20
39.93409335769414
 30
0.0
 70
    32
  0
VERTEX
  5
227
  8
LAYER1
 62
   178
 10
61.59492025764452
 20
39.57532852705666
 30
0.0
 70
    32
  0
VERTEX
  5
228
  8
LAYER1
 62
   178
 10
61.7407514388491
 20
39.39554731424307
 30
0.0
 70
    32
  0
VERTEX
  5
229
  8
LAYER1
 62
   178
 10
62.20805754575
 20
38.88259160712501
 30
0.0
 70
    32
  0
VERTEX
  5
22A
  8
LAYER1
 62
   178
 10
62.80307000000001
 20
38.32629300000001
 30
0.0
 70
    32
  0
SEQEND
  5
22B
  8
LAYER1
 62
   178
  0
POLYLINE
  5
22C
  8
LAYER1
 62
   178
 10
0.0
 20
0.0
 30
0.0
 66
     1
 70
     8
  0
VERTEX
  5
22D
  8
LAYER1
 62
   178
 10
62.80307000000001
 20
38.32629300000001
 30
0.0
 70
    32
  0
VERTEX
  5
22E
  8
LAYER1
 62
   178
 10
62.90124533336899
 20
38.1298575776636
 30
0.0
 70
    32
  0
VERTEX
  5
22F
  8
LAYER1
 62
   178
 10
62.90700020908149
 20
38.1182741939451
 30
0.0
 70
    32
  0
VERTEX
  5
230
  8
LAYER1
 62
   178
 10
62.918503097334
 20
38.0950980452012
 30
0.0
 70
    32
  0
VERTEX
  5
231
  8
LAYER1
 62
   178
 10
62.94148121319313
 20
38.04870832279764
 30
0.0
 70
    32
  0
VERTEX
  5
232
  8
LAYER1
 62
   178
 10
62.98732513868001
 20
37.95577998082401
 30
0.0
 70
    32
  0
VERTEX
  5
233
  8
LAYER1
 62
   178
 10
63.078550455545
 20
37.76933412818101
 30
0.0
 70
    32
  0
VERTEX
  5
234
  8
LAYER1
 62
   178
 10
63.259044479375
 20
37.394137107875
 30
0.0
 70
    32
  0
VERTEX
  5
235
  8
LAYER1
 62
   178
 10
63.61135429971502
 20
36.63493268528702
 30
0.0
 70
    32
  0
VERTEX
  5
236
  8
LAYER1
 62
   178
 10
64.27444672935499
 20
35.08456933703901
 30
0.0
 70
    32
  0
VERTEX
  5
237
  8
LAYER1
 62
   178
 10
65.34105433973878
 20
32.01776826827497
 30
0.0
 70
    32
  0
VERTEX
  5
238
  8
LAYER1
 62
   178
 10
65.38000833039499
 20
31.88232082691101
 30
0.0
 70
    32
  0
VERTEX
  5
239
  8
LAYER1
 62
   178
 10
65.791326408035
 20
30.24546206426302
 30
0.0
 70
    32
  0
VERTEX
  5
23A
  8
LAYER1
 62
   178
 10
65.954805464375
 20
29.42138608087501
 30
0.0
 70
    32
  0
VERTEX
  5
23B
  8
LAYER1
 62
   178
 10
66.08756860791499
 20
28.59479789604701
 30
0.0
 70
    32
  0
VERTEX
  5
23C
  8
LAYER1
 62
   178
 10
66.25315938315501
 20
26.93784152187902
 30
0.0
 70
    32
  0
VERTEX
  5
23D
  8
LAYER1
 62
   178
 10
66.28209312813499
 20
26.10935163244302
 30
0.0
 70
    32
  0
VERTEX
  5
23E
  8
LAYER1
 62
   178
 10
66.282242802245
 20
25.69551464024101
 30
0.0
 70
    32
  0
VERTEX
  5
23F
  8
LAYER1
 62
   178
 10
66.26388634316
 20
25.07559926248801
 30
0.0
 70
    32
  0
VERTEX
  5
240
  8
LAYER1
 62
   178
 10
66.24748278697672
 20
24.78664411349418
 30
0.0
 70
    32
  0
VERTEX
  5
241
  8
LAYER1
 62
   178
 10
66.14402190335937
 20
23.73764448729689
 30
0.0
 70
    32
  0
VERTEX
  5
242
  8
LAYER1
 62
   178
 10
66.04094135811008
 20
23.07232116492315
 30
0.0
 70
    32
  0
VERTEX
  5
243
  8
LAYER1
 62
   178
 10
65.907702868565
 20
22.41010553721701
 30
0.0
 70
    32
  0
VERTEX
  5
244
  8
LAYER1
 62
   178
 10
65.74326213917678
 20
21.75150134256825
 30
0.0
 70
    32
  0
VERTEX
  5
245
  8
LAYER1
 62
   178
 10
65.54657487439812
 20
21.09701231936664
 30
0.0
 70
    32
  0
VERTEX
  5
246
  8
LAYER1
 62
   178
 10
65.31659677868164
 20
20.44714220600197
 30
0.0
 70
    32
  0
VERTEX
  5
247
  8
LAYER1
 62
   178
 10
65.18879732686317
 20
20.12409665875528
 30
0.0
 70
    32
  0
VERTEX
  5
248
  8
LAYER1
 62
   178
 10
64.77692403312498
 20
19.21222560462502
 30
0.0
 70
    32
  0
VERTEX
  5
249
  8
LAYER1
 62
   178
 10
64.67829649856
 20
19.01663639020802
 30
0.0
 70
    32
  0
VERTEX
  5
24A
  8
LAYER1
 62
   178
 10
64.24877
 20
18.24034000000001
 30
0.0
 70
    32
  0
SEQEND
  5
24B
  8
LAYER1
 62
   178
  0
POLYLINE
  5
24C
  8
LAYER1
 62
   178
 10
0.0
 20
0.0
 30
0.0
 66
     1
 70
     8
  0
VERTEX
  5
24D
  8
LAYER1
 62
   178
 10
64.24877
 20
18.24034000000001
 30
0.0
 70
    32
  0
VERTEX
  5
24E
  8
LAYER1
 62
   178
 10
64.15657996924746
 20
18.06111110457471
 30
0.0
 70
    32
  0
VERTEX
  5
24F
  8
LAYER1
 62
   178
 10
64.1462463709668
 20
18.04120049982619
 30
0.0
 70
    32
  0
VERTEX
  5
250
  8
LAYER1
 62
   178
 10
64.12552727258561
 20
18.00138115409464
 30
0.0
 70
    32
  0
VERTEX
  5
251
  8
LAYER1
 62
   178
 10
64.08388673044
 20
17.92174906272801
 30
0.0
 70
    32
  0
VERTEX
  5
252
  8
LAYER1
 62
   178
 10
63.99983835978499
 20
17.76250444065701
 30
0.0
 70
    32
  0
VERTEX
  5
253
  8
LAYER1
 62
   178
 10
63.82900923437498
 20
17.44403872137501
 30
0.0
 70
    32
  0
VERTEX
  5
254
  8
LAYER1
 62
   178
 10
63.479115537995
 20
16.80676363993902
 30
0.0
 70
    32
  0
VERTEX
  5
255
  8
LAYER1
 62
   178
 10
62.76793908971499
 20
15.52733696708301
 30
0.0
 70
    32
  0
VERTEX
  5
256
  8
LAYER1
 62
   178
 10
61.48537466457551
 20
12.95170783411921
 30
0.0
 70
    32
  0
VERTEX
  5
257
  8
LAYER1
 62
   178
 10
61.47245178483498
 20
12.92096207346701
 30
0.0
 70
    32
  0
VERTEX
  5
258
  8
LAYER1
 62
   178
 10
60.674541104595
 20
10.19786224365901
 30
0.0
 70
    32
  0
VERTEX
  5
259
  8
LAYER1
 62
   178
 10
60.62835243473941
 20
8.138521655013497
 30
0.0
 70
    32
  0
VERTEX
  5
25A
  8
LAYER1
 62
   178
 10
60.81277788308001
 20
7.105047211336005
 30
0.0
 70
    32
  0
VERTEX
  5
25B
  8
LAYER1
 62
   178
 10
61.30146151703704
 20
5.688674120296301
 30
0.0
 70
    32
  0
VERTEX
  5
25C
  8
LAYER1
 62
   178
 10
61.89164505304501
 20
4.554503977149002
 30
0.0
 70
    32
  0
VERTEX
  5
25D
  8
LAYER1
 62
   178
 10
62.32130339529837
 20
3.887179740806237
 30
0.0
 70
    32
  0
VERTEX
  5
25E
  8
LAYER1
 62
   178
 10
62.82154429225065
 20
3.206906785287627
 30
0.0
 70
    32
  0
VERTEX
  5
25F
  8
LAYER1
 62
   178
 10
63.39567071129886
 20
2.513148436564455
 30
0.0
 70
    32
  0
VERTEX
  5
260
  8
LAYER1
 62
   178
 10
63.71147316892051
 20
2.161044529117184
 30
0.0
 70
    32
  0
VERTEX
  5
261
  8
LAYER1
 62
   178
 10
64.71956633312502
 20
1.139122506125002
 30
0.0
 70
    32
  0
VERTEX
  5
262
  8
LAYER1
 62
   178
 10
64.95944990528001
 20
0.9142110261760013
 30
0.0
 70
    32
  0
VERTEX
  5
263
  8
LAYER1
 62
   178
 10
66.00000000000003
 20
0.0
 30
0.0
 70
    32
  0
SEQEND
  5
264
  8
LAYER1
 62
   178
  0
POLYLINE
  5
265
  8
LAYER1
 62
   178
 10
0.0
 20
0.0
 30
0.0
 66
     1
 70
     8
  0
VERTEX
  5
266
  8
LAYER1
 62
   178
 10
6.000000000000003
 20
0.0
 30
0.0
 70
    32
  0
VERTEX
  5
267
  8
LAYER1
 62
   178
 10
6.264137014626823
 20
0.0637410159239768
 30
0.0
 70
    32
  0
VERTEX
  5
268
  8
LAYER1
 62
   178
 10
6.293048438414067
 20
0.0709281479765628
 30
0.0
 70
    32
  0
VERTEX
  5
269
  8
LAYER1
 62
   178
 10
6.350610284164503
 20
0.0853647159735003
 30
0.0
 70
    32
  0
VERTEX
  5
26A
  8
LAYER1
 62
   178
 10
6.464692950864003
 20
0.1144857275520004
 30
0.0
 70
    32
  0
VERTEX
  5
26B
  8
LAYER1
 62
   178
 10
6.688718045016002
 20
0.1737085331880006
 30
0.0
 70
    32
  0
VERTEX
  5
26C
  8
LAYER1
 62
   178
 10
7.120398156000002
 20
0.2959915155000009
 30
0.0
 70
    32
  0
VERTEX
  5
26D
  8
LAYER1
 62
   178
 10
7.919805106032004
 20
0.5552208932760017
 30
0.0
 70
    32
  0
VERTEX
  5
26E
  8
LAYER1
 62
   178
 10
9.275022217104002
 20
1.126844733372002
 30
0.0
 70
    32
  0
VERTEX
  5
26F
  8
LAYER1
 62
   178
 10
10.51286619022223
 20
1.897023459555559
 30
0.0
 70
    32
  0
VERTEX
  5
270
  8
LAYER1
 62
   178
 10
11.108799673296
 20
2.438844207228004
 30
0.0
 70
    32
  0
VERTEX
  5
271
  8
LAYER1
 62
   178
 10
11.65081316620999
 20
3.167367572139553
 30
0.0
 70
    32
  0
VERTEX
  5
272
  8
LAYER1
 62
   178
 10
11.959854565392
 20
3.892210749756004
 30
0.0
 70
    32
  0
VERTEX
  5
273
  8
LAYER1
 62
   178
 10
12.086668471344
 20
4.640543425692004
 30
0.0
 70
    32
  0
VERTEX
  5
274
  8
LAYER1
 62
   178
 10
12.037189689168
 20
5.479050671424004
 30
0.0
 70
    32
  0
VERTEX
  5
275
  8
LAYER1
 62
   178
 10
11.95548982767023
 20
5.86304993199388
 30
0.0
 70
    32
  0
VERTEX
  5
276
  8
LAYER1
 62
   178
 10
11.684536381512
 20
6.648895280916006
 30
0.0
 70
    32
  0
VERTEX
  5
277
  8
LAYER1
 62
   178
 10
11.41642882244851
 20
7.200747704785505
 30
0.0
 70
    32
  0
VERTEX
  5
278
  8
LAYER1
 62
   178
 10
11.26598235771094
 20
7.465462505085942
 30
0.0
 70
    32
  0
VERTEX
  5
279
  8
LAYER1
 62
   178
 10
10.954581189
 20
7.949642284500006
 30
0.0
 70
    32
  0
VERTEX
  5
27A
  8
LAYER1
 62
   178
 10
10.69195500000001
 20
8.310078000000006
 30
0.0
 70
    32
  0
SEQEND
  5
27B
  8
LAYER1
 62
   178
  0
POLYLINE
  5
27C
  8
LAYER1
 62
   178
 10
0.0
 20
0.0
 30
0.0
 66
     1
 70
     8
  0
VERTEX
  5
27D
  8
LAYER1
 62
   178
 10
10.69195500000001
 20
8.310078000000006
 30
0.0
 70
    32
  0
VERTEX
  5
27E
  8
LAYER1
 62
   178
 10
10.52385035138354
 20
8.210340338342911
 30
0.0
 70
    32
  0
VERTEX
  5
27F
  8
LAYER1
 62
   178
 10
10.50500583396876
 20
8.199708370062506
 30
0.0
 70
    32
  0
VERTEX
  5
280
  8
LAYER1
 62
   178
 10
10.46721949804801
 20
8.178712994673006
 30
0.0
 70
    32
  0
VERTEX
  5
281
  8
LAYER1
 62
   178
 10
10.39126329833601
 20
8.137793139536004
 30
0.0
 70
    32
  0
VERTEX
  5
282
  8
LAYER1
 62
   178
 10
10.23786219938401
 20
8.060210219484006
 30
0.0
 70
    32
  0
VERTEX
  5
283
  8
LAYER1
 62
   178
 10
9.925468499000004
 20
7.921857201500004
 30
0.0
 70
    32
  0
VERTEX
  5
284
  8
LAYER1
 62
   178
 10
9.281221453368008
 20
7.710687743868006
 30
0.0
 70
    32
  0
VERTEX
  5
285
  8
LAYER1
 62
   178
 10
7.938139703096004
 20
7.536777460796005
 30
0.0
 70
    32
  0
VERTEX
  5
286
  8
LAYER1
 62
   178
 10
6.331977860995487
 20
7.718931752584002
 30
0.0
 70
    32
  0
VERTEX
  5
287
  8
LAYER1
 62
   178
 10
5.219632930104003
 20
8.072929974204003
 30
0.0
 70
    32
  0
VERTEX
  5
288
  8
LAYER1
 62
   178
 10
3.150710910468003
 20
9.289656114093
 30
0.0
 70
    32
  0
VERTEX
  5
289
  8
LAYER1
 62
   178
 10
2.308913238584003
 20
10.077224798684
 30
0.0
 70
    32
  0
VERTEX
  5
28A
  8
LAYER1
 62
   178
 10
1.606181604616004
 20
10.973067763441
 30
0.0
 70
    32
  0
VERTEX
  5
28B
  8
LAYER1
 62
   178
 10
1.071021740832003
 20
11.960367070032
 30
0.0
 70
    32
  0
VERTEX
  5
28C
  8
LAYER1
 62
   178
 10
0.7840353685115515
 20
12.79953358410953
 30
0.0
 70
    32
  0
VERTEX
  5
28D
  8
LAYER1
 62
   178
 10
0.6174402528880023
 20
14.142062955388
 30
0.0
 70
    32
  0
VERTEX
  5
28E
  8
LAYER1
 62
   178
 10
0.6533174439357521
 20
14.7183691117295
 30
0.0
 70
    32
  0
VERTEX
  5
28F
  8
LAYER1
 62
   178
 10
0.7560300932640017
 20
15.302823657489
 30
0.0
 70
    32
  0
VERTEX
  5
290
  8
LAYER1
 62
   178
 10
0.9291414174062514
 20
15.893324350375
 30
0.0
 70
    32
  0
VERTEX
  5
291
  8
LAYER1
 62
   178
 10
1.043210087699345
 20
16.19018505127434
 30
0.0
 70
    32
  0
VERTEX
  5
292
  8
LAYER1
 62
   178
 10
1.10731753830556
 20
16.33890302396278
 30
0.0
 70
    32
  0
VERTEX
  5
293
  8
LAYER1
 62
   178
 10
1.473010391000001
 20
17.0381694935
 30
0.0
 70
    32
  0
VERTEX
  5
294
  8
LAYER1
 62
   178
 10
1.587106014912001
 20
17.22169927411199
 30
0.0
 70
    32
  0
VERTEX
  5
295
  8
LAYER1
 62
   178
 10
2.122075000000001
 20
17.9545
 30
0.0
 70
    32
  0
SEQEND
  5
296
  8
LAYER1
 62
   178
  0
POLYLINE
  5
297
  8
LAYER1
 62
   178
 10
0.0
 20
0.0
 30
0.0
 66
     1
 70
     8
  0
VERTEX
  5
298
  8
LAYER1
 62
   178
 10
2.122075000000001
 20
17.9545
 30
0.0
 70
    32
  0
VERTEX
  5
299
  8
LAYER1
 62
   178
 10
2.252081839569275
 20
18.0364503945644
 30
0.0
 70
    32
  0
VERTEX
  5
29A
  8
LAYER1
 62
   178
 10
2.266605382679689
 20
18.04546161682617
 30
0.0
 70
    32
  0
VERTEX
  5
29B
  8
LAYER1
 62
   178
 10
2.295698415485501
 20
18.06342850201562
 30
0.0
 70
    32
  0
VERTEX
  5
29C
  8
LAYER1
 62
   178
 10
2.354065801936001
 20
18.0991425246
 30
0.0
 70
    32
  0
VERTEX
  5
29D
  8
LAYER1
 62
   178
 10
2.471506134184001
 20
18.169711494925
 30
0.0
 70
    32
  0
VERTEX
  5
29E
  8
LAYER1
 62
   178
 10
2.709051244000001
 20
18.30757246687499
 30
0.0
 70
    32
  0
VERTEX
  5
29F
  8
LAYER1
 62
   178
 10
3.193536908368002
 20
18.571461181375
 30
0.0
 70
    32
  0
VERTEX
  5
2A0
  8
LAYER1
 62
   178
 10
4.189991323696002
 20
19.062102855975
 30
0.0
 70
    32
  0
VERTEX
  5
2A1
  8
LAYER1
 62
   178
 10
6.161979561297172
 20
19.95346701949006
 30
0.0
 70
    32
  0
VERTEX
  5
2A2
  8
LAYER1
 62
   178
 10
6.212042961904002
 20
19.976420493175
 30
0.0
 70
    32
  0
VERTEX
  5
2A3
  8
LAYER1
 62
   178
 10
7.191474734032003
 20
20.446712058975
 30
0.0
 70
    32
  0
VERTEX
  5
2A4
  8
LAYER1
 62
   178
 10
8.119066841008003
 20
20.956835858375
 30
0.0
 70
    32
  0
VERTEX
  5
2A5
  8
LAYER1
 62
   178
 10
8.971736557456001
 20
21.53009969297501
 30
0.0
 70
    32
  0
VERTEX
  5
2A6
  8
LAYER1
 62
   178
 10
9.362762167552003
 20
21.847692811475
 30
0.0
 70
    32
  0
VERTEX
  5
2A7
  8
LAYER1
 62
   178
 10
9.548185324024004
 20
22.01550431642501
 30
0.0
 70
    32
  0
VERTEX
  5
2A8
  8
LAYER1
 62
   178
 10
9.852466549011828
 20
22.32215248549848
 30
0.0
 70
    32
  0
VERTEX
  5
2A9
  8
LAYER1
 62
   178
 10
10.38340826577778
 20
22.99406589481482
 30
0.0
 70
    32
  0
VERTEX
  5
2AA
  8
LAYER1
 62
   178
 10
10.70369252377778
 20
23.54474226085649
 30
0.0
 70
    32
  0
VERTEX
  5
2AB
  8
LAYER1
 62
   178
 10
11.15164234677778
 20
24.82592831293983
 30
0.0
 70
    32
  0
VERTEX
  5
2AC
  8
LAYER1
 62
   178
 10
11.26803704977778
 20
25.56781876148149
 30
0.0
 70
    32
  0
VERTEX
  5
2AD
  8
LAYER1
 62
   178
 10
11.289506011
 20
25.83152763562502
 30
0.0
 70
    32
  0
VERTEX
  5
2AE
  8
LAYER1
 62
   178
 10
11.30519770577778
 20
26.38482800002316
 30
0.0
 70
    32
  0
VERTEX
  5
2AF
  8
LAYER1
 62
   178
 10
11.299003
 20
26.67484100000001
 30
0.0
 70
    32
  0
SEQEND
  5
2B0
  8
LAYER1
 62
   178
  0
POLYLINE
  5
2B1
  8
LAYER1
 62
   178
 10
0.0
 20
0.0
 30
0.0
 66
     1
 70
     8
  0
VERTEX
  5
2B2
  8
LAYER1
 62
   178
 10
11.299003
 20
26.67484100000001
 30
0.0
 70
    32
  0
VERTEX
  5
2B3
  8
LAYER1
 62
   178
 10
11.33929073114599
 20
26.92848419722958
 30
0.0
 70
    32
  0
VERTEX
  5
2B4
  8
LAYER1
 62
   178
 10
11.34178116657236
 20
26.94333503405895
 30
0.0
 70
    32
  0
VERTEX
  5
2B5
  8
LAYER1
 62
   178
 10
11.34680203821289
 20
26.97301366849221
 30
0.0
 70
    32
  0
VERTEX
  5
2B6
  8
LAYER1
 62
   178
 10
11.35700352026688
 20
27.03227888945451
 30
0.0
 70
    32
  0
VERTEX
  5
2B7
  8
LAYER1
 62
   178
 10
11.37804332444001
 20
27.15044201174402
 30
0.0
 70
    32
  0
VERTEX
  5
2B8
  8
LAYER1
 62
   178
 10
11.42265337283501
 20
27.38530595363601
 30
0.0
 70
    32
  0
VERTEX
  5
2B9
  8
LAYER1
 62
   178
 10
11.521859868125
 20
27.84924043350001
 30
0.0
 70
    32
  0
VERTEX
  5
2BA
  8
LAYER1
 62
   178
 10
11.759135559145
 20
28.75438223217202
 30
0.0
 70
    32
  0
VERTEX
  5
2BB
  8
LAYER1
 62
   178
 10
12.380474594465
 20
30.47732882228402
 30
0.0
 70
    32
  0
VERTEX
  5
2BC
  8
LAYER1
 62
   178
 10
14.10182638322024
 20
33.54673270793754
 30
0.0
 70
    32
  0
VERTEX
  5
2BD
  8
LAYER1
 62
   178
 10
14.140998090385
 20
33.60244706951601
 30
0.0
 70
    32
  0
VERTEX
  5
2BE
  8
LAYER1
 62
   178
 10
19.62465594538034
 20
39.15250565657673
 30
0.0
 70
    32
  0
VERTEX
  5
2BF
  8
LAYER1
 62
   178
 10
24.80386210437501
 20
42.77775127650002
 30
0.0
 70
    32
  0
VERTEX
  5
2C0
  8
LAYER1
 62
   178
 10
25.75060800000001
 20
43.38830500000002
 30
0.0
 70
    32
  0
SEQEND
  5
2C1
  8
LAYER1
 62
   178
  0
POLYLINE
  5
2C2
  8
LAYER1
 62
   178
 10
0.0
 20
0.0
 30
0.0
 66
     1
 70
     8
  0
VERTEX
  5
2C3
  8
LAYER1
 62
   178
 10
25.75060800000001
 20
43.38830500000002
 30
0.0
 70
    32
  0
VERTEX
  5
2C4
  8
LAYER1
 62
   178
 10
26.0249559206198
 20
43.48354317528108
 30
0.0
 70
    32
  0
VERTEX
  5
2C5
  8
LAYER1
 62
   178
 10
26.05471759155666
 20
43.49427033598636
 30
0.0
 70
    32
  0
VERTEX
  5
2C6
  8
LAYER1
 62
   178
 10
26.11381147420988
 20
43.51581124723939
 30
0.0
 70
    32
  0
VERTEX
  5
2C7
  8
LAYER1
 62
   178
 10
26.23028933501601
 20
43.55923827436001
 30
0.0
 70
    32
  0
VERTEX
  5
2C8
  8
LAYER1
 62
   178
 10
26.45646889767901
 20
43.64746390901501
 30
0.0
 70
    32
  0
VERTEX
  5
2C9
  8
LAYER1
 62
   178
 10
26.88223105962501
 20
43.82932759562502
 30
0.0
 70
    32
  0
VERTEX
  5
2CA
  8
LAYER1
 62
   178
 10
27.63142890933301
 20
44.21411340320502
 30
0.0
 70
    32
  0
VERTEX
  5
2CB
  8
LAYER1
 62
   178
 10
28.251927420769
 20
44.62585096166502
 30
0.0
 70
    32
  0
VERTEX
  5
2CC
  8
LAYER1
 62
   178
 10
28.753009746701
 20
45.06318887708501
 30
0.0
 70
    32
  0
VERTEX
  5
2CD
  8
LAYER1
 62
   178
 10
29.434058453125
 20
46.00926020312502
 30
0.0
 70
    32
  0
VERTEX
  5
2CE
  8
LAYER1
 62
   178
 10
29.73139569618452
 20
46.93282455287287
 30
0.0
 70
    32
  0
VERTEX
  5
2CF
  8
LAYER1
 62
   178
 10
29.748840250749
 20
47.041516229965
 30
0.0
 70
    32
  0
VERTEX
  5
2D0
  8
LAYER1
 62
   178
 10
29.77162036171701
 20
48.14914580624502
 30
0.0
 70
    32
  0
VERTEX
  5
2D1
  8
LAYER1
 62
   178
 10
29.696717666625
 20
48.72784719062501
 30
0.0
 70
    32
  0
VERTEX
  5
2D2
  8
LAYER1
 62
   178
 10
29.576664008173
 20
49.32133778060501
 30
0.0
 70
    32
  0
VERTEX
  5
2D3
  8
LAYER1
 62
   178
 10
29.420742539129
 20
49.928266182265
 30
0.0
 70
    32
  0
VERTEX
  5
2D4
  8
LAYER1
 62
   178
 10
29.238236412261
 20
50.54728100168499
 30
0.0
 70
    32
  0
VERTEX
  5
2D5
  8
LAYER1
 62
   178
 10
29.038428780337
 20
51.17703084494499
 30
0.0
 70
    32
  0
VERTEX
  5
2D6
  8
LAYER1
 62
   178
 10
28.934937885219
 20
51.495509089915
 30
0.0
 70
    32
  0
VERTEX
  5
2D7
  8
LAYER1
 62
   178
 10
28.778481301992
 20
51.97725551212
 30
0.0
 70
    32
  0
VERTEX
  5
2D8
  8
LAYER1
 62
   178
 10
28.57070609887365
 20
52.63595050432477
 30
0.0
 70
    32
  0
VERTEX
  5
2D9
  8
LAYER1
 62
   178
 10
28.45163589926562
 20
53.03512659132811
 30
0.0
 70
    32
  0
VERTEX
  5
2DA
  8
LAYER1
 62
   178
 10
28.3042119440528
 20
53.56986923656586
 30
0.0
 70
    32
  0
VERTEX
  5
2DB
  8
LAYER1
 62
   178
 10
28.2366780832577
 20
53.83837521085108
 30
0.0
 70
    32
  0
VERTEX
  5
2DC
  8
LAYER1
 62
   178
 10
28.174092845203
 20
54.107516810155
 30
0.0
 70
    32
  0
VERTEX
  5
2DD
  8
LAYER1
 62
   178
 10
28.06625787191333
 20
54.64734445554226
 30
0.0
 70
    32
  0
VERTEX
  5
2DE
  8
LAYER1
 62
   178
 10
28.02225295397763
 20
54.91784928748728
 30
0.0
 70
    32
  0
VERTEX
  5
2DF
  8
LAYER1
 62
   178
 10
27.98568629338088
 20
55.18862731617436
 30
0.0
 70
    32
  0
VERTEX
  5
2E0
  8
LAYER1
 62
   178
 10
27.93735737880273
 20
55.73064053549803
 30
0.0
 70
    32
  0
VERTEX
  5
2E1
  8
LAYER1
 62
   178
 10
27.92683994212062
 20
56.00169451199631
 30
0.0
 70
    32
  0
VERTEX
  5
2E2
  8
LAYER1
 62
   178
 10
27.92526528271552
 20
56.1371937013618
 30
0.0
 70
    32
  0
VERTEX
  5
2E3
  8
LAYER1
 62
   178
 10
27.92543300571999
 20
56.20493139124953
 30
0.0
 70
    32
  0
VERTEX
  5
2E4
  8
LAYER1
 62
   178
 10
27.953341167875
 20
56.77236224687498
 30
0.0
 70
    32
  0
VERTEX
  5
2E5
  8
LAYER1
 62
   178
 10
27.971039081472
 20
56.93869516191999
 30
0.0
 70
    32
  0
VERTEX
  5
2E6
  8
LAYER1
 62
   178
 10
28.089037
 20
57.60228999999999
 30
0.0
 70
    32
  0
SEQEND
  5
2E7
  8
LAYER1
 62
   178
  0
POLYLINE
  5
2E8
  8
LAYER1
 62
   178
 10
0.0
 20
0.0
 30
0.0
 66
     1
 70
     8
  0
VERTEX
  5
2E9
  8
LAYER1
 62
   178
 10
28.089037
 20
57.60228999999999
 30
0.0
 70
    32
  0
VERTEX
  5
2EA
  8
LAYER1
 62
   178
 10
28.08829270064955
 20
57.73845198404621
 30
0.0
 70
    32
  0
VERTEX
  5
2EB
  8
LAYER1
 62
   178
 10
28.08829185029688
 20
57.75357354596875
 30
0.0
 70
    32
  0
VERTEX
  5
2EC
  8
LAYER1
 62
   178
 10
28.088339004973
 20
57.783812109754
 30
0.0
 70
    32
  0
VERTEX
  5
2ED
  8
LAYER1
 62
   178
 10
28.088628142336
 20
57.84427092332799
 30
0.0
 70
    32
  0
VERTEX
  5
2EE
  8
LAYER1
 62
   178
 10
28.08998098098399
 20
57.96511470443198
 30
0.0
 70
    32
  0
VERTEX
  5
2EF
  8
LAYER1
 62
   178
 10
28.09574692899999
 20
58.20650216199999
 30
0.0
 70
    32
  0
VERTEX
  5
2F0
  8
LAYER1
 62
   178
 10
28.119216028168
 20
58.68803889486399
 30
0.0
 70
    32
  0
VERTEX
  5
2F1
  8
LAYER1
 62
   178
 10
28.211472001096
 20
59.64585752180798
 30
0.0
 70
    32
  0
VERTEX
  5
2F2
  8
LAYER1
 62
   178
 10
28.55341160441175
 20
61.51941933694925
 30
0.0
 70
    32
  0
VERTEX
  5
2F3
  8
LAYER1
 62
   178
 10
28.557806741704
 20
61.53805854299198
 30
0.0
 70
    32
  0
VERTEX
  5
2F4
  8
LAYER1
 62
   178
 10
29.158844803192
 20
63.623655348016
 30
0.0
 70
    32
  0
VERTEX
  5
2F5
  8
LAYER1
 62
   178
 10
29.85120199382748
 20
65.4808951985408
 30
0.0
 70
    32
  0
VERTEX
  5
2F6
  8
LAYER1
 62
   178
 10
31.185533671
 20
68.48170067799998
 30
0.0
 70
    32
  0
VERTEX
  5
2F7
  8
LAYER1
 62
   178
 10
31.436215
 20
69.0085
 30
0.0
 70
    32
  0
SEQEND
  5
2F8
  8
LAYER1
 62
   178
  0
POLYLINE
  5
2F9
  8
LAYER1
 62
   178
 10
0.0
 20
0.0
 30
0.0
 66
     1
 70
     8
  0
VERTEX
  5
2FA
  8
LAYER1
 62
   178
 10
31.436215
 20
69.0085
 30
0.0
 70
    32
  0
VERTEX
  5
2FB
  8
LAYER1
 62
   178
 10
30.6229506984253
 20
69.87075579092408
 30
0.0
 70
    32
  0
VERTEX
  5
2FC
  8
LAYER1
 62
   178
 10
30.59093425573872
 20
69.90561856025452
 30
0.0
 70
    32
  0
VERTEX
  5
2FD
  8
LAYER1
 62
   178
 10
30.52701903306025
 20
69.97542895006137
 30
0.0
 70
    32
  0
VERTEX
  5
2FE
  8
LAYER1
 62
   178
 10
30.399658255936
 20
70.11538801516801
 30
0.0
 70
    32
  0
VERTEX
  5
2FF
  8
LAYER1
 62
   178
 10
30.14680751425
 20
70.396650334625
 30
0.0
 70
    32
  0
VERTEX
  5
300
  8
LAYER1
 62
   178
 10
24.0091350358473
 20
78.9159961071164
 30
0.0
 70
    32
  0
VERTEX
  5
301
  8
LAYER1
 62
   178
 10
22.65952122574039
 20
81.34795989024542
 30
0.0
 70
    32
  0
VERTEX
  5
302
  8
LAYER1
 62
   178
 10
22.58854621466601
 20
81.48299449375793
 30
0.0
 70
    32
  0
VERTEX
  5
303
  8
LAYER1
 62
   178
 10
22.44750403164969
 20
81.75357841654213
 30
0.0
 70
    32
  0
VERTEX
  5
304
  8
LAYER1
 62
   178
 10
22.16901729318372
 20
82.296766708852
 30
0.0
 70
    32
  0
VERTEX
  5
305
  8
LAYER1
 62
   178
 10
21.62616449481475
 20
83.39091775007611
 30
0.0
 70
    32
  0
VERTEX
  5
306
  8
LAYER1
 62
   178
 10
20.594782958698
 20
85.607859016049
 30
0.0
 70
    32
  0
VERTEX
  5
307
  8
LAYER1
 62
   178
 10
18.732046899904
 20
90.13662913895203
 30
0.0
 70
    32
  0
VERTEX
  5
308
  8
LAYER1
 62
   178
 10
18.58718670032939
 20
90.52061516415971
 30
0.0
 70
    32
  0
VERTEX
  5
309
  8
LAYER1
 62
   178
 10
17.89082424634375
 20
92.43721848551564
 30
0.0
 70
    32
  0
VERTEX
  5
30A
  8
LAYER1
 62
   178
 10
17.103119756086
 20
94.754451015243
 30
0.0
 70
    32
  0
VERTEX
  5
30B
  8
LAYER1
 62
   178
 10
16.36399936368925
 20
97.08270697295089
 30
0.0
 70
    32
  0
VERTEX
  5
30C
  8
LAYER1
 62
   178
 10
16.01111630873829
 20
98.24921256380274
 30
0.0
 70
    32
  0
VERTEX
  5
30D
  8
LAYER1
 62
   178
 10
15.36089942575
 20
100.493707602875
 30
0.0
 70
    32
  0
VERTEX
  5
30E
  8
LAYER1
 62
   178
 10
14.865193
 20
102.287673
 30
0.0
 70
    32
  0
SEQEND
  5
30F
  8
LAYER1
 62
   178
  0
POLYLINE
  5
310
  8
LAYER1
 62
   178
 10
0.0
 20
0.0
 30
0.0
 66
     1
 70
     8
  0
VERTEX
  5
311
  8
LAYER1
 62
   178
 10
14.865193
 20
102.287673
 30
0.0
 70
    32
  0
VERTEX
  5
312
  8
LAYER1
 62
   178
 10
14.7813404189063
 20
102.5696433523234
 30
0.0
 70
    32
  0
VERTEX
  5
313
  8
LAYER1
 62
   178
 10
14.77640213263147
 20
102.5862284544819
 30
0.0
 70
    32
  0
VERTEX
  5
314
  8
LAYER1
 62
   178
 10
14.76652369250586
 20
102.6193982101426
 30
0.0
 70
    32
  0
VERTEX
  5
315
  8
LAYER1
 62
   178
 10
14.74675942538013
 20
102.6857359469914
 30
0.0
 70
    32
  0
VERTEX
  5
316
  8
LAYER1
 62
   178
 10
14.70720201106401
 20
102.818404484024
 30
0.0
 70
    32
  0
VERTEX
  5
317
  8
LAYER1
 62
   178
 10
14.627977001641
 20
103.083715101231
 30
0.0
 70
    32
  0
VERTEX
  5
318
  8
LAYER1
 62
   178
 10
14.46912897537501
 20
103.614240826625
 30
0.0
 70
    32
  0
VERTEX
  5
319
  8
LAYER1
 62
   178
 10
14.15018261910701
 20
104.674992788637
 30
0.0
 70
    32
  0
VERTEX
  5
31A
  8
LAYER1
 62
   178
 10
13.510022499179
 20
106.795959135989
 30
0.0
 70
    32
  0
VERTEX
  5
31B
  8
LAYER1
 62
   178
 10
12.242503090171
 20
111.041024551461
 30
0.0
 70
    32
  0
VERTEX
  5
31C
  8
LAYER1
 62
   178
 10
12.21686994979706
 20
111.1284719870874
 30
0.0
 70
    32
  0
VERTEX
  5
31D
  8
LAYER1
 62
   178
 10
11.033709475467
 20
115.300329837397
 30
0.0
 70
    32
  0
VERTEX
  5
31E
  8
LAYER1
 62
   178
 10
10.466956598419
 20
117.439096022829
 30
0.0
 70
    32
  0
VERTEX
  5
31F
  8
LAYER1
 62
   178
 10
10.195724950023
 20
118.511417879593
 30
0.0
 70
    32
  0
VERTEX
  5
320
  8
LAYER1
 62
   178
 10
9.828067235809378
 20
120.0311407080734
 30
0.0
 70
    32
  0
VERTEX
  5
321
  8
LAYER1
 62
   178
 10
9.420366826074078
 20
121.8324854112593
 30
0.0
 70
    32
  0
VERTEX
  5
322
  8
LAYER1
 62
   178
 10
9.045498536000004
 20
123.638358056
 30
0.0
 70
    32
  0
VERTEX
  5
323
  8
LAYER1
 62
   178
 10
8.706319536592595
 20
125.4528611914074
 30
0.0
 70
    32
  0
VERTEX
  5
324
  8
LAYER1
 62
   178
 10
8.338042827125001
 20
127.734457485875
 30
0.0
 70
    32
  0
VERTEX
  5
325
  8
LAYER1
 62
   178
 10
8.149494
 20
129.111253
 30
0.0
 70
    32
  0
SEQEND
  5
326
  8
LAYER1
 62
   178
  0
POLYLINE
  5
327
  8
LAYER1
 62
   178
 10
0.0
 20
0.0
 30
0.0
 66
     1
 70
     8
  0
VERTEX
  5
328
  8
LAYER1
 62
   178
 10
8.149494
 20
129.111253
 30
0.0
 70
    32
  0
VERTEX
  5
329
  8
LAYER1
 62
   178
 10
8.114703532530886
 20
129.2502600075343
 30
0.0
 70
    32
  0
VERTEX
  5
32A
  8
LAYER1
 62
   178
 10
8.110885976400391
 20
129.2657110749961
 30
0.0
 70
    32
  0
VERTEX
  5
32B
  8
LAYER1
 62
   178
 10
8.103279454939875
 20
129.2966166670832
 30
0.0
 70
    32
  0
VERTEX
  5
32C
  8
LAYER1
 62
   178
 10
8.088180215176001
 20
129.358441564464
 30
0.0
 70
    32
  0
VERTEX
  5
32D
  8
LAYER1
 62
   178
 10
8.058432467919001
 20
129.482145288466
 30
0.0
 70
    32
  0
VERTEX
  5
32E
  8
LAYER1
 62
   178
 10
8.000704059624999
 20
129.72976106475
 30
0.0
 70
    32
  0
VERTEX
  5
32F
  8
LAYER1
 62
   178
 10
7.892028845013002
 20
130.225766820982
 30
0.0
 70
    32
  0
VERTEX
  5
330
  8
LAYER1
 62
   178
 10
7.699510880461002
 20
131.220402272454
 30
0.0
 70
    32
  0
VERTEX
  5
331
  8
LAYER1
 62
   178
 10
7.395453264189001
 20
133.216385926246
 30
0.0
 70
    32
  0
VERTEX
  5
332
  8
LAYER1
 62
   178
 10
7.389124471933526
 20
133.2650892337971
 30
0.0
 70
    32
  0
VERTEX
  5
333
  8
LAYER1
 62
   178
 10
7.164411406253004
 20
135.214114190342
 30
0.0
 70
    32
  0
VERTEX
  5
334
  8
LAYER1
 62
   178
 10
7.063163139621004
 20
136.210930404694
 30
0.0
 70
    32
  0
VERTEX
  5
335
  8
LAYER1
 62
   178
 10
6.939144983718219
 20
137.4567687338424
 30
0.0
 70
    32
  0
VERTEX
  5
336
  8
LAYER1
 62
   178
 10
6.767879824000001
 20
139.057381416
 30
0.0
 70
    32
  0
VERTEX
  5
337
  8
LAYER1
 62
   178
 10
6.527198087874998
 20
140.88903161025
 30
0.0
 70
    32
  0
VERTEX
  5
338
  8
LAYER1
 62
   178
 10
6.431191999999998
 20
141.49373
 30
0.0
 70
    32
  0
SEQEND
  5
339
  8
LAYER1
 62
   178
  0
POINT
  5
33A
  8
DXF_HASE1_GUT_MODEL_EBENE_
 62
   178
 10
6.431191999999998
 20
141.49373
 30
0.0
  0
POLYLINE
  5
33B
  8
LAYER1
 62
   178
 10
0.0
 20
0.0
 30
0.0
 66
     1
 70
     8
  0
VERTEX
  5
33C
  8
LAYER1
 62
   178
 10
13.999757
 20
148.923223
 30
0.0
 70
    32
  0
VERTEX
  5
33D
  8
LAYER1
 62
   178
 10
14.005674339176
 20
148.905173171056
 30
0.0
 70
    32
  0
VERTEX
  5
33E
  8
LAYER1
 62
   178
 10
14.008609353569
 20
148.896814547464
 30
0.0
 70
    32
  0
VERTEX
  5
33F
  8
LAYER1
 62
   178
 10
14.014425173375
 20
148.881389674
 30
0.0
 70
    32
  0
VERTEX
  5
340
  8
LAYER1
 62
   178
 10
14.025801344963
 20
148.855484256928
 30
0.0
 70
    32
  0
VERTEX
  5
341
  8
LAYER1
 62
   178
 10
14.047222759211
 20
148.821649422016
 30
0.0
 70
    32
  0
VERTEX
  5
342
  8
LAYER1
 62
   178
 10
14.0733468843256
 20
148.8078918378042
 30
0.0
 70
    32
  0
VERTEX
  5
343
  8
LAYER1
 62
   178
 10
14.082269417339
 20
148.811473187584
 30
0.0
 70
    32
  0
VERTEX
  5
344
  8
LAYER1
 62
   178
 10
14.102211744203
 20
148.850506178368
 30
0.0
 70
    32
  0
VERTEX
  5
345
  8
LAYER1
 62
   178
 10
14.09989211111111
 20
148.9111778888889
 30
0.0
 70
    32
  0
VERTEX
  5
346
  8
LAYER1
 62
   178
 10
14.08235214228155
 20
148.9393554194473
 30
0.0
 70
    32
  0
VERTEX
  5
347
  8
LAYER1
 62
   178
 10
14.05714172711111
 20
148.9479346248889
 30
0.0
 70
    32
  0
VERTEX
  5
348
  8
LAYER1
 62
   178
 10
14.024255664125
 20
148.938686131
 30
0.0
 70
    32
  0
VERTEX
  5
349
  8
LAYER1
 62
   178
 10
13.999757
 20
148.923223
 30
0.0
 70
    32
  0
SEQEND
  5
34A
  8
LAYER1
 62
   178
  0
POINT
  5
34B
  8
DXF_HASE1_GUT_MODEL_EBENE_
 62
   178
 10
13.999757
 20
148.923223
 30
0.0
  0
POLYLINE
  5
34C
  8
LAYER1
 62
   178
 10
0.0
 20
0.0
 30
0.0
 66
     1
 70
     8
  0
VERTEX
  5
34D
  8
LAYER1
 62
   178
 10
6.379757
 20
142.82723
 30
0.0
 70
    32
  0
VERTEX
  5
34E
  8
LAYER1
 62
   178
 10
6.385674339175999
 20
142.809180229856
 30
0.0
 70
    32
  0
VERTEX
  5
34F
  8
LAYER1
 62
   178
 10
6.388609353568999
 20
142.800821634764
 30
0.0
 70
    32
  0
VERTEX
  5
350
  8
LAYER1
 62
   178
 10
6.394425173374999
 20
142.7853968165
 30
0.0
 70
    32
  0
VERTEX
  5
351
  8
LAYER1
 62
   178
 10
6.405801344963001
 20
142.759491502628
 30
0.0
 70
    32
  0
VERTEX
  5
352
  8
LAYER1
 62
   178
 10
6.427222759211
 20
142.725656845316
 30
0.0
 70
    32
  0
VERTEX
  5
353
  8
LAYER1
 62
   178
 10
6.453346785425017
 20
142.7118994343302
 30
0.0
 70
    32
  0
VERTEX
  5
354
  8
LAYER1
 62
   178
 10
6.462269417339
 20
142.715480850884
 30
0.0
 70
    32
  0
VERTEX
  5
355
  8
LAYER1
 62
   178
 10
6.482211744203001
 20
142.754513928068
 30
0.0
 70
    32
  0
VERTEX
  5
356
  8
LAYER1
 62
   178
 10
6.479892111111112
 20
142.8151855555556
 30
0.0
 70
    32
  0
VERTEX
  5
357
  8
LAYER1
 62
   178
 10
6.462352202025393
 20
142.8433628916494
 30
0.0
 70
    32
  0
VERTEX
  5
358
  8
LAYER1
 62
   178
 10
6.43714172711111
 20
142.8519419715556
 30
0.0
 70
    32
  0
VERTEX
  5
359
  8
LAYER1
 62
   178
 10
6.404255664124999
 20
142.8426932735
 30
0.0
 70
    32
  0
VERTEX
  5
35A
  8
LAYER1
 62
   178
 10
6.379757
 20
142.82723
 30
0.0
 70
    32
  0
SEQEND
  5
35B
  8
LAYER1
 62
   178
  0
POINT
  5
35C
  8
DXF_HASE1_GUT_MODEL_EBENE_
 62
   178
 10
6.379757
 20
142.82723
 30
0.0
  0
POLYLINE
  5
35D
  8
LAYER1
 62
   178
 10
0.0
 20
0.0
 30
0.0
 66
     1
 70
     8
  0
VERTEX
  5
35E
  8
LAYER1
 62
   178
 10
7.522757000000003
 20
133.11173
 30
0.0
 70
    32
  0
VERTEX
  5
35F
  8
LAYER1
 62
   178
 10
7.528674339176003
 20
133.093680229856
 30
0.0
 70
    32
  0
VERTEX
  5
360
  8
LAYER1
 62
   178
 10
7.531609353569003
 20
133.085321634764
 30
0.0
 70
    32
  0
VERTEX
  5
361
  8
LAYER1
 62
   178
 10
7.537425173375003
 20
133.0698968164999
 30
0.0
 70
    32
  0
VERTEX
  5
362
  8
LAYER1
 62
   178
 10
7.548801344963004
 20
133.043991502628
 30
0.0
 70
    32
  0
VERTEX
  5
363
  8
LAYER1
 62
   178
 10
7.570222759211004
 20
133.010156845316
 30
0.0
 70
    32
  0
VERTEX
  5
364
  8
LAYER1
 62
   178
 10
7.59634678542503
 20
132.9963994343302
 30
0.0
 70
    32
  0
VERTEX
  5
365
  8
LAYER1
 62
   178
 10
7.605269417339002
 20
132.999980850884
 30
0.0
 70
    32
  0
VERTEX
  5
366
  8
LAYER1
 62
   178
 10
7.625211744203005
 20
133.039013928068
 30
0.0
 70
    32
  0
VERTEX
  5
367
  8
LAYER1
 62
   178
 10
7.622892111111115
 20
133.0996855555556
 30
0.0
 70
    32
  0
VERTEX
  5
368
  8
LAYER1
 62
   178
 10
7.605352202025371
 20
133.1278628916494
 30
0.0
 70
    32
  0
VERTEX
  5
369
  8
LAYER1
 62
   178
 10
7.580141727111115
 20
133.1364419715555
 30
0.0
 70
    32
  0
VERTEX
  5
36A
  8
LAYER1
 62
   178
 10
7.547255664125004
 20
133.1271932735
 30
0.0
 70
    32
  0
VERTEX
  5
36B
  8
LAYER1
 62
   178
 10
7.522757000000003
 20
133.11173
 30
0.0
 70
    32
  0
SEQEND
  5
36C
  8
LAYER1
 62
   178
  0
POINT
  5
36D
  8
DXF_HASE1_GUT_MODEL_EBENE_
 62
   178
 10
7.522757000000003
 20
133.11173
 30
0.0
  0
POLYLINE
  5
36E
  8
LAYER1
 62
   178
 10
0.0
 20
0.0
 30
0.0
 66
     1
 70
     8
  0
VERTEX
  5
36F
  8
LAYER1
 62
   178
 10
59.43400999999999
 20
128.920723
 30
0.0
 70
    32
  0
VERTEX
  5
370
  8
LAYER1
 62
   178
 10
59.4399275144
 20
128.902673172232
 30
0.0
 70
    32
  0
VERTEX
  5
371
  8
LAYER1
 62
   178
 10
59.44286261284998
 20
128.894314550083
 30
0.0
 70
    32
  0
VERTEX
  5
372
  8
LAYER1
 62
   178
 10
59.44867859374999
 20
128.878889681125
 30
0.0
 70
    32
  0
VERTEX
  5
373
  8
LAYER1
 62
   178
 10
59.46005505994999
 20
128.852984279041
 30
0.0
 70
    32
  0
VERTEX
  5
374
  8
LAYER1
 62
   178
 10
59.48147695714999
 20
128.819149493977
 30
0.0
 70
    32
  0
VERTEX
  5
375
  8
LAYER1
 62
   178
 10
59.50760159756274
 20
128.8053920177933
 30
0.0
 70
    32
  0
VERTEX
  5
376
  8
LAYER1
 62
   178
 10
59.51652418834999
 20
128.808973406473
 30
0.0
 70
    32
  0
VERTEX
  5
377
  8
LAYER1
 62
   178
 10
59.53646662595
 20
128.848006545721
 30
0.0
 70
    32
  0
VERTEX
  5
378
  8
LAYER1
 62
   178
 10
59.53414666666666
 20
128.9086783333333
 30
0.0
 70
    32
  0
VERTEX
  5
379
  8
LAYER1
 62
   178
 10
59.51660662368634
 20
128.9368555610096
 30
0.0
 70
    32
  0
VERTEX
  5
37A
  8
LAYER1
 62
   178
 10
59.49139546666666
 20
128.9454349253334
 30
0.0
 70
    32
  0
VERTEX
  5
37B
  8
LAYER1
 62
   178
 10
59.45850895624999
 20
128.936186266375
 30
0.0
 70
    32
  0
VERTEX
  5
37C
  8
LAYER1
 62
   178
 10
59.43400999999999
 20
128.920723
 30
0.0
 70
    32
  0
SEQEND
  5
37D
  8
LAYER1
 62
   178
  0
POINT
  5
37E
  8
DXF_HASE1_GUT_MODEL_EBENE_
 62
   178
 10
59.43400999999999
 20
128.920723
 30
0.0
  0
POLYLINE
  5
37F
  8
LAYER1
 62
   178
 10
0.0
 20
0.0
 30
0.0
 66
     1
 70
     8
  0
VERTEX
  5
380
  8
LAYER1
 62
   178
 10
61.05325999999999
 20
128.920723
 30
0.0
 70
    32
  0
VERTEX
  5
381
  8
LAYER1
 62
   178
 10
61.05917751439998
 20
128.902673172232
 30
0.0
 70
    32
  0
VERTEX
  5
382
  8
LAYER1
 62
   178
 10
61.06211261284997
 20
128.894314550083
 30
0.0
 70
    32
  0
VERTEX
  5
383
  8
LAYER1
 62
   178
 10
61.06792859374998
 20
128.878889681125
 30
0.0
 70
    32
  0
VERTEX
  5
384
  8
LAYER1
 62
   178
 10
61.07930505994999
 20
128.852984279041
 30
0.0
 70
    32
  0
VERTEX
  5
385
  8
LAYER1
 62
   178
 10
61.10072695714999
 20
128.819149493977
 30
0.0
 70
    32
  0
VERTEX
  5
386
  8
LAYER1
 62
   178
 10
61.12685159756273
 20
128.8053920177933
 30
0.0
 70
    32
  0
VERTEX
  5
387
  8
LAYER1
 62
   178
 10
61.13577418834998
 20
128.808973406473
 30
0.0
 70
    32
  0
VERTEX
  5
388
  8
LAYER1
 62
   178
 10
61.15571662594999
 20
128.848006545721
 30
0.0
 70
    32
  0
VERTEX
  5
389
  8
LAYER1
 62
   178
 10
61.15339666666665
 20
128.9086783333333
 30
0.0
 70
    32
  0
VERTEX
  5
38A
  8
LAYER1
 62
   178
 10
61.13585662368634
 20
128.9368555610096
 30
0.0
 70
    32
  0
VERTEX
  5
38B
  8
LAYER1
 62
   178
 10
61.11064546666665
 20
128.9454349253334
 30
0.0
 70
    32
  0
VERTEX
  5
38C
  8
LAYER1
 62
   178
 10
61.07775895624998
 20
128.936186266375
 30
0.0
 70
    32
  0
VERTEX
  5
38D
  8
LAYER1
 62
   178
 10
61.05325999999999
 20
128.920723
 30
0.0
 70
    32
  0
SEQEND
  5
38E
  8
LAYER1
 62
   178
  0
POINT
  5
38F
  8
DXF_HASE1_GUT_MODEL_EBENE_
 62
   178
 10
61.05325999999999
 20
128.920723
 30
0.0
  0
POLYLINE
  5
390
  8
LAYER1
 62
   178
 10
0.0
 20
0.0
 30
0.0
 66
     1
 70
     8
  0
VERTEX
  5
391
  8
LAYER1
 62
   178
 10
61.24375999999999
 20
128.920723
 30
0.0
 70
    32
  0
VERTEX
  5
392
  8
LAYER1
 62
   178
 10
61.24967751439998
 20
128.902673172232
 30
0.0
 70
    32
  0
VERTEX
  5
393
  8
LAYER1
 62
   178
 10
61.25261261285
 20
128.894314550083
 30
0.0
 70
    32
  0
VERTEX
  5
394
  8
LAYER1
 62
   178
 10
61.25842859375
 20
128.878889681125
 30
0.0
 70
    32
  0
VERTEX
  5
395
  8
LAYER1
 62
   178
 10
61.26980505995
 20
128.852984279041
 30
0.0
 70
    32
  0
VERTEX
  5
396
  8
LAYER1
 62
   178
 10
61.29122695714999
 20
128.819149493977
 30
0.0
 70
    32
  0
VERTEX
  5
397
  8
LAYER1
 62
   178
 10
61.31735159756274
 20
128.8053920177933
 30
0.0
 70
    32
  0
VERTEX
  5
398
  8
LAYER1
 62
   178
 10
61.32627418834998
 20
128.808973406473
 30
0.0
 70
    32
  0
VERTEX
  5
399
  8
LAYER1
 62
   178
 10
61.34621662594999
 20
128.848006545721
 30
0.0
 70
    32
  0
VERTEX
  5
39A
  8
LAYER1
 62
   178
 10
61.34389666666666
 20
128.9086783333333
 30
0.0
 70
    32
  0
VERTEX
  5
39B
  8
LAYER1
 62
   178
 10
61.32635662368632
 20
128.9368555610096
 30
0.0
 70
    32
  0
VERTEX
  5
39C
  8
LAYER1
 62
   178
 10
61.30114546666666
 20
128.9454349253334
 30
0.0
 70
    32
  0
VERTEX
  5
39D
  8
LAYER1
 62
   178
 10
61.26825895625
 20
128.936186266375
 30
0.0
 70
    32
  0
VERTEX
  5
39E
  8
LAYER1
 62
   178
 10
61.24375999999999
 20
128.920723
 30
0.0
 70
    32
  0
SEQEND
  5
39F
  8
LAYER1
 62
   178
  0
POINT
  5
3A0
  8
DXF_HASE1_GUT_MODEL_EBENE_
 62
   178
 10
61.24375999999999
 20
128.920723
 30
0.0
  0
POLYLINE
  5
3A1
  8
LAYER1
 62
   178
 10
0.0
 20
0.0
 30
0.0
 66
     1
 70
     8
  0
VERTEX
  5
3A2
  8
LAYER1
 62
   178
 10
62.19625999999999
 20
128.634973
 30
0.0
 70
    32
  0
VERTEX
  5
3A3
  8
LAYER1
 62
   178
 10
62.20217751439998
 20
128.616923171056
 30
0.0
 70
    32
  0
VERTEX
  5
3A4
  8
LAYER1
 62
   178
 10
62.20511261284997
 20
128.608564547464
 30
0.0
 70
    32
  0
VERTEX
  5
3A5
  8
LAYER1
 62
   178
 10
62.21092859374998
 20
128.593139674
 30
0.0
 70
    32
  0
VERTEX
  5
3A6
  8
LAYER1
 62
   178
 10
62.22230505995
 20
128.567234256928
 30
0.0
 70
    32
  0
VERTEX
  5
3A7
  8
LAYER1
 62
   178
 10
62.24372695714998
 20
128.533399422016
 30
0.0
 70
    32
  0
VERTEX
  5
3A8
  8
LAYER1
 62
   178
 10
62.26985167667968
 20
128.519641855305
 30
0.0
 70
    32
  0
VERTEX
  5
3A9
  8
LAYER1
 62
   178
 10
62.27877418834998
 20
128.523223187584
 30
0.0
 70
    32
  0
VERTEX
  5
3AA
  8
LAYER1
 62
   178
 10
62.29871662594999
 20
128.562256178368
 30
0.0
 70
    32
  0
VERTEX
  5
3AB
  8
LAYER1
 62
   178
 10
62.29639666666665
 20
128.6229278888889
 30
0.0
 70
    32
  0
VERTEX
  5
3AC
  8
LAYER1
 62
   178
 10
62.27885663521255
 20
128.6511051473349
 30
0.0
 70
    32
  0
VERTEX
  5
3AD
  8
LAYER1
 62
   178
 10
62.25364546666665
 20
128.6596846248889
 30
0.0
 70
    32
  0
VERTEX
  5
3AE
  8
LAYER1
 62
   178
 10
62.22075895624998
 20
128.650436131
 30
0.0
 70
    32
  0
VERTEX
  5
3AF
  8
LAYER1
 62
   178
 10
62.19625999999999
 20
128.634973
 30
0.0
 70
    32
  0
SEQEND
  5
3B0
  8
LAYER1
 62
   178
  0
POINT
  5
3B1
  8
DXF_HASE1_GUT_MODEL_EBENE_
 62
   178
 10
62.19625999999999
 20
128.634973
 30
0.0
  0
POLYLINE
  5
3B2
  8
LAYER1
 62
   178
 10
0.0
 20
0.0
 30
0.0
 66
     1
 70
     8
  0
VERTEX
  5
3B3
  8
LAYER1
 62
   178
 10
62.86300999999999
 20
128.444473
 30
0.0
 70
    32
  0
VERTEX
  5
3B4
  8
LAYER1
 62
   178
 10
62.86892751439999
 20
128.426423172232
 30
0.0
 70
    32
  0
VERTEX
  5
3B5
  8
LAYER1
 62
   178
 10
62.87186261284999
 20
128.418064550083
 30
0.0
 70
    32
  0
VERTEX
  5
3B6
  8
LAYER1
 62
   178
 10
62.87767859374998
 20
128.402639681125
 30
0.0
 70
    32
  0
VERTEX
  5
3B7
  8
LAYER1
 62
   178
 10
62.88905505995
 20
128.376734279041
 30
0.0
 70
    32
  0
VERTEX
  5
3B8
  8
LAYER1
 62
   178
 10
62.91047695714999
 20
128.342899493977
 30
0.0
 70
    32
  0
VERTEX
  5
3B9
  8
LAYER1
 62
   178
 10
62.93660159756273
 20
128.3291420177933
 30
0.0
 70
    32
  0
VERTEX
  5
3BA
  8
LAYER1
 62
   178
 10
62.94552418834998
 20
128.332723406473
 30
0.0
 70
    32
  0
VERTEX
  5
3BB
  8
LAYER1
 62
   178
 10
62.96546662594999
 20
128.371756545721
 30
0.0
 70
    32
  0
VERTEX
  5
3BC
  8
LAYER1
 62
   178
 10
62.96314666666666
 20
128.4324283333333
 30
0.0
 70
    32
  0
VERTEX
  5
3BD
  8
LAYER1
 62
   178
 10
62.94560662368633
 20
128.4606055610095
 30
0.0
 70
    32
  0
VERTEX
  5
3BE
  8
LAYER1
 62
   178
 10
62.92039546666665
 20
128.4691849253334
 30
0.0
 70
    32
  0
VERTEX
  5
3BF
  8
LAYER1
 62
   178
 10
62.88750895624998
 20
128.459936266375
 30
0.0
 70
    32
  0
VERTEX
  5
3C0
  8
LAYER1
 62
   178
 10
62.86300999999999
 20
128.444473
 30
0.0
 70
    32
  0
SEQEND
  5
3C1
  8
LAYER1
 62
   178
  0
POINT
  5
3C2
  8
DXF_HASE1_GUT_MODEL_EBENE_
 62
   178
 10
62.86300999999999
 20
128.444473
 30
0.0
  0
POLYLINE
  5
3C3
  8
LAYER1
 62
   178
 10
0.0
 20
0.0
 30
0.0
 66
     1
 70
     8
  0
VERTEX
  5
3C4
  8
LAYER1
 62
   178
 10
26.09650700000001
 20
120.443473
 30
0.0
 70
    32
  0
VERTEX
  5
3C5
  8
LAYER1
 62
   178
 10
26.102424339176
 20
120.425423171056
 30
0.0
 70
    32
  0
VERTEX
  5
3C6
  8
LAYER1
 62
   178
 10
26.10535935356901
 20
120.417064547464
 30
0.0
 70
    32
  0
VERTEX
  5
3C7
  8
LAYER1
 62
   178
 10
26.111175173375
 20
120.401639674
 30
0.0
 70
    32
  0
VERTEX
  5
3C8
  8
LAYER1
 62
   178
 10
26.12255134496301
 20
120.375734256928
 30
0.0
 70
    32
  0
VERTEX
  5
3C9
  8
LAYER1
 62
   178
 10
26.14397275921101
 20
120.341899422016
 30
0.0
 70
    32
  0
VERTEX
  5
3CA
  8
LAYER1
 62
   178
 10
26.1700968843256
 20
120.3281418378042
 30
0.0
 70
    32
  0
VERTEX
  5
3CB
  8
LAYER1
 62
   178
 10
26.179019417339
 20
120.331723187584
 30
0.0
 70
    32
  0
VERTEX
  5
3CC
  8
LAYER1
 62
   178
 10
26.19896174420301
 20
120.370756178368
 30
0.0
 70
    32
  0
VERTEX
  5
3CD
  8
LAYER1
 62
   178
 10
26.19664211111112
 20
120.4314278888889
 30
0.0
 70
    32
  0
VERTEX
  5
3CE
  8
LAYER1
 62
   178
 10
26.17910214228155
 20
120.4596054194473
 30
0.0
 70
    32
  0
VERTEX
  5
3CF
  8
LAYER1
 62
   178
 10
26.15389172711112
 20
120.4681846248889
 30
0.0
 70
    32
  0
VERTEX
  5
3D0
  8
LAYER1
 62
   178
 10
26.121005664125
 20
120.458936131
 30
0.0
 70
    32
  0
VERTEX
  5
3D1
  8
LAYER1
 62
   178
 10
26.09650700000001
 20
120.443473
 30
0.0
 70
    32
  0
SEQEND
  5
3D2
  8
LAYER1
 62
   178
  0
POINT
  5
3D3
  8
DXF_HASE1_GUT_MODEL_EBENE_
 62
   178
 10
26.09650700000001
 20
120.443473
 30
0.0
  0
POLYLINE
  5
3D4
  8
LAYER1
 62
   178
 10
0.0
 20
0.0
 30
0.0
 66
     1
 70
     8
  0
VERTEX
  5
3D5
  8
LAYER1
 62
   178
 10
90.00926
 20
109.394473
 30
0.0
 70
    32
  0
VERTEX
  5
3D6
  8
LAYER1
 62
   178
 10
90.01517751440001
 20
109.376423171056
 30
0.0
 70
    32
  0
VERTEX
  5
3D7
  8
LAYER1
 62
   178
 10
90.01811261284998
 20
109.368064547464
 30
0.0
 70
    32
  0
VERTEX
  5
3D8
  8
LAYER1
 62
   178
 10
90.02392859374999
 20
109.352639674
 30
0.0
 70
    32
  0
VERTEX
  5
3D9
  8
LAYER1
 62
   178
 10
90.03530505995002
 20
109.326734256928
 30
0.0
 70
    32
  0
VERTEX
  5
3DA
  8
LAYER1
 62
   178
 10
90.05672695714999
 20
109.292899422016
 30
0.0
 70
    32
  0
VERTEX
  5
3DB
  8
LAYER1
 62
   178
 10
90.0828516766797
 20
109.279141855305
 30
0.0
 70
    32
  0
VERTEX
  5
3DC
  8
LAYER1
 62
   178
 10
90.09177418834999
 20
109.282723187584
 30
0.0
 70
    32
  0
VERTEX
  5
3DD
  8
LAYER1
 62
   178
 10
90.11171662595001
 20
109.321756178368
 30
0.0
 70
    32
  0
VERTEX
  5
3DE
  8
LAYER1
 62
   178
 10
90.10939666666667
 20
109.3824278888889
 30
0.0
 70
    32
  0
VERTEX
  5
3DF
  8
LAYER1
 62
   178
 10
90.09185663521257
 20
109.4106051473349
 30
0.0
 70
    32
  0
VERTEX
  5
3E0
  8
LAYER1
 62
   178
 10
90.06664546666667
 20
109.4191846248889
 30
0.0
 70
    32
  0
VERTEX
  5
3E1
  8
LAYER1
 62
   178
 10
90.03375895625
 20
109.409936131
 30
0.0
 70
    32
  0
VERTEX
  5
3E2
  8
LAYER1
 62
   178
 10
90.00926
 20
109.394473
 30
0.0
 70
    32
  0
SEQEND
  5
3E3
  8
LAYER1
 62
   178
  0
POINT
  5
3E4
  8
DXF_HASE1_GUT_MODEL_EBENE_
 62
   178
 10
90.00926
 20
109.394473
 30
0.0
  0
POLYLINE
  5
3E5
  8
LAYER1
 62
   178
 10
0.0
 20
0.0
 30
0.0
 66
     1
 70
     8
  0
VERTEX
  5
3E6
  8
LAYER1
 62
   178
 10
30.19225699999999
 20
109.013473
 30
0.0
 70
    32
  0
VERTEX
  5
3E7
  8
LAYER1
 62
   178
 10
30.19817433917599
 20
108.995423171056
 30
0.0
 70
    32
  0
VERTEX
  5
3E8
  8
LAYER1
 62
   178
 10
30.201109353569
 20
108.987064547464
 30
0.0
 70
    32
  0
VERTEX
  5
3E9
  8
LAYER1
 62
   178
 10
30.20692517337499
 20
108.971639674
 30
0.0
 70
    32
  0
VERTEX
  5
3EA
  8
LAYER1
 62
   178
 10
30.218301344963
 20
108.945734256928
 30
0.0
 70
    32
  0
VERTEX
  5
3EB
  8
LAYER1
 62
   178
 10
30.23972275921099
 20
108.911899422016
 30
0.0
 70
    32
  0
VERTEX
  5
3EC
  8
LAYER1
 62
   178
 10
30.26584688432558
 20
108.8981418378042
 30
0.0
 70
    32
  0
VERTEX
  5
3ED
  8
LAYER1
 62
   178
 10
30.27476941733899
 20
108.901723187584
 30
0.0
 70
    32
  0
VERTEX
  5
3EE
  8
LAYER1
 62
   178
 10
30.29471174420299
 20
108.940756178368
 30
0.0
 70
    32
  0
VERTEX
  5
3EF
  8
LAYER1
 62
   178
 10
30.29239211111111
 20
109.0014278888889
 30
0.0
 70
    32
  0
VERTEX
  5
3F0
  8
LAYER1
 62
   178
 10
30.27485214228153
 20
109.0296054194473
 30
0.0
 70
    32
  0
VERTEX
  5
3F1
  8
LAYER1
 62
   178
 10
30.2496417271111
 20
109.0381846248889
 30
0.0
 70
    32
  0
VERTEX
  5
3F2
  8
LAYER1
 62
   178
 10
30.21675566412499
 20
109.028936131
 30
0.0
 70
    32
  0
VERTEX
  5
3F3
  8
LAYER1
 62
   178
 10
30.19225699999999
 20
109.013473
 30
0.0
 70
    32
  0
SEQEND
  5
3F4
  8
LAYER1
 62
   178
  0
POINT
  5
3F5
  8
DXF_HASE1_GUT_MODEL_EBENE_
 62
   178
 10
30.19225699999999
 20
109.013473
 30
0.0
  0
POLYLINE
  5
3F6
  8
LAYER1
 62
   178
 10
0.0
 20
0.0
 30
0.0
 66
     1
 70
     8
  0
VERTEX
  5
3F7
  8
LAYER1
 62
   178
 10
90.10451
 20
108.441973
 30
0.0
 70
    32
  0
VERTEX
  5
3F8
  8
LAYER1
 62
   178
 10
90.1104275144
 20
108.423923172232
 30
0.0
 70
    32
  0
VERTEX
  5
3F9
  8
LAYER1
 62
   178
 10
90.11336261285
 20
108.415564550083
 30
0.0
 70
    32
  0
VERTEX
  5
3FA
  8
LAYER1
 62
   178
 10
90.11917859375001
 20
108.400139681125
 30
0.0
 70
    32
  0
VERTEX
  5
3FB
  8
LAYER1
 62
   178
 10
90.13055505995
 20
108.374234279041
 30
0.0
 70
    32
  0
VERTEX
  5
3FC
  8
LAYER1
 62
   178
 10
90.15197695714997
 20
108.340399493977
 30
0.0
 70
    32
  0
VERTEX
  5
3FD
  8
LAYER1
 62
   178
 10
90.1781015975627
 20
108.3266420177933
 30
0.0
 70
    32
  0
VERTEX
  5
3FE
  8
LAYER1
 62
   178
 10
90.18702418834997
 20
108.330223406473
 30
0.0
 70
    32
  0
VERTEX
  5
3FF
  8
LAYER1
 62
   178
 10
90.20696662594999
 20
108.369256545721
 30
0.0
 70
    32
  0
VERTEX
  5
400
  8
LAYER1
 62
   178
 10
90.20464666666666
 20
108.4299283333334
 30
0.0
 70
    32
  0
VERTEX
  5
401
  8
LAYER1
 62
   178
 10
90.18710662368632
 20
108.4581055610096
 30
0.0
 70
    32
  0
VERTEX
  5
402
  8
LAYER1
 62
   178
 10
90.16189546666665
 20
108.4666849253333
 30
0.0
 70
    32
  0
VERTEX
  5
403
  8
LAYER1
 62
   178
 10
90.12900895625
 20
108.457436266375
 30
0.0
 70
    32
  0
VERTEX
  5
404
  8
LAYER1
 62
   178
 10
90.10451
 20
108.441973
 30
0.0
 70
    32
  0
SEQEND
  5
405
  8
LAYER1
 62
   178
  0
POINT
  5
406
  8
DXF_HASE1_GUT_MODEL_EBENE_
 62
   178
 10
90.10451
 20
108.441973
 30
0.0
  0
POLYLINE
  5
407
  8
LAYER1
 62
   178
 10
0.0
 20
0.0
 30
0.0
 66
     1
 70
     8
  0
VERTEX
  5
408
  8
LAYER1
 62
   178
 10
88.29475999999998
 20
105.870221
 30
0.0
 70
    32
  0
VERTEX
  5
409
  8
LAYER1
 62
   178
 10
88.30067751439996
 20
105.85217099936
 30
0.0
 70
    32
  0
VERTEX
  5
40A
  8
LAYER1
 62
   178
 10
88.30361261284999
 20
105.84381229604
 30
0.0
 70
    32
  0
VERTEX
  5
40B
  8
LAYER1
 62
   178
 10
88.30942859374996
 20
105.828387275
 30
0.0
 70
    32
  0
VERTEX
  5
40C
  8
LAYER1
 62
   178
 10
88.32080505995
 20
105.80248160828
 30
0.0
 70
    32
  0
VERTEX
  5
40D
  8
LAYER1
 62
   178
 10
88.34222695714998
 20
105.76864643996
 30
0.0
 70
    32
  0
VERTEX
  5
40E
  8
LAYER1
 62
   178
 10
88.36835165691461
 20
105.7548887156793
 30
0.0
 70
    32
  0
VERTEX
  5
40F
  8
LAYER1
 62
   178
 10
88.37727418834997
 20
105.75847007324
 30
0.0
 70
    32
  0
VERTEX
  5
410
  8
LAYER1
 62
   178
 10
88.39721662595
 20
105.79750339868
 30
0.0
 70
    32
  0
VERTEX
  5
411
  8
LAYER1
 62
   178
 10
88.39489666666665
 20
105.8581756666667
 30
0.0
 70
    32
  0
VERTEX
  5
412
  8
LAYER1
 62
   178
 10
88.37735640987822
 20
105.8863533854205
 30
0.0
 70
    32
  0
VERTEX
  5
413
  8
LAYER1
 62
   178
 10
88.35214546666666
 20
105.8949327866667
 30
0.0
 70
    32
  0
VERTEX
  5
414
  8
LAYER1
 62
   178
 10
88.31925895624998
 20
105.885684245
 30
0.0
 70
    32
  0
VERTEX
  5
415
  8
LAYER1
 62
   178
 10
88.29475999999998
 20
105.870221
 30
0.0
 70
    32
  0
SEQEND
  5
416
  8
LAYER1
 62
   178
  0
POINT
  5
417
  8
DXF_HASE1_GUT_MODEL_EBENE_
 62
   178
 10
88.29475999999998
 20
105.870221
 30
0.0
  0
POLYLINE
  5
418
  8
LAYER1
 62
   178
 10
0.0
 20
0.0
 30
0.0
 66
     1
 70
     8
  0
VERTEX
  5
419
  8
LAYER1
 62
   178
 10
69.81625999999999
 20
105.774971
 30
0.0
 70
    32
  0
VERTEX
  5
41A
  8
LAYER1
 62
   178
 10
69.82217751439998
 20
105.75692099936
 30
0.0
 70
    32
  0
VERTEX
  5
41B
  8
LAYER1
 62
   178
 10
69.82511261284999
 20
105.74856229604
 30
0.0
 70
    32
  0
VERTEX
  5
41C
  8
LAYER1
 62
   178
 10
69.83092859374997
 20
105.733137275
 30
0.0
 70
    32
  0
VERTEX
  5
41D
  8
LAYER1
 62
   178
 10
69.84230505995001
 20
105.70723160828
 30
0.0
 70
    32
  0
VERTEX
  5
41E
  8
LAYER1
 62
   178
 10
69.86372695714999
 20
105.67339643996
 30
0.0
 70
    32
  0
VERTEX
  5
41F
  8
LAYER1
 62
   178
 10
69.88985165691459
 20
105.6596387156793
 30
0.0
 70
    32
  0
VERTEX
  5
420
  8
LAYER1
 62
   178
 10
69.89877418834998
 20
105.66322007324
 30
0.0
 70
    32
  0
VERTEX
  5
421
  8
LAYER1
 62
   178
 10
69.91871662595
 20
105.70225339868
 30
0.0
 70
    32
  0
VERTEX
  5
422
  8
LAYER1
 62
   178
 10
69.91639666666666
 20
105.7629256666667
 30
0.0
 70
    32
  0
VERTEX
  5
423
  8
LAYER1
 62
   178
 10
69.89885640987822
 20
105.7911033854205
 30
0.0
 70
    32
  0
VERTEX
  5
424
  8
LAYER1
 62
   178
 10
69.87364546666664
 20
105.7996827866667
 30
0.0
 70
    32
  0
VERTEX
  5
425
  8
LAYER1
 62
   178
 10
69.84075895624999
 20
105.790434245
 30
0.0
 70
    32
  0
VERTEX
  5
426
  8
LAYER1
 62
   178
 10
69.81625999999999
 20
105.774971
 30
0.0
 70
    32
  0
SEQEND
  5
427
  8
LAYER1
 62
   178
  0
POINT
  5
428
  8
DXF_HASE1_GUT_MODEL_EBENE_
 62
   178
 10
69.81625999999999
 20
105.774971
 30
0.0
  0
POLYLINE
  5
429
  8
LAYER1
 62
   178
 10
0.0
 20
0.0
 30
0.0
 66
     1
 70
     8
  0
VERTEX
  5
42A
  8
LAYER1
 62
   178
 10
86.96126000000002
 20
104.631971
 30
0.0
 70
    32
  0
VERTEX
  5
42B
  8
LAYER1
 62
   178
 10
86.96717751440002
 20
104.61392099936
 30
0.0
 70
    32
  0
VERTEX
  5
42C
  8
LAYER1
 62
   178
 10
86.97011261285002
 20
104.60556229604
 30
0.0
 70
    32
  0
VERTEX
  5
42D
  8
LAYER1
 62
   178
 10
86.97592859375001
 20
104.590137275
 30
0.0
 70
    32
  0
VERTEX
  5
42E
  8
LAYER1
 62
   178
 10
86.98730505995003
 20
104.56423160828
 30
0.0
 70
    32
  0
VERTEX
  5
42F
  8
LAYER1
 62
   178
 10
87.00872695715
 20
104.53039643996
 30
0.0
 70
    32
  0
VERTEX
  5
430
  8
LAYER1
 62
   178
 10
87.03485165691461
 20
104.5166387156793
 30
0.0
 70
    32
  0
VERTEX
  5
431
  8
LAYER1
 62
   178
 10
87.04377418835
 20
104.52022007324
 30
0.0
 70
    32
  0
VERTEX
  5
432
  8
LAYER1
 62
   178
 10
87.06371662595
 20
104.55925339868
 30
0.0
 70
    32
  0
VERTEX
  5
433
  8
LAYER1
 62
   178
 10
87.06139666666667
 20
104.6199256666667
 30
0.0
 70
    32
  0
VERTEX
  5
434
  8
LAYER1
 62
   178
 10
87.04385640987822
 20
104.6481033854205
 30
0.0
 70
    32
  0
VERTEX
  5
435
  8
LAYER1
 62
   178
 10
87.01864546666667
 20
104.6566827866667
 30
0.0
 70
    32
  0
VERTEX
  5
436
  8
LAYER1
 62
   178
 10
86.98575895625002
 20
104.647434245
 30
0.0
 70
    32
  0
VERTEX
  5
437
  8
LAYER1
 62
   178
 10
86.96126000000002
 20
104.631971
 30
0.0
 70
    32
  0
SEQEND
  5
438
  8
LAYER1
 62
   178
  0
POINT
  5
439
  8
DXF_HASE1_GUT_MODEL_EBENE_
 62
   178
 10
86.96126000000002
 20
104.631971
 30
0.0
  0
POLYLINE
  5
43A
  8
LAYER1
 62
   178
 10
0.0
 20
0.0
 30
0.0
 66
     1
 70
     8
  0
VERTEX
  5
43B
  8
LAYER1
 62
   178
 10
85.24676
 20
103.679471
 30
0.0
 70
    32
  0
VERTEX
  5
43C
  8
LAYER1
 62
   178
 10
85.25267751439998
 20
103.66142099936
 30
0.0
 70
    32
  0
VERTEX
  5
43D
  8
LAYER1
 62
   178
 10
85.25561261285
 20
103.65306229604
 30
0.0
 70
    32
  0
VERTEX
  5
43E
  8
LAYER1
 62
   178
 10
85.26142859374997
 20
103.637637275
 30
0.0
 70
    32
  0
VERTEX
  5
43F
  8
LAYER1
 62
   178
 10
85.27280505994999
 20
103.61173160828
 30
0.0
 70
    32
  0
VERTEX
  5
440
  8
LAYER1
 62
   178
 10
85.29422695714999
 20
103.57789643996
 30
0.0
 70
    32
  0
VERTEX
  5
441
  8
LAYER1
 62
   178
 10
85.32035165691462
 20
103.5641387156794
 30
0.0
 70
    32
  0
VERTEX
  5
442
  8
LAYER1
 62
   178
 10
85.32927418834998
 20
103.56772007324
 30
0.0
 70
    32
  0
VERTEX
  5
443
  8
LAYER1
 62
   178
 10
85.34921662594999
 20
103.60675339868
 30
0.0
 70
    32
  0
VERTEX
  5
444
  8
LAYER1
 62
   178
 10
85.34689666666665
 20
103.6674256666667
 30
0.0
 70
    32
  0
VERTEX
  5
445
  8
LAYER1
 62
   178
 10
85.32935640987819
 20
103.6956033854205
 30
0.0
 70
    32
  0
VERTEX
  5
446
  8
LAYER1
 62
   178
 10
85.30414546666667
 20
103.7041827866667
 30
0.0
 70
    32
  0
VERTEX
  5
447
  8
LAYER1
 62
   178
 10
85.27125895624998
 20
103.694934245
 30
0.0
 70
    32
  0
VERTEX
  5
448
  8
LAYER1
 62
   178
 10
85.24676
 20
103.679471
 30
0.0
 70
    32
  0
SEQEND
  5
449
  8
LAYER1
 62
   178
  0
POINT
  5
44A
  8
DXF_HASE1_GUT_MODEL_EBENE_
 62
   178
 10
85.24676
 20
103.679471
 30
0.0
  0
POLYLINE
  5
44B
  8
LAYER1
 62
   178
 10
0.0
 20
0.0
 30
0.0
 66
     1
 70
     8
  0
VERTEX
  5
44C
  8
LAYER1
 62
   178
 10
84.19901
 20
103.107971
 30
0.0
 70
    32
  0
VERTEX
  5
44D
  8
LAYER1
 62
   178
 10
84.2049275144
 20
103.08992099936
 30
0.0
 70
    32
  0
VERTEX
  5
44E
  8
LAYER1
 62
   178
 10
84.20786261285001
 20
103.08156229604
 30
0.0
 70
    32
  0
VERTEX
  5
44F
  8
LAYER1
 62
   178
 10
84.21367859374999
 20
103.066137275
 30
0.0
 70
    32
  0
VERTEX
  5
450
  8
LAYER1
 62
   178
 10
84.22505505995002
 20
103.0402316082801
 30
0.0
 70
    32
  0
VERTEX
  5
451
  8
LAYER1
 62
   178
 10
84.24647695715
 20
103.00639643996
 30
0.0
 70
    32
  0
VERTEX
  5
452
  8
LAYER1
 62
   178
 10
84.27260165691462
 20
102.9926387156794
 30
0.0
 70
    32
  0
VERTEX
  5
453
  8
LAYER1
 62
   178
 10
84.28152418834999
 20
102.99622007324
 30
0.0
 70
    32
  0
VERTEX
  5
454
  8
LAYER1
 62
   178
 10
84.30146662595
 20
103.03525339868
 30
0.0
 70
    32
  0
VERTEX
  5
455
  8
LAYER1
 62
   178
 10
84.29914666666666
 20
103.0959256666667
 30
0.0
 70
    32
  0
VERTEX
  5
456
  8
LAYER1
 62
   178
 10
84.28160640987821
 20
103.1241033854205
 30
0.0
 70
    32
  0
VERTEX
  5
457
  8
LAYER1
 62
   178
 10
84.25639546666666
 20
103.1326827866667
 30
0.0
 70
    32
  0
VERTEX
  5
458
  8
LAYER1
 62
   178
 10
84.22350895625
 20
103.123434245
 30
0.0
 70
    32
  0
VERTEX
  5
459
  8
LAYER1
 62
   178
 10
84.19901
 20
103.107971
 30
0.0
 70
    32
  0
SEQEND
  5
45A
  8
LAYER1
 62
   178
  0
POINT
  5
45B
  8
DXF_HASE1_GUT_MODEL_EBENE_
 62
   178
 10
84.19901
 20
103.107971
 30
0.0
  0
POLYLINE
  5
45C
  8
LAYER1
 62
   178
 10
0.0
 20
0.0
 30
0.0
 66
     1
 70
     8
  0
VERTEX
  5
45D
  8
LAYER1
 62
   178
 10
83.15126000000001
 20
102.726971
 30
0.0
 70
    32
  0
VERTEX
  5
45E
  8
LAYER1
 62
   178
 10
83.1571775144
 20
102.70892099936
 30
0.0
 70
    32
  0
VERTEX
  5
45F
  8
LAYER1
 62
   178
 10
83.16011261285001
 20
102.70056229604
 30
0.0
 70
    32
  0
VERTEX
  5
460
  8
LAYER1
 62
   178
 10
83.16592859375
 20
102.685137275
 30
0.0
 70
    32
  0
VERTEX
  5
461
  8
LAYER1
 62
   178
 10
83.17730505995002
 20
102.65923160828
 30
0.0
 70
    32
  0
VERTEX
  5
462
  8
LAYER1
 62
   178
 10
83.19872695714999
 20
102.62539643996
 30
0.0
 70
    32
  0
VERTEX
  5
463
  8
LAYER1
 62
   178
 10
83.2248516569146
 20
102.6116387156794
 30
0.0
 70
    32
  0
VERTEX
  5
464
  8
LAYER1
 62
   178
 10
83.23377418834997
 20
102.61522007324
 30
0.0
 70
    32
  0
VERTEX
  5
465
  8
LAYER1
 62
   178
 10
83.25371662594999
 20
102.65425339868
 30
0.0
 70
    32
  0
VERTEX
  5
466
  8
LAYER1
 62
   178
 10
83.25139666666666
 20
102.7149256666667
 30
0.0
 70
    32
  0
VERTEX
  5
467
  8
LAYER1
 62
   178
 10
83.23385640987819
 20
102.7431033854205
 30
0.0
 70
    32
  0
VERTEX
  5
468
  8
LAYER1
 62
   178
 10
83.20864546666668
 20
102.7516827866667
 30
0.0
 70
    32
  0
VERTEX
  5
469
  8
LAYER1
 62
   178
 10
83.17575895625001
 20
102.742434245
 30
0.0
 70
    32
  0
VERTEX
  5
46A
  8
LAYER1
 62
   178
 10
83.15126000000001
 20
102.726971
 30
0.0
 70
    32
  0
SEQEND
  5
46B
  8
LAYER1
 62
   178
  0
POINT
  5
46C
  8
DXF_HASE1_GUT_MODEL_EBENE_
 62
   178
 10
83.15126000000001
 20
102.726971
 30
0.0
  0
POLYLINE
  5
46D
  8
LAYER1
 62
   178
 10
0.0
 20
0.0
 30
0.0
 66
     1
 70
     8
  0
VERTEX
  5
46E
  8
LAYER1
 62
   178
 10
77.05526
 20
102.25072
 30
0.0
 70
    32
  0
VERTEX
  5
46F
  8
LAYER1
 62
   178
 10
77.0611775144
 20
102.23267005816
 30
0.0
 70
    32
  0
VERTEX
  5
470
  8
LAYER1
 62
   178
 10
77.06411261285
 20
102.22431138334
 30
0.0
 70
    32
  0
VERTEX
  5
471
  8
LAYER1
 62
   178
 10
77.06992859374999
 20
102.2088864175
 30
0.0
 70
    32
  0
VERTEX
  5
472
  8
LAYER1
 62
   178
 10
77.08130505995
 20
102.18298085398
 30
0.0
 70
    32
  0
VERTEX
  5
473
  8
LAYER1
 62
   178
 10
77.10272695715
 20
102.14914586326
 30
0.0
 70
    32
  0
VERTEX
  5
474
  8
LAYER1
 62
   178
 10
77.12885155801416
 20
102.1353883122056
 30
0.0
 70
    32
  0
VERTEX
  5
475
  8
LAYER1
 62
   178
 10
77.13777418834998
 20
102.13896973654
 30
0.0
 70
    32
  0
VERTEX
  5
476
  8
LAYER1
 62
   178
 10
77.15771662594999
 20
102.17800314838
 30
0.0
 70
    32
  0
VERTEX
  5
477
  8
LAYER1
 62
   178
 10
77.15539666666666
 20
102.2386753333333
 30
0.0
 70
    32
  0
VERTEX
  5
478
  8
LAYER1
 62
   178
 10
77.13785646962202
 20
102.2668528576234
 30
0.0
 70
    32
  0
VERTEX
  5
479
  8
LAYER1
 62
   178
 10
77.11264546666666
 20
102.2754321333334
 30
0.0
 70
    32
  0
VERTEX
  5
47A
  8
LAYER1
 62
   178
 10
77.07975895625
 20
102.2661833875
 30
0.0
 70
    32
  0
VERTEX
  5
47B
  8
LAYER1
 62
   178
 10
77.05526
 20
102.25072
 30
0.0
 70
    32
  0
SEQEND
  5
47C
  8
LAYER1
 62
   178
  0
POINT
  5
47D
  8
DXF_HASE1_GUT_MODEL_EBENE_
 62
   178
 10
77.05526
 20
102.25072
 30
0.0
  0
POLYLINE
  5
47E
  8
LAYER1
 62
   178
 10
0.0
 20
0.0
 30
0.0
 66
     1
 70
     8
  0
VERTEX
  5
47F
  8
LAYER1
 62
   178
 10
78.10301
 20
102.155471
 30
0.0
 70
    32
  0
VERTEX
  5
480
  8
LAYER1
 62
   178
 10
78.1089275144
 20
102.13742099936
 30
0.0
 70
    32
  0
VERTEX
  5
481
  8
LAYER1
 62
   178
 10
78.11186261284999
 20
102.12906229604
 30
0.0
 70
    32
  0
VERTEX
  5
482
  8
LAYER1
 62
   178
 10
78.11767859374999
 20
102.113637275
 30
0.0
 70
    32
  0
VERTEX
  5
483
  8
LAYER1
 62
   178
 10
78.12905505995
 20
102.08773160828
 30
0.0
 70
    32
  0
VERTEX
  5
484
  8
LAYER1
 62
   178
 10
78.15047695714999
 20
102.05389643996
 30
0.0
 70
    32
  0
VERTEX
  5
485
  8
LAYER1
 62
   178
 10
78.17660165691461
 20
102.0401387156793
 30
0.0
 70
    32
  0
VERTEX
  5
486
  8
LAYER1
 62
   178
 10
78.18552418834999
 20
102.04372007324
 30
0.0
 70
    32
  0
VERTEX
  5
487
  8
LAYER1
 62
   178
 10
78.20546662595001
 20
102.08275339868
 30
0.0
 70
    32
  0
VERTEX
  5
488
  8
LAYER1
 62
   178
 10
78.20314666666667
 20
102.1434256666667
 30
0.0
 70
    32
  0
VERTEX
  5
489
  8
LAYER1
 62
   178
 10
78.18560640987823
 20
102.1716033854205
 30
0.0
 70
    32
  0
VERTEX
  5
48A
  8
LAYER1
 62
   178
 10
78.16039546666667
 20
102.1801827866667
 30
0.0
 70
    32
  0
VERTEX
  5
48B
  8
LAYER1
 62
   178
 10
78.12750895625
 20
102.170934245
 30
0.0
 70
    32
  0
VERTEX
  5
48C
  8
LAYER1
 62
   178
 10
78.10301
 20
102.155471
 30
0.0
 70
    32
  0
SEQEND
  5
48D
  8
LAYER1
 62
   178
  0
POINT
  5
48E
  8
DXF_HASE1_GUT_MODEL_EBENE_
 62
   178
 10
78.10301
 20
102.155471
 30
0.0
  0
POLYLINE
  5
48F
  8
LAYER1
 62
   178
 10
0.0
 20
0.0
 30
0.0
 66
     1
 70
     8
  0
VERTEX
  5
490
  8
LAYER1
 62
   178
 10
15.523757
 20
100.631471
 30
0.0
 70
    32
  0
VERTEX
  5
491
  8
LAYER1
 62
   178
 10
15.529674339176
 20
100.61342099936
 30
0.0
 70
    32
  0
VERTEX
  5
492
  8
LAYER1
 62
   178
 10
15.532609353569
 20
100.60506229604
 30
0.0
 70
    32
  0
VERTEX
  5
493
  8
LAYER1
 62
   178
 10
15.538425173375
 20
100.589637275
 30
0.0
 70
    32
  0
VERTEX
  5
494
  8
LAYER1
 62
   178
 10
15.54980134496301
 20
100.56373160828
 30
0.0
 70
    32
  0
VERTEX
  5
495
  8
LAYER1
 62
   178
 10
15.571222759211
 20
100.52989643996
 30
0.0
 70
    32
  0
VERTEX
  5
496
  8
LAYER1
 62
   178
 10
15.59734686456301
 20
100.5161386981789
 30
0.0
 70
    32
  0
VERTEX
  5
497
  8
LAYER1
 62
   178
 10
15.606269417339
 20
100.51972007324
 30
0.0
 70
    32
  0
VERTEX
  5
498
  8
LAYER1
 62
   178
 10
15.626211744203
 20
100.55875339868
 30
0.0
 70
    32
  0
VERTEX
  5
499
  8
LAYER1
 62
   178
 10
15.62389211111111
 20
100.6194256666667
 30
0.0
 70
    32
  0
VERTEX
  5
49A
  8
LAYER1
 62
   178
 10
15.60635191695159
 20
100.6476036575316
 30
0.0
 70
    32
  0
VERTEX
  5
49B
  8
LAYER1
 62
   178
 10
15.58114172711111
 20
100.6561827866666
 30
0.0
 70
    32
  0
VERTEX
  5
49C
  8
LAYER1
 62
   178
 10
15.548255664125
 20
100.646934245
 30
0.0
 70
    32
  0
VERTEX
  5
49D
  8
LAYER1
 62
   178
 10
15.523757
 20
100.631471
 30
0.0
 70
    32
  0
SEQEND
  5
49E
  8
LAYER1
 62
   178
  0
POINT
  5
49F
  8
DXF_HASE1_GUT_MODEL_EBENE_
 62
   178
 10
15.523757
 20
100.631471
 30
0.0
  0
POLYLINE
  5
4A0
  8
LAYER1
 62
   178
 10
0.0
 20
0.0
 30
0.0
 66
     1
 70
     8
  0
VERTEX
  5
4A1
  8
LAYER1
 62
   178
 10
16.857257
 20
96.05947099999999
 30
0.0
 70
    32
  0
VERTEX
  5
4A2
  8
LAYER1
 62
   178
 10
16.863174339176
 20
96.04142099935999
 30
0.0
 70
    32
  0
VERTEX
  5
4A3
  8
LAYER1
 62
   178
 10
16.866109353569
 20
96.03306229604
 30
0.0
 70
    32
  0
VERTEX
  5
4A4
  8
LAYER1
 62
   178
 10
16.871925173375
 20
96.01763727499997
 30
0.0
 70
    32
  0
VERTEX
  5
4A5
  8
LAYER1
 62
   178
 10
16.88330134496301
 20
95.99173160828
 30
0.0
 70
    32
  0
VERTEX
  5
4A6
  8
LAYER1
 62
   178
 10
16.904722759211
 20
95.95789643995997
 30
0.0
 70
    32
  0
VERTEX
  5
4A7
  8
LAYER1
 62
   178
 10
16.93084686456301
 20
95.94413869817895
 30
0.0
 70
    32
  0
VERTEX
  5
4A8
  8
LAYER1
 62
   178
 10
16.939769417339
 20
95.94772007323999
 30
0.0
 70
    32
  0
VERTEX
  5
4A9
  8
LAYER1
 62
   178
 10
16.959711744203
 20
95.98675339868001
 30
0.0
 70
    32
  0
VERTEX
  5
4AA
  8
LAYER1
 62
   178
 10
16.95739211111111
 20
96.04742566666667
 30
0.0
 70
    32
  0
VERTEX
  5
4AB
  8
LAYER1
 62
   178
 10
16.93985191695159
 20
96.07560365753164
 30
0.0
 70
    32
  0
VERTEX
  5
4AC
  8
LAYER1
 62
   178
 10
16.91464172711111
 20
96.08418278666664
 30
0.0
 70
    32
  0
VERTEX
  5
4AD
  8
LAYER1
 62
   178
 10
16.881755664125
 20
96.074934245
 30
0.0
 70
    32
  0
VERTEX
  5
4AE
  8
LAYER1
 62
   178
 10
16.857257
 20
96.05947099999999
 30
0.0
 70
    32
  0
SEQEND
  5
4AF
  8
LAYER1
 62
   178
  0
POINT
  5
4B0
  8
DXF_HASE1_GUT_MODEL_EBENE_
 62
   178
 10
16.857257
 20
96.05947099999999
 30
0.0
  0
POLYLINE
  5
4B1
  8
LAYER1
 62
   178
 10
0.0
 20
0.0
 30
0.0
 66
     1
 70
     8
  0
VERTEX
  5
4B2
  8
LAYER1
 62
   178
 10
42.28900699999998
 20
90.820721
 30
0.0
 70
    32
  0
VERTEX
  5
4B3
  8
LAYER1
 62
   178
 10
42.29492433917596
 20
90.80267099935999
 30
0.0
 70
    32
  0
VERTEX
  5
4B4
  8
LAYER1
 62
   178
 10
42.29785935356897
 20
90.79431229604002
 30
0.0
 70
    32
  0
VERTEX
  5
4B5
  8
LAYER1
 62
   178
 10
42.30367517337498
 20
90.77888727499999
 30
0.0
 70
    32
  0
VERTEX
  5
4B6
  8
LAYER1
 62
   178
 10
42.31505134496299
 20
90.75298160828
 30
0.0
 70
    32
  0
VERTEX
  5
4B7
  8
LAYER1
 62
   178
 10
42.33647275921098
 20
90.71914643995999
 30
0.0
 70
    32
  0
VERTEX
  5
4B8
  8
LAYER1
 62
   178
 10
42.36259686456299
 20
90.70538869817894
 30
0.0
 70
    32
  0
VERTEX
  5
4B9
  8
LAYER1
 62
   178
 10
42.37151941733898
 20
90.70897007323998
 30
0.0
 70
    32
  0
VERTEX
  5
4BA
  8
LAYER1
 62
   178
 10
42.39146174420299
 20
90.74800339868
 30
0.0
 70
    32
  0
VERTEX
  5
4BB
  8
LAYER1
 62
   178
 10
42.3891421111111
 20
90.80867566666666
 30
0.0
 70
    32
  0
VERTEX
  5
4BC
  8
LAYER1
 62
   178
 10
42.37160191695156
 20
90.83685365753165
 30
0.0
 70
    32
  0
VERTEX
  5
4BD
  8
LAYER1
 62
   178
 10
42.34639172711108
 20
90.84543278666666
 30
0.0
 70
    32
  0
VERTEX
  5
4BE
  8
LAYER1
 62
   178
 10
42.31350566412497
 20
90.83618424500001
 30
0.0
 70
    32
  0
VERTEX
  5
4BF
  8
LAYER1
 62
   178
 10
42.28900699999998
 20
90.820721
 30
0.0
 70
    32
  0
SEQEND
  5
4C0
  8
LAYER1
 62
   178
  0
POINT
  5
4C1
  8
DXF_HASE1_GUT_MODEL_EBENE_
 62
   178
 10
42.28900699999998
 20
90.820721
 30
0.0
  0
POLYLINE
  5
4C2
  8
LAYER1
 62
   178
 10
0.0
 20
0.0
 30
0.0
 66
     1
 70
     8
  0
VERTEX
  5
4C3
  8
LAYER1
 62
   178
 10
42.00325699999998
 20
89.677721
 30
0.0
 70
    32
  0
VERTEX
  5
4C4
  8
LAYER1
 62
   178
 10
42.00917433917599
 20
89.65967099936002
 30
0.0
 70
    32
  0
VERTEX
  5
4C5
  8
LAYER1
 62
   178
 10
42.01210935356898
 20
89.65131229603999
 30
0.0
 70
    32
  0
VERTEX
  5
4C6
  8
LAYER1
 62
   178
 10
42.01792517337498
 20
89.63588727499999
 30
0.0
 70
    32
  0
VERTEX
  5
4C7
  8
LAYER1
 62
   178
 10
42.02930134496299
 20
89.60998160828001
 30
0.0
 70
    32
  0
VERTEX
  5
4C8
  8
LAYER1
 62
   178
 10
42.05072275921098
 20
89.57614643995998
 30
0.0
 70
    32
  0
VERTEX
  5
4C9
  8
LAYER1
 62
   178
 10
42.076846864563
 20
89.56238869817892
 30
0.0
 70
    32
  0
VERTEX
  5
4CA
  8
LAYER1
 62
   178
 10
42.08576941733898
 20
89.56597007323998
 30
0.0
 70
    32
  0
VERTEX
  5
4CB
  8
LAYER1
 62
   178
 10
42.10571174420298
 20
89.60500339867998
 30
0.0
 70
    32
  0
VERTEX
  5
4CC
  8
LAYER1
 62
   178
 10
42.1033921111111
 20
89.66567566666666
 30
0.0
 70
    32
  0
VERTEX
  5
4CD
  8
LAYER1
 62
   178
 10
42.08585191695157
 20
89.69385365753163
 30
0.0
 70
    32
  0
VERTEX
  5
4CE
  8
LAYER1
 62
   178
 10
42.06064172711109
 20
89.70243278666666
 30
0.0
 70
    32
  0
VERTEX
  5
4CF
  8
LAYER1
 62
   178
 10
42.02775566412497
 20
89.69318424499998
 30
0.0
 70
    32
  0
VERTEX
  5
4D0
  8
LAYER1
 62
   178
 10
42.00325699999998
 20
89.677721
 30
0.0
 70
    32
  0
SEQEND
  5
4D1
  8
LAYER1
 62
   178
  0
POINT
  5
4D2
  8
DXF_HASE1_GUT_MODEL_EBENE_
 62
   178
 10
42.00325699999998
 20
89.677721
 30
0.0
  0
POLYLINE
  5
4D3
  8
LAYER1
 62
   178
 10
0.0
 20
0.0
 30
0.0
 66
     1
 70
     8
  0
VERTEX
  5
4D4
  8
LAYER1
 62
   178
 10
41.71750699999998
 20
88.72522099999998
 30
0.0
 70
    32
  0
VERTEX
  5
4D5
  8
LAYER1
 62
   178
 10
41.72342433917598
 20
88.70717099935997
 30
0.0
 70
    32
  0
VERTEX
  5
4D6
  8
LAYER1
 62
   178
 10
41.72635935356898
 20
88.69881229603999
 30
0.0
 70
    32
  0
VERTEX
  5
4D7
  8
LAYER1
 62
   178
 10
41.73217517337497
 20
88.68338727499997
 30
0.0
 70
    32
  0
VERTEX
  5
4D8
  8
LAYER1
 62
   178
 10
41.74355134496298
 20
88.65748160828
 30
0.0
 70
    32
  0
VERTEX
  5
4D9
  8
LAYER1
 62
   178
 10
41.76497275921098
 20
88.62364643995998
 30
0.0
 70
    32
  0
VERTEX
  5
4DA
  8
LAYER1
 62
   178
 10
41.791096864563
 20
88.60988869817893
 30
0.0
 70
    32
  0
VERTEX
  5
4DB
  8
LAYER1
 62
   178
 10
41.80001941733898
 20
88.61347007323997
 30
0.0
 70
    32
  0
VERTEX
  5
4DC
  8
LAYER1
 62
   178
 10
41.81996174420298
 20
88.65250339867998
 30
0.0
 70
    32
  0
VERTEX
  5
4DD
  8
LAYER1
 62
   178
 10
41.8176421111111
 20
88.71317566666667
 30
0.0
 70
    32
  0
VERTEX
  5
4DE
  8
LAYER1
 62
   178
 10
41.80010191695156
 20
88.74135365753163
 30
0.0
 70
    32
  0
VERTEX
  5
4DF
  8
LAYER1
 62
   178
 10
41.77489172711109
 20
88.74993278666665
 30
0.0
 70
    32
  0
VERTEX
  5
4E0
  8
LAYER1
 62
   178
 10
41.74200566412498
 20
88.74068424499998
 30
0.0
 70
    32
  0
VERTEX
  5
4E1
  8
LAYER1
 62
   178
 10
41.71750699999998
 20
88.72522099999998
 30
0.0
 70
    32
  0
SEQEND
  5
4E2
  8
LAYER1
 62
   178
  0
POINT
  5
4E3
  8
DXF_HASE1_GUT_MODEL_EBENE_
 62
   178
 10
41.71750699999998
 20
88.72522099999998
 30
0.0
  0
POLYLINE
  5
4E4
  8
LAYER1
 62
   178
 10
0.0
 20
0.0
 30
0.0
 66
     1
 70
     8
  0
VERTEX
  5
4E5
  8
LAYER1
 62
   178
 10
38.193257
 20
80.72422099999999
 30
0.0
 70
    32
  0
VERTEX
  5
4E6
  8
LAYER1
 62
   178
 10
38.19917433917601
 20
80.70617099935998
 30
0.0
 70
    32
  0
VERTEX
  5
4E7
  8
LAYER1
 62
   178
 10
38.20210935356899
 20
80.69781229603998
 30
0.0
 70
    32
  0
VERTEX
  5
4E8
  8
LAYER1
 62
   178
 10
38.207925173375
 20
80.68238727499998
 30
0.0
 70
    32
  0
VERTEX
  5
4E9
  8
LAYER1
 62
   178
 10
38.21930134496301
 20
80.65648160828
 30
0.0
 70
    32
  0
VERTEX
  5
4EA
  8
LAYER1
 62
   178
 10
38.240722759211
 20
80.62264643996
 30
0.0
 70
    32
  0
VERTEX
  5
4EB
  8
LAYER1
 62
   178
 10
38.26684686456299
 20
80.60888869817892
 30
0.0
 70
    32
  0
VERTEX
  5
4EC
  8
LAYER1
 62
   178
 10
38.27576941733899
 20
80.61247007323999
 30
0.0
 70
    32
  0
VERTEX
  5
4ED
  8
LAYER1
 62
   178
 10
38.295711744203
 20
80.65150339868
 30
0.0
 70
    32
  0
VERTEX
  5
4EE
  8
LAYER1
 62
   178
 10
38.2933921111111
 20
80.71217566666667
 30
0.0
 70
    32
  0
VERTEX
  5
4EF
  8
LAYER1
 62
   178
 10
38.27585191695158
 20
80.74035365753166
 30
0.0
 70
    32
  0
VERTEX
  5
4F0
  8
LAYER1
 62
   178
 10
38.25064172711112
 20
80.74893278666666
 30
0.0
 70
    32
  0
VERTEX
  5
4F1
  8
LAYER1
 62
   178
 10
38.217755664125
 20
80.73968424499999
 30
0.0
 70
    32
  0
VERTEX
  5
4F2
  8
LAYER1
 62
   178
 10
38.193257
 20
80.72422099999999
 30
0.0
 70
    32
  0
SEQEND
  5
4F3
  8
LAYER1
 62
   178
  0
POINT
  5
4F4
  8
DXF_HASE1_GUT_MODEL_EBENE_
 62
   178
 10
38.193257
 20
80.72422099999999
 30
0.0
  0
POLYLINE
  5
4F5
  8
LAYER1
 62
   178
 10
0.0
 20
0.0
 30
0.0
 66
     1
 70
     8
  0
VERTEX
  5
4F6
  8
LAYER1
 62
   178
 10
38.288507
 20
80.247971
 30
0.0
 70
    32
  0
VERTEX
  5
4F7
  8
LAYER1
 62
   178
 10
38.29442433917601
 20
80.22992099935999
 30
0.0
 70
    32
  0
VERTEX
  5
4F8
  8
LAYER1
 62
   178
 10
38.297359353569
 20
80.22156229604002
 30
0.0
 70
    32
  0
VERTEX
  5
4F9
  8
LAYER1
 62
   178
 10
38.303175173375
 20
80.20613727499999
 30
0.0
 70
    32
  0
VERTEX
  5
4FA
  8
LAYER1
 62
   178
 10
38.314551344963
 20
80.18023160828001
 30
0.0
 70
    32
  0
VERTEX
  5
4FB
  8
LAYER1
 62
   178
 10
38.335972759211
 20
80.14639643996
 30
0.0
 70
    32
  0
VERTEX
  5
4FC
  8
LAYER1
 62
   178
 10
38.36209686456301
 20
80.13263869817894
 30
0.0
 70
    32
  0
VERTEX
  5
4FD
  8
LAYER1
 62
   178
 10
38.37101941733899
 20
80.13622007323998
 30
0.0
 70
    32
  0
VERTEX
  5
4FE
  8
LAYER1
 62
   178
 10
38.390961744203
 20
80.17525339867998
 30
0.0
 70
    32
  0
VERTEX
  5
4FF
  8
LAYER1
 62
   178
 10
38.38864211111111
 20
80.23592566666666
 30
0.0
 70
    32
  0
VERTEX
  5
500
  8
LAYER1
 62
   178
 10
38.37110191695158
 20
80.26410365753165
 30
0.0
 70
    32
  0
VERTEX
  5
501
  8
LAYER1
 62
   178
 10
38.34589172711112
 20
80.27268278666666
 30
0.0
 70
    32
  0
VERTEX
  5
502
  8
LAYER1
 62
   178
 10
38.31300566412501
 20
80.26343424500001
 30
0.0
 70
    32
  0
VERTEX
  5
503
  8
LAYER1
 62
   178
 10
38.288507
 20
80.247971
 30
0.0
 70
    32
  0
SEQEND
  5
504
  8
LAYER1
 62
   178
  0
POINT
  5
505
  8
DXF_HASE1_GUT_MODEL_EBENE_
 62
   178
 10
38.288507
 20
80.247971
 30
0.0
  0
POLYLINE
  5
506
  8
LAYER1
 62
   178
 10
0.0
 20
0.0
 30
0.0
 66
     1
 70
     8
  0
VERTEX
  5
507
  8
LAYER1
 62
   178
 10
56.38600999999999
 20
71.19922099999998
 30
0.0
 70
    32
  0
VERTEX
  5
508
  8
LAYER1
 62
   178
 10
56.39192751439998
 20
71.18117099935998
 30
0.0
 70
    32
  0
VERTEX
  5
509
  8
LAYER1
 62
   178
 10
56.39486261284998
 20
71.17281229604
 30
0.0
 70
    32
  0
VERTEX
  5
50A
  8
LAYER1
 62
   178
 10
56.40067859374999
 20
71.15738727499998
 30
0.0
 70
    32
  0
VERTEX
  5
50B
  8
LAYER1
 62
   178
 10
56.41205505995001
 20
71.13148160828
 30
0.0
 70
    32
  0
VERTEX
  5
50C
  8
LAYER1
 62
   178
 10
56.43347695714999
 20
71.09764643995999
 30
0.0
 70
    32
  0
VERTEX
  5
50D
  8
LAYER1
 62
   178
 10
56.4596016569146
 20
71.08388871567932
 30
0.0
 70
    32
  0
VERTEX
  5
50E
  8
LAYER1
 62
   178
 10
56.46852418834998
 20
71.08747007324
 30
0.0
 70
    32
  0
VERTEX
  5
50F
  8
LAYER1
 62
   178
 10
56.48846662595
 20
71.12650339868
 30
0.0
 70
    32
  0
VERTEX
  5
510
  8
LAYER1
 62
   178
 10
56.48614666666666
 20
71.18717566666668
 30
0.0
 70
    32
  0
VERTEX
  5
511
  8
LAYER1
 62
   178
 10
56.46860640987821
 20
71.21535338542049
 30
0.0
 70
    32
  0
VERTEX
  5
512
  8
LAYER1
 62
   178
 10
56.44339546666666
 20
71.22393278666667
 30
0.0
 70
    32
  0
VERTEX
  5
513
  8
LAYER1
 62
   178
 10
56.41050895624998
 20
71.21468424499999
 30
0.0
 70
    32
  0
VERTEX
  5
514
  8
LAYER1
 62
   178
 10
56.38600999999999
 20
71.19922099999998
 30
0.0
 70
    32
  0
SEQEND
  5
515
  8
LAYER1
 62
   178
  0
POINT
  5
516
  8
DXF_HASE1_GUT_MODEL_EBENE_
 62
   178
 10
56.38600999999999
 20
71.19922099999998
 30
0.0
  0
POLYLINE
  5
517
  8
LAYER1
 62
   178
 10
0.0
 20
0.0
 30
0.0
 66
     1
 70
     8
  0
VERTEX
  5
518
  8
LAYER1
 62
   178
 10
61.43426
 20
39.86197100000001
 30
0.0
 70
    32
  0
VERTEX
  5
519
  8
LAYER1
 62
   178
 10
61.44017751440001
 20
39.84392099936001
 30
0.0
 70
    32
  0
VERTEX
  5
51A
  8
LAYER1
 62
   178
 10
61.44311261285
 20
39.83556229604001
 30
0.0
 70
    32
  0
VERTEX
  5
51B
  8
LAYER1
 62
   178
 10
61.44892859374998
 20
39.82013727500001
 30
0.0
 70
    32
  0
VERTEX
  5
51C
  8
LAYER1
 62
   178
 10
61.46030505995
 20
39.79423160828001
 30
0.0
 70
    32
  0
VERTEX
  5
51D
  8
LAYER1
 62
   178
 10
61.48172695714999
 20
39.76039643996001
 30
0.0
 70
    32
  0
VERTEX
  5
51E
  8
LAYER1
 62
   178
 10
61.5078516569146
 20
39.74663871567935
 30
0.0
 70
    32
  0
VERTEX
  5
51F
  8
LAYER1
 62
   178
 10
61.51677418834998
 20
39.75022007324002
 30
0.0
 70
    32
  0
VERTEX
  5
520
  8
LAYER1
 62
   178
 10
61.53671662594999
 20
39.78925339868001
 30
0.0
 70
    32
  0
VERTEX
  5
521
  8
LAYER1
 62
   178
 10
61.53439666666667
 20
39.84992566666668
 30
0.0
 70
    32
  0
VERTEX
  5
522
  8
LAYER1
 62
   178
 10
61.51685640987822
 20
39.87810338542051
 30
0.0
 70
    32
  0
VERTEX
  5
523
  8
LAYER1
 62
   178
 10
61.49164546666667
 20
39.88668278666668
 30
0.0
 70
    32
  0
VERTEX
  5
524
  8
LAYER1
 62
   178
 10
61.45875895625
 20
39.87743424500002
 30
0.0
 70
    32
  0
VERTEX
  5
525
  8
LAYER1
 62
   178
 10
61.43426
 20
39.86197100000001
 30
0.0
 70
    32
  0
SEQEND
  5
526
  8
LAYER1
 62
   178
  0
POINT
  5
527
  8
DXF_HASE1_GUT_MODEL_EBENE_
 62
   178
 10
61.43426
 20
39.86197100000001
 30
0.0
  0
POLYLINE
  5
528
  8
LAYER1
 62
   178
 10
0.0
 20
0.0
 30
0.0
 66
     1
 70
     8
  0
VERTEX
  5
529
  8
LAYER1
 62
   178
 10
61.81525999999999
 20
39.29047100000001
 30
0.0
 70
    32
  0
VERTEX
  5
52A
  8
LAYER1
 62
   178
 10
61.8211775144
 20
39.27242099936001
 30
0.0
 70
    32
  0
VERTEX
  5
52B
  8
LAYER1
 62
   178
 10
61.82411261284999
 20
39.26406229604
 30
0.0
 70
    32
  0
VERTEX
  5
52C
  8
LAYER1
 62
   178
 10
61.82992859374998
 20
39.24863727500001
 30
0.0
 70
    32
  0
VERTEX
  5
52D
  8
LAYER1
 62
   178
 10
61.84130505995
 20
39.22273160828001
 30
0.0
 70
    32
  0
VERTEX
  5
52E
  8
LAYER1
 62
   178
 10
61.86272695714999
 20
39.18889643996001
 30
0.0
 70
    32
  0
VERTEX
  5
52F
  8
LAYER1
 62
   178
 10
61.8888516569146
 20
39.17513871567935
 30
0.0
 70
    32
  0
VERTEX
  5
530
  8
LAYER1
 62
   178
 10
61.89777418834998
 20
39.17872007324001
 30
0.0
 70
    32
  0
VERTEX
  5
531
  8
LAYER1
 62
   178
 10
61.91771662594999
 20
39.21775339868001
 30
0.0
 70
    32
  0
VERTEX
  5
532
  8
LAYER1
 62
   178
 10
61.91539666666666
 20
39.27842566666668
 30
0.0
 70
    32
  0
VERTEX
  5
533
  8
LAYER1
 62
   178
 10
61.89785640987822
 20
39.30660338542051
 30
0.0
 70
    32
  0
VERTEX
  5
534
  8
LAYER1
 62
   178
 10
61.87264546666666
 20
39.31518278666668
 30
0.0
 70
    32
  0
VERTEX
  5
535
  8
LAYER1
 62
   178
 10
61.83975895624999
 20
39.30593424500001
 30
0.0
 70
    32
  0
VERTEX
  5
536
  8
LAYER1
 62
   178
 10
61.81525999999999
 20
39.29047100000001
 30
0.0
 70
    32
  0
SEQEND
  5
537
  8
LAYER1
 62
   178
  0
POINT
  5
538
  8
DXF_HASE1_GUT_MODEL_EBENE_
 62
   178
 10
61.81525999999999
 20
39.29047100000001
 30
0.0
  0
POLYLINE
  5
539
  8
LAYER1
 62
   178
 10
0.0
 20
0.0
 30
0.0
 66
     1
 70
     8
  0
VERTEX
  5
53A
  8
LAYER1
 62
   178
 10
18.667007
 20
38.14747100000001
 30
0.0
 70
    32
  0
VERTEX
  5
53B
  8
LAYER1
 62
   178
 10
18.672924339176
 20
38.12942099936001
 30
0.0
 70
    32
  0
VERTEX
  5
53C
  8
LAYER1
 62
   178
 10
18.675859353569
 20
38.12106229604001
 30
0.0
 70
    32
  0
VERTEX
  5
53D
  8
LAYER1
 62
   178
 10
18.681675173375
 20
38.10563727500001
 30
0.0
 70
    32
  0
VERTEX
  5
53E
  8
LAYER1
 62
   178
 10
18.693051344963
 20
38.07973160828001
 30
0.0
 70
    32
  0
VERTEX
  5
53F
  8
LAYER1
 62
   178
 10
18.71447275921101
 20
38.04589643996001
 30
0.0
 70
    32
  0
VERTEX
  5
540
  8
LAYER1
 62
   178
 10
18.74059686456301
 20
38.03213869817895
 30
0.0
 70
    32
  0
VERTEX
  5
541
  8
LAYER1
 62
   178
 10
18.749519417339
 20
38.03572007324001
 30
0.0
 70
    32
  0
VERTEX
  5
542
  8
LAYER1
 62
   178
 10
18.76946174420301
 20
38.07475339868001
 30
0.0
 70
    32
  0
VERTEX
  5
543
  8
LAYER1
 62
   178
 10
18.76714211111112
 20
38.13542566666668
 30
0.0
 70
    32
  0
VERTEX
  5
544
  8
LAYER1
 62
   178
 10
18.74960191695159
 20
38.16360365753167
 30
0.0
 70
    32
  0
VERTEX
  5
545
  8
LAYER1
 62
   178
 10
18.72439172711112
 20
38.17218278666668
 30
0.0
 70
    32
  0
VERTEX
  5
546
  8
LAYER1
 62
   178
 10
18.691505664125
 20
38.16293424500001
 30
0.0
 70
    32
  0
VERTEX
  5
547
  8
LAYER1
 62
   178
 10
18.667007
 20
38.14747100000001
 30
0.0
 70
    32
  0
SEQEND
  5
548
  8
LAYER1
 62
   178
  0
POINT
  5
549
  8
DXF_HASE1_GUT_MODEL_EBENE_
 62
   178
 10
18.667007
 20
38.14747100000001
 30
0.0
  0
POLYLINE
  5
54A
  8
LAYER1
 62
   178
 10
0.0
 20
0.0
 30
0.0
 66
     1
 70
     8
  0
VERTEX
  5
54B
  8
LAYER1
 62
   178
 10
13.523507
 20
32.52772100000001
 30
0.0
 70
    32
  0
VERTEX
  5
54C
  8
LAYER1
 62
   178
 10
13.529424339176
 20
32.50967099936001
 30
0.0
 70
    32
  0
VERTEX
  5
54D
  8
LAYER1
 62
   178
 10
13.532359353569
 20
32.50131229604001
 30
0.0
 70
    32
  0
VERTEX
  5
54E
  8
LAYER1
 62
   178
 10
13.538175173375
 20
32.485887275
 30
0.0
 70
    32
  0
VERTEX
  5
54F
  8
LAYER1
 62
   178
 10
13.549551344963
 20
32.45998160828001
 30
0.0
 70
    32
  0
VERTEX
  5
550
  8
LAYER1
 62
   178
 10
13.570972759211
 20
32.42614643996001
 30
0.0
 70
    32
  0
VERTEX
  5
551
  8
LAYER1
 62
   178
 10
13.59709686456301
 20
32.41238869817894
 30
0.0
 70
    32
  0
VERTEX
  5
552
  8
LAYER1
 62
   178
 10
13.606019417339
 20
32.41597007324
 30
0.0
 70
    32
  0
VERTEX
  5
553
  8
LAYER1
 62
   178
 10
13.625961744203
 20
32.45500339868001
 30
0.0
 70
    32
  0
VERTEX
  5
554
  8
LAYER1
 62
   178
 10
13.62364211111111
 20
32.51567566666667
 30
0.0
 70
    32
  0
VERTEX
  5
555
  8
LAYER1
 62
   178
 10
13.60610191695158
 20
32.54385365753166
 30
0.0
 70
    32
  0
VERTEX
  5
556
  8
LAYER1
 62
   178
 10
13.58089172711111
 20
32.55243278666667
 30
0.0
 70
    32
  0
VERTEX
  5
557
  8
LAYER1
 62
   178
 10
13.548005664125
 20
32.54318424500001
 30
0.0
 70
    32
  0
VERTEX
  5
558
  8
LAYER1
 62
   178
 10
13.523507
 20
32.52772100000001
 30
0.0
 70
    32
  0
SEQEND
  5
559
  8
LAYER1
 62
   178
  0
POINT
  5
55A
  8
DXF_HASE1_GUT_MODEL_EBENE_
 62
   178
 10
13.523507
 20
32.52772100000001
 30
0.0
  0
LINE
  5
55B
  8
LAYER1
 62
   178
 10
6.000000000000003
 20
0.0
 30
0.0
 11
66.00000000000003
 21
0.0
 31
0.0
  0
ENDSEC
  0
EOF
