  0
SECTION
  2
HEADER
  9
$ACADVER
  1
AC1009
  9
$DWGCODEPAGE
  3
mac-roman
  9
$INSBASE
 10
0.0
 20
0.0
 30
0.0
  9
$EXTMIN
 10
0.0
 20
0.0
 30
0.0
  9
$EXTMAX
 10
127.7302364349365
 20
233.5437631607056
 30
45.88051318576042
  9
$LIMMIN
 10
0.0
 20
0.0
  9
$LIMMAX
 10
420.0
 20
297.0
  9
$ORTHOMODE
 70
     0
  9
$REGENMODE
 70
     1
  9
$FILLMODE
 70
     1
  9
$QTEXTMODE
 70
     0
  9
$MIRRTEXT
 70
     1
  9
$DRAGMODE
 70
     2
  9
$LTSCALE
 40
1.0
  9
$OSMODE
 70
    37
  9
$ATTMODE
 70
     1
  9
$TEXTSIZE
 40
2.5
  9
$TRACEWID
 40
1.0
  9
$TEXTSTYLE
  7
STANDARD
  9
$CLAYER
  8
0
  9
$CELTYPE
  6
BYLAYER
  9
$CECOLOR
 62
   256
  9
$DIMSCALE
 40
1.0
  9
$DIMASZ
 40
2.5
  9
$DIMEXO
 40
0.625
  9
$DIMDLI
 40
3.75
  9
$DIMRND
 40
0.0
  9
$DIMDLE
 40
0.0
  9
$DIMEXE
 40
1.25
  9
$DIMTP
 40
0.0
  9
$DIMTM
 40
0.0
  9
$DIMTXT
 40
2.5
  9
$DIMCEN
 40
2.5
  9
$DIMTSZ
 40
0.0
  9
$DIMTOL
 70
     0
  9
$DIMLIM
 70
     0
  9
$DIMTIH
 70
     0
  9
$DIMTOH
 70
     0
  9
$DIMSE1
 70
     0
  9
$DIMSE2
 70
     0
  9
$DIMTAD
 70
     1
  9
$DIMZIN
 70
     8
  9
$DIMBLK
  1

  9
$DIMASO
 70
     1
  9
$DIMSHO
 70
     1
  9
$DIMPOST
  1

  9
$DIMAPOST
  1

  9
$DIMALT
 70
     0
  9
$DIMALTD
 70
     3
  9
$DIMALTF
 40
0.03937007874016
  9
$DIMLFAC
 40
1.0
  9
$DIMTOFL
 70
     1
  9
$DIMTVP
 40
0.0
  9
$DIMTIX
 70
     0
  9
$DIMSOXD
 70
     0
  9
$DIMSAH
 70
     0
  9
$DIMBLK1
  1

  9
$DIMBLK2
  1

  9
$DIMSTYLE
  2
ISO-25
  9
$DIMCLRD
 70
     0
  9
$DIMCLRE
 70
     0
  9
$DIMCLRT
 70
     0
  9
$DIMTFAC
 40
1.0
  9
$DIMGAP
 40
0.625
  9
$LUNITS
 70
     2
  9
$LUPREC
 70
     4
  9
$SKETCHINC
 40
1.0
  9
$FILLETRAD
 40
10.0
  9
$AUNITS
 70
     0
  9
$AUPREC
 70
     0
  9
$MENU
  1
.
  9
$ELEVATION
 40
0.0
  9
$PELEVATION
 40
0.0
  9
$THICKNESS
 40
0.0
  9
$LIMCHECK
 70
     0
  9
$CHAMFERA
 40
0.0
  9
$CHAMFERB
 40
0.0
  9
$SKPOLY
 70
     0
  9
$TDCREATE
 40
1800759.589444445
  9
$TDUPDATE
 40
2458196.54778669
  9
$TDINDWG
 40
0.0000000116
  9
$TDUSRTIMER
 40
0.0000000116
  9
$USRTIMER
 70
     1
  9
$ANGBASE
 50
0.0
  9
$ANGDIR
 70
     0
  9
$PDMODE
 70
     0
  9
$PDSIZE
 40
0.0
  9
$PLINEWID
 40
0.0
  9
$COORDS
 70
     1
  9
$SPLFRAME
 70
     0
  9
$SPLINETYPE
 70
     6
  9
$SPLINESEGS
 70
     8
  9
$ATTDIA
 70
     0
  9
$ATTREQ
 70
     1
  9
$HANDLING
 70
     1
  9
$HANDSEED
  5
3E9
  9
$SURFTAB1
 70
     6
  9
$SURFTAB2
 70
     6
  9
$SURFTYPE
 70
     6
  9
$SURFU
 70
     6
  9
$SURFV
 70
     6
  9
$UCSNAME
  2

  9
$UCSORG
 10
0.0
 20
0.0
 30
0.0
  9
$UCSXDIR
 10
1.0
 20
0.0
 30
0.0
  9
$UCSYDIR
 10
0.0
 20
1.0
 30
0.0
  9
$PUCSNAME
  2

  9
$PUCSORG
 10
0.0
 20
0.0
 30
0.0
  9
$PUCSXDIR
 10
1.0
 20
0.0
 30
0.0
  9
$PUCSYDIR
 10
0.0
 20
1.0
 30
0.0
  9
$USERI1
 70
     0
  9
$USERI2
 70
     0
  9
$USERI3
 70
     0
  9
$USERI4
 70
     0
  9
$USERI5
 70
     0
  9
$USERR1
 40
0.0
  9
$USERR2
 40
0.0
  9
$USERR3
 40
0.0
  9
$USERR4
 40
0.0
  9
$USERR5
 40
0.0
  9
$WORLDVIEW
 70
     1
  9
$SHADEDGE
 70
     3
  9
$SHADEDIF
 70
    70
  9
$TILEMODE
 70
     1
  9
$MAXACTVP
 70
    64
  9
$PLIMCHECK
 70
     0
  9
$PEXTMIN
 10
1.000000000000000E+20
 20
1.000000000000000E+20
 30
1.000000000000000E+20
  9
$PEXTMAX
 10
-1.000000000000000E+20
 20
-1.000000000000000E+20
 30
-1.000000000000000E+20
  9
$PLIMMIN
 10
0.0
 20
0.0
  9
$PLIMMAX
 10
420.0
 20
297.0
  9
$UNITMODE
 70
     0
  9
$VISRETAIN
 70
     1
  9
$PLINEGEN
 70
     0
  9
$PSLTSCALE
 70
     1
  0
ENDSEC
  0
SECTION
  2
TABLES
  0
TABLE
  2
VPORT
 70
     1
  0
VPORT
  2
*ACTIVE
 70
     0
 10
0.0
 20
0.0
 11
1.0
 21
1.0
 12
344.1869158878504
 22
148.5
 13
0.0
 23
0.0
 14
10.0
 24
10.0
 15
10.0
 25
10.0
 16
0.0
 26
0.0
 36
1.0
 17
0.0
 27
0.0
 37
0.0
 40
297.0
 41
1.972972972850329
 42
50.0
 43
0.0
 44
0.0
 50
0.0
 51
0.0
 71
     0
 72
   100
 73
     1
 74
     3
 75
     0
 76
     0
 77
     0
 78
     0
  0
ENDTAB
  0
TABLE
  2
LTYPE
 70
    13
  0
LTYPE
  2
CONTINUOUS
 70
     0
  3
Solid line
 72
    65
 73
     0
 40
0.0
  0
LTYPE
  2
BORDER
 70
     0
  3
__ __ . __ __ . __ 
 72
    65
 73
     6
 40
0.875
 49
0.25
 49
-0.125
 49
0.25
 49
-0.125
 49
0.0
 49
-0.125
  0
LTYPE
  2
CENTER
 70
     0
  3
___ _ ___ _ ___ _ _
 72
    65
 73
     4
 40
1.125
 49
0.75
 49
-0.125
 49
0.125
 49
-0.125
  0
LTYPE
  2
DASHDOT
 70
     0
  3
_._._._._._._._._._
 72
    65
 73
     4
 40
0.5
 49
0.25
 49
-0.125
 49
0.0
 49
-0.125
  0
LTYPE
  2
DASHED
 70
     0
  3
_ _ _ _ _ _ _ _ _ _
 72
    65
 73
     2
 40
0.375
 49
0.25
 49
-0.125
  0
LTYPE
  2
DIVIDE
 70
     0
  3
__..__..__..__..__.
 72
    65
 73
     6
 40
0.625
 49
0.25
 49
-0.125
 49
0.0
 49
-0.125
 49
0.0
 49
-0.125
  0
LTYPE
  2
DOT
 70
     0
  3
...................
 72
    65
 73
     2
 40
0.125
 49
0.0
 49
-0.125
  0
LTYPE
  2
HIDDEN
 70
     0
  3
__ __ __ __ __ __ _
 72
    65
 73
     2
 40
0.1875
 49
0.125
 49
-0.0625
  0
LTYPE
  2
PHANTOM
 70
     0
  3
___ _ _ ___ _ _ ___
 72
    65
 73
     6
 40
1.25
 49
0.625
 49
-0.125
 49
0.125
 49
-0.125
 49
0.125
 49
-0.125
  0
LTYPE
  2
CUTTING
 70
     0
  3
________ _ _ ______
 72
    65
 73
     6
 40
1.4675
 49
1.0
 49
-0.0725
 49
0.125
 49
-0.0725
 49
0.125
 49
-0.0725
  0
LTYPE
  2
STITCH
 70
     0
  3
_ _ _ _ _ _ _ _ _ _
 72
    65
 73
     2
 40
0.145
 49
0.0725
 49
-0.0725
  0
LTYPE
  2
CENTERX2
 70
     0
  3
Center (2x) _______
 72
    65
 73
     4
 40
20.32
 49
12.7
 49
-2.54
 49
2.54
 49
-2.54
  0
LTYPE
  2
DOT2
 70
     0
  3
Dot (.5x) .........
 72
    65
 73
     2
 40
0.635
 49
0.0
 49
-0.635
  0
ENDTAB
  0
TABLE
  2
LAYER
 70
     5
  0
LAYER
  2
0
 70
     0
 62
     7
  6
CONTINUOUS
  0
LAYER
  2
LAYER1
 70
     0
 62
     7
  6
CONTINUOUS
  0
LAYER
  2
DXF_SCANNEN_2018-3-10_10_2
 70
     0
 62
     7
  6
CONTINUOUS
  0
LAYER
  2
DXF_SCANNEN_2018-3-10_10_0
 70
     0
 62
     7
  6
CONTINUOUS
  0
LAYER
  2
DXF_SCANNEN_2018-3-10_10_1
 70
     0
 62
     7
  6
CONTINUOUS
  0
ENDTAB
  0
TABLE
  2
STYLE
 70
     1
  0
STYLE
  2
STANDARD
 70
     0
 40
0.0
 41
1.0
 50
0.0
 71
     0
 42
2.5
  3
txt
  4

  0
ENDTAB
  0
TABLE
  2
VIEW
 70
     0
  0
ENDTAB
  0
TABLE
  2
UCS
 70
     0
  0
ENDTAB
  0
TABLE
  2
APPID
 70
     2
  0
APPID
  2
ACAD
 70
     0
  0
APPID
  2
TURBOCAD
 70
     0
  0
ENDTAB
  0
TABLE
  2
DIMSTYLE
 70
     1
  0
DIMSTYLE
  2
ISO-25
 70
     0
  3

  4

  5

  6

  7

 40
1.0
 41
2.5
 42
0.625
 43
3.75
 44
1.25
 45
0.0
 46
0.0
 47
0.0
 48
0.0
140
2.5
141
2.5
142
0.0
143
0.03937007874016
144
1.0
145
0.0
146
1.0
147
0.625
 71
     0
 72
     0
 73
     0
 74
     0
 75
     0
 76
     0
 77
     1
 78
     8
170
     0
171
     3
172
     1
173
     0
174
     0
175
     0
176
     0
177
     0
178
     0
  0
ENDTAB
  0
ENDSEC
  0
SECTION
  2
BLOCKS
  0
BLOCK
  8
0
  2
$MODEL_SPACE
 70
     0
 10
0.0
 20
0.0
 30
0.0
  3
$MODEL_SPACE
  1

  0
ENDBLK
  5
21
  8
0
  0
BLOCK
 67
     1
  8
0
  2
$PAPER_SPACE
 70
     0
 10
0.0
 20
0.0
 30
0.0
  3
$PAPER_SPACE
  1

  0
ENDBLK
  5
1D
 67
     1
  8
0
  0
ENDSEC
  0
SECTION
  2
ENTITIES
  0
POLYLINE
  5
7F
  8
LAYER1
 62
   178
 10
0.0
 20
0.0
 30
0.0
 66
     1
 70
     8
  0
VERTEX
  5
80
  8
LAYER1
 62
   178
 10
72.95925799999999
 20
124.6771810000001
 30
0.0
 70
    32
  0
VERTEX
  5
81
  8
LAYER1
 62
   178
 10
72.75372379129197
 20
124.9915738501235
 30
0.0
 70
    32
  0
VERTEX
  5
82
  8
LAYER1
 62
   178
 10
72.74163361351582
 20
125.0101130605593
 30
0.0
 70
    32
  0
VERTEX
  5
83
  8
LAYER1
 62
   178
 10
72.7174533174004
 20
125.0472065659005
 30
0.0
 70
    32
  0
VERTEX
  5
84
  8
LAYER1
 62
   178
 10
72.66909301355786
 20
125.121453793146
 30
0.0
 70
    32
  0
VERTEX
  5
85
  8
LAYER1
 62
   178
 10
72.57237396455199
 20
125.2701881433681
 30
0.0
 70
    32
  0
VERTEX
  5
86
  8
LAYER1
 62
   178
 10
72.37894534226298
 20
125.5686086625671
 30
0.0
 70
    32
  0
VERTEX
  5
87
  8
LAYER1
 62
   178
 10
71.99215192862499
 20
126.1691948626251
 30
0.0
 70
    32
  0
VERTEX
  5
88
  8
LAYER1
 62
   178
 10
71.219027849501
 20
127.3848510025091
 30
0.0
 70
    32
  0
VERTEX
  5
89
  8
LAYER1
 62
   178
 10
69.67629007899698
 20
129.8701229863731
 30
0.0
 70
    32
  0
VERTEX
  5
8A
  8
LAYER1
 62
   178
 10
66.81093259412276
 20
134.690913621457
 30
0.0
 70
    32
  0
VERTEX
  5
8B
  8
LAYER1
 62
   178
 10
66.618131250053
 20
135.0247037306771
 30
0.0
 70
    32
  0
VERTEX
  5
8C
  8
LAYER1
 62
   178
 10
63.621680724981
 20
140.3640915298291
 30
0.0
 70
    32
  0
VERTEX
  5
8D
  8
LAYER1
 62
   178
 10
62.156078334317
 20
143.0803723322531
 30
0.0
 70
    32
  0
VERTEX
  5
8E
  8
LAYER1
 62
   178
 10
60.28364858677398
 20
146.6536064493375
 30
0.0
 70
    32
  0
VERTEX
  5
8F
  8
LAYER1
 62
   178
 10
58.104992848
 20
150.9635639120001
 30
0.0
 70
    32
  0
VERTEX
  5
90
  8
LAYER1
 62
   178
 10
55.625279528875
 20
156.0862888148751
 30
0.0
 70
    32
  0
VERTEX
  5
91
  8
LAYER1
 62
   178
 10
54.832491
 20
157.7779020000001
 30
0.0
 70
    32
  0
SEQEND
  5
92
  8
LAYER1
 62
   178
  0
POLYLINE
  5
93
  8
LAYER1
 62
   178
 10
0.0
 20
0.0
 30
0.0
 66
     1
 70
     8
  0
VERTEX
  5
94
  8
LAYER1
 62
   178
 10
54.832491
 20
157.7779020000001
 30
0.0
 70
    32
  0
VERTEX
  5
95
  8
LAYER1
 62
   178
 10
54.66499904421838
 20
158.1835914379312
 30
0.0
 70
    32
  0
VERTEX
  5
96
  8
LAYER1
 62
   178
 10
54.65512561324683
 20
158.2074452761497
 30
0.0
 70
    32
  0
VERTEX
  5
97
  8
LAYER1
 62
   178
 10
54.63537176692189
 20
158.2551495371974
 30
0.0
 70
    32
  0
VERTEX
  5
98
  8
LAYER1
 62
   178
 10
54.59583614133601
 20
158.350544397827
 30
0.0
 70
    32
  0
VERTEX
  5
99
  8
LAYER1
 62
   178
 10
54.516653195152
 20
158.5412794739601
 30
0.0
 70
    32
  0
VERTEX
  5
9A
  8
LAYER1
 62
   178
 10
54.35784081658799
 20
158.9225310516151
 30
0.0
 70
    32
  0
VERTEX
  5
9B
  8
LAYER1
 62
   178
 10
54.0384324655
 20
159.6841599556251
 30
0.0
 70
    32
  0
VERTEX
  5
9C
  8
LAYER1
 62
   178
 10
53.39250019407601
 20
161.2039211356051
 30
0.0
 70
    32
  0
VERTEX
  5
9D
  8
LAYER1
 62
   178
 10
52.072323826972
 20
164.2294600006851
 30
0.0
 70
    32
  0
VERTEX
  5
9E
  8
LAYER1
 62
   178
 10
49.31992741762799
 20
170.2246278895651
 30
0.0
 70
    32
  0
VERTEX
  5
9F
  8
LAYER1
 62
   178
 10
49.25856686008424
 20
170.3538821281142
 30
0.0
 70
    32
  0
VERTEX
  5
A0
  8
LAYER1
 62
   178
 10
46.420432054556
 20
176.1452953010051
 30
0.0
 70
    32
  0
VERTEX
  5
A1
  8
LAYER1
 62
   178
 10
44.916381995292
 20
179.0777085692851
 30
0.0
 70
    32
  0
VERTEX
  5
A2
  8
LAYER1
 62
   178
 10
43.05121275467285
 20
182.5964401222661
 30
0.0
 70
    32
  0
VERTEX
  5
A3
  8
LAYER1
 62
   178
 10
40.394335288
 20
187.4047882400001
 30
0.0
 70
    32
  0
VERTEX
  5
A4
  8
LAYER1
 62
   178
 10
37.2898983595
 20
192.752722581875
 30
0.0
 70
    32
  0
VERTEX
  5
A5
  8
LAYER1
 62
   178
 10
36.228326
 20
194.5208560000001
 30
0.0
 70
    32
  0
SEQEND
  5
A6
  8
LAYER1
 62
   178
  0
POLYLINE
  5
A7
  8
LAYER1
 62
   178
 10
0.0
 20
0.0
 30
0.0
 66
     1
 70
     8
  0
VERTEX
  5
A8
  8
LAYER1
 62
   178
 10
36.228326
 20
194.5208560000001
 30
0.0
 70
    32
  0
VERTEX
  5
A9
  8
LAYER1
 62
   178
 10
35.98314582212033
 20
195.1246350379819
 30
0.0
 70
    32
  0
VERTEX
  5
AA
  8
LAYER1
 62
   178
 10
35.9687753104247
 20
195.1599914027362
 30
0.0
 70
    32
  0
VERTEX
  5
AB
  8
LAYER1
 62
   178
 10
35.94005151288281
 20
195.2306509237735
 30
0.0
 70
    32
  0
VERTEX
  5
AC
  8
LAYER1
 62
   178
 10
35.88267273992151
 20
195.3717573297506
 30
0.0
 70
    32
  0
VERTEX
  5
AD
  8
LAYER1
 62
   178
 10
35.76818983228799
 20
195.6531211796161
 30
0.0
 70
    32
  0
VERTEX
  5
AE
  8
LAYER1
 62
   178
 10
35.54031736857199
 20
196.2124656894041
 30
0.0
 70
    32
  0
VERTEX
  5
AF
  8
LAYER1
 62
   178
 10
35.08890423449999
 20
197.3177232165
 30
0.0
 70
    32
  0
VERTEX
  5
B0
  8
LAYER1
 62
   178
 10
34.203072237044
 20
199.4753224391081
 30
0.0
 70
    32
  0
VERTEX
  5
B1
  8
LAYER1
 62
   178
 10
32.49672210286798
 20
203.5853386646761
 30
0.0
 70
    32
  0
VERTEX
  5
B2
  8
LAYER1
 62
   178
 10
29.32397150133197
 20
211.0364910907241
 30
0.0
 70
    32
  0
VERTEX
  5
B3
  8
LAYER1
 62
   178
 10
28.27323821649227
 20
213.4393457446553
 30
0.0
 70
    32
  0
VERTEX
  5
B4
  8
LAYER1
 62
   178
 10
26.43057135816397
 20
217.5612298709482
 30
0.0
 70
    32
  0
VERTEX
  5
B5
  8
LAYER1
 62
   178
 10
25.07340929694798
 20
220.5132290392361
 30
0.0
 70
    32
  0
VERTEX
  5
B6
  8
LAYER1
 62
   178
 10
24.41454954691597
 20
221.9181171746122
 30
0.0
 70
    32
  0
VERTEX
  5
B7
  8
LAYER1
 62
   178
 10
23.60794766345597
 20
223.6112493833921
 30
0.0
 70
    32
  0
VERTEX
  5
B8
  8
LAYER1
 62
   178
 10
23.02050545744674
 20
224.8249621420097
 30
0.0
 70
    32
  0
VERTEX
  5
B9
  8
LAYER1
 62
   178
 10
21.58884025620397
 20
227.7107326852282
 30
0.0
 70
    32
  0
VERTEX
  5
BA
  8
LAYER1
 62
   178
 10
20.61541419354946
 20
229.6115081647467
 30
0.0
 70
    32
  0
VERTEX
  5
BB
  8
LAYER1
 62
   178
 10
20.13630458155465
 20
230.5281306779142
 30
0.0
 70
    32
  0
VERTEX
  5
BC
  8
LAYER1
 62
   178
 10
19.22730449549995
 20
232.2321792435002
 30
0.0
 70
    32
  0
VERTEX
  5
BD
  8
LAYER1
 62
   178
 10
18.51020199999994
 20
233.5437530000002
 30
0.0
 70
    32
  0
SEQEND
  5
BE
  8
LAYER1
 62
   178
  0
POLYLINE
  5
BF
  8
LAYER1
 62
   178
 10
0.0
 20
0.0
 30
0.0
 66
     1
 70
     8
  0
VERTEX
  5
C0
  8
LAYER1
 62
   178
 10
18.51020199999994
 20
233.5437530000002
 30
0.0
 70
    32
  0
VERTEX
  5
C1
  8
LAYER1
 62
   178
 10
18.2917242807558
 20
233.5125542548264
 30
0.0
 70
    32
  0
VERTEX
  5
C2
  8
LAYER1
 62
   178
 10
18.24974920643606
 20
233.5040601104748
 30
0.0
 70
    32
  0
VERTEX
  5
C3
  8
LAYER1
 62
   178
 10
18.16750034885595
 20
233.4848457724882
 30
0.0
 70
    32
  0
VERTEX
  5
C4
  8
LAYER1
 62
   178
 10
18.00974067328894
 20
233.4376121104972
 30
0.0
 70
    32
  0
VERTEX
  5
C5
  8
LAYER1
 62
   178
 10
17.72063648337495
 20
233.3087185313752
 30
0.0
 70
    32
  0
VERTEX
  5
C6
  8
LAYER1
 62
   178
 10
17.24379277120295
 20
232.9195758640192
 30
0.0
 70
    32
  0
VERTEX
  5
C7
  8
LAYER1
 62
   178
 10
16.70121900153222
 20
231.8268355308667
 30
0.0
 70
    32
  0
VERTEX
  5
C8
  8
LAYER1
 62
   178
 10
16.66119619969096
 20
231.6666645844431
 30
0.0
 70
    32
  0
VERTEX
  5
C9
  8
LAYER1
 62
   178
 10
16.53580458732697
 20
230.8319223102712
 30
0.0
 70
    32
  0
VERTEX
  5
CA
  8
LAYER1
 62
   178
 10
16.50792492187497
 20
229.8776731718752
 30
0.0
 70
    32
  0
VERTEX
  5
CB
  8
LAYER1
 62
   178
 10
16.56773782682298
 20
228.8184303382791
 30
0.0
 70
    32
  0
VERTEX
  5
CC
  8
LAYER1
 62
   178
 10
16.70542392565898
 20
227.6687069785071
 30
0.0
 70
    32
  0
VERTEX
  5
CD
  8
LAYER1
 62
   178
 10
17.17513819894699
 20
225.1558713565312
 30
0.0
 70
    32
  0
VERTEX
  5
CE
  8
LAYER1
 62
   178
 10
17.48752762037499
 20
223.8217854323751
 30
0.0
 70
    32
  0
VERTEX
  5
CF
  8
LAYER1
 62
   178
 10
17.65880942506099
 20
223.1416749534531
 30
0.0
 70
    32
  0
VERTEX
  5
D0
  8
LAYER1
 62
   178
 10
17.838512729643
 20
222.4552716581391
 30
0.0
 70
    32
  0
VERTEX
  5
D1
  8
LAYER1
 62
   178
 10
18.21827415023899
 20
221.0708432028471
 30
0.0
 70
    32
  0
VERTEX
  5
D2
  8
LAYER1
 62
   178
 10
18.415877422125
 20
220.3764463351251
 30
0.0
 70
    32
  0
VERTEX
  5
D3
  8
LAYER1
 62
   178
 10
18.616992505651
 20
219.6830132355231
 30
0.0
 70
    32
  0
VERTEX
  5
D4
  8
LAYER1
 62
   178
 10
18.820391978753
 20
218.9923580501691
 30
0.0
 70
    32
  0
VERTEX
  5
D5
  8
LAYER1
 62
   178
 10
19.024848419367
 20
218.3062949251911
 30
0.0
 70
    32
  0
VERTEX
  5
D6
  8
LAYER1
 62
   178
 10
19.229134405429
 20
217.6266380067171
 30
0.0
 70
    32
  0
VERTEX
  5
D7
  8
LAYER1
 62
   178
 10
19.330829908608
 20
217.2897787955841
 30
0.0
 70
    32
  0
VERTEX
  5
D8
  8
LAYER1
 62
   178
 10
19.532558796472
 20
216.6231327108561
 30
0.0
 70
    32
  0
VERTEX
  5
D9
  8
LAYER1
 62
   178
 10
20.15945060848438
 20
214.541494875922
 30
0.0
 70
    32
  0
VERTEX
  5
DA
  8
LAYER1
 62
   178
 10
20.4468997813217
 20
213.5634761640547
 30
0.0
 70
    32
  0
VERTEX
  5
DB
  8
LAYER1
 62
   178
 10
20.709995282373
 20
212.6377036284291
 30
0.0
 70
    32
  0
VERTEX
  5
DC
  8
LAYER1
 62
   178
 10
20.95464142387717
 20
211.7289652442871
 30
0.0
 70
    32
  0
VERTEX
  5
DD
  8
LAYER1
 62
   178
 10
21.14205772009712
 20
210.9740352034277
 30
0.0
 70
    32
  0
VERTEX
  5
DE
  8
LAYER1
 62
   178
 10
21.2266227733258
 20
210.6029352844866
 30
0.0
 70
    32
  0
VERTEX
  5
DF
  8
LAYER1
 62
   178
 10
21.30049088225977
 20
210.2517083728146
 30
0.0
 70
    32
  0
VERTEX
  5
E0
  8
LAYER1
 62
   178
 10
21.36300368599213
 20
209.9213275345842
 30
0.0
 70
    32
  0
VERTEX
  5
E1
  8
LAYER1
 62
   178
 10
21.38979611062431
 20
209.7642584761885
 30
0.0
 70
    32
  0
VERTEX
  5
E2
  8
LAYER1
 62
   178
 10
21.458190167688
 20
209.2643890544241
 30
0.0
 70
    32
  0
VERTEX
  5
E3
  8
LAYER1
 62
   178
 10
21.472951959125
 20
209.1037146361251
 30
0.0
 70
    32
  0
VERTEX
  5
E4
  8
LAYER1
 62
   178
 10
21.482454593152
 20
208.9523518904961
 30
0.0
 70
    32
  0
VERTEX
  5
E5
  8
LAYER1
 62
   178
 10
21.48518577996237
 20
208.880233260016
 30
0.0
 70
    32
  0
VERTEX
  5
E6
  8
LAYER1
 62
   178
 10
21.46480499999999
 20
208.4445530000001
 30
0.0
 70
    32
  0
SEQEND
  5
E7
  8
LAYER1
 62
   178
  0
POLYLINE
  5
E8
  8
LAYER1
 62
   178
 10
0.0
 20
0.0
 30
0.0
 66
     1
 70
     8
  0
VERTEX
  5
E9
  8
LAYER1
 62
   178
 10
21.46480499999999
 20
208.4445530000001
 30
0.0
 70
    32
  0
VERTEX
  5
EA
  8
LAYER1
 62
   178
 10
21.46500029852855
 20
208.0226878449411
 30
0.0
 70
    32
  0
VERTEX
  5
EB
  8
LAYER1
 62
   178
 10
21.46511385119522
 20
207.9978901821577
 30
0.0
 70
    32
  0
VERTEX
  5
EC
  8
LAYER1
 62
   178
 10
21.465374758375
 20
207.9483007832872
 30
0.0
 70
    32
  0
VERTEX
  5
ED
  8
LAYER1
 62
   178
 10
21.46603147259699
 20
207.8491456202402
 30
0.0
 70
    32
  0
VERTEX
  5
EE
  8
LAYER1
 62
   178
 10
21.46788204030399
 20
207.6509292561841
 30
0.0
 70
    32
  0
VERTEX
  5
EF
  8
LAYER1
 62
   178
 10
21.473712051276
 20
207.2548677623211
 30
0.0
 70
    32
  0
VERTEX
  5
F0
  8
LAYER1
 62
   178
 10
21.49373012349999
 20
206.464192800375
 30
0.0
 70
    32
  0
VERTEX
  5
F1
  8
LAYER1
 62
   178
 10
21.56593885345201
 20
204.8883396898671
 30
0.0
 70
    32
  0
VERTEX
  5
F2
  8
LAYER1
 62
   178
 10
21.828969730444
 20
201.7562584044991
 30
0.0
 70
    32
  0
VERTEX
  5
F3
  8
LAYER1
 62
   178
 10
22.748869753356
 20
195.5516970332511
 30
0.0
 70
    32
  0
VERTEX
  5
F4
  8
LAYER1
 62
   178
 10
22.76764380012231
 20
195.4499503508829
 30
0.0
 70
    32
  0
VERTEX
  5
F5
  8
LAYER1
 62
   178
 10
23.35967295674801
 20
192.4684177798832
 30
0.0
 70
    32
  0
VERTEX
  5
F6
  8
LAYER1
 62
   178
 10
24.040334326412
 20
189.3906067030271
 30
0.0
 70
    32
  0
VERTEX
  5
F7
  8
LAYER1
 62
   178
 10
24.76782089108399
 20
186.3128642189391
 30
0.0
 70
    32
  0
VERTEX
  5
F8
  8
LAYER1
 62
   178
 10
25.14192581802799
 20
184.7723313292631
 30
0.0
 70
    32
  0
VERTEX
  5
F9
  8
LAYER1
 62
   178
 10
25.65600172323949
 20
182.6700804411485
 30
0.0
 70
    32
  0
VERTEX
  5
FA
  8
LAYER1
 62
   178
 10
28.07990401419194
 20
171.9240912650322
 30
0.0
 70
    32
  0
VERTEX
  5
FB
  8
LAYER1
 62
   178
 10
28.15511461149994
 20
171.5286134921252
 30
0.0
 70
    32
  0
VERTEX
  5
FC
  8
LAYER1
 62
   178
 10
28.51020199999992
 20
169.5437530000002
 30
0.0
 70
    32
  0
SEQEND
  5
FD
  8
LAYER1
 62
   178
  0
POLYLINE
  5
FE
  8
LAYER1
 62
   178
 10
0.0
 20
0.0
 30
0.0
 66
     1
 70
     8
  0
VERTEX
  5
FF
  8
LAYER1
 62
   178
 10
28.51020199999992
 20
169.5437530000002
 30
0.0
 70
    32
  0
VERTEX
  5
100
  8
LAYER1
 62
   178
 10
28.64049373130023
 20
169.0983215295192
 30
0.0
 70
    32
  0
VERTEX
  5
101
  8
LAYER1
 62
   178
 10
28.64833077110415
 20
169.0721703326751
 30
0.0
 70
    32
  0
VERTEX
  5
102
  8
LAYER1
 62
   178
 10
28.66406206520891
 20
169.0198847027678
 30
0.0
 70
    32
  0
VERTEX
  5
103
  8
LAYER1
 62
   178
 10
28.69575296222105
 20
168.9153803286676
 30
0.0
 70
    32
  0
VERTEX
  5
104
  8
LAYER1
 62
   178
 10
28.76004359797592
 20
168.7066377680562
 30
0.0
 70
    32
  0
VERTEX
  5
105
  8
LAYER1
 62
   178
 10
28.89222508856892
 20
168.2902065550392
 30
0.0
 70
    32
  0
VERTEX
  5
106
  8
LAYER1
 62
   178
 10
29.17070776337492
 20
167.4614730246252
 30
0.0
 70
    32
  0
VERTEX
  5
107
  8
LAYER1
 62
   178
 10
29.78190242576293
 20
165.8198276486532
 30
0.0
 70
    32
  0
VERTEX
  5
108
  8
LAYER1
 62
   178
 10
31.20321330801094
 20
162.5942724551412
 30
0.0
 70
    32
  0
VERTEX
  5
109
  8
LAYER1
 62
   178
 10
34.44536286966965
 20
156.7363883753241
 30
0.0
 70
    32
  0
VERTEX
  5
10A
  8
LAYER1
 62
   178
 10
34.69755575333895
 20
156.3296948539092
 30
0.0
 70
    32
  0
VERTEX
  5
10B
  8
LAYER1
 62
   178
 10
36.68832128838696
 20
153.2652956187972
 30
0.0
 70
    32
  0
VERTEX
  5
10C
  8
LAYER1
 62
   178
 10
37.72660694037496
 20
151.7445172116252
 30
0.0
 70
    32
  0
VERTEX
  5
10D
  8
LAYER1
 62
   178
 10
38.78663901300297
 20
150.2292382090932
 30
0.0
 70
    32
  0
VERTEX
  5
10E
  8
LAYER1
 62
   178
 10
40.95137591317098
 20
147.2088342111012
 30
0.0
 70
    32
  0
VERTEX
  5
10F
  8
LAYER1
 62
   178
 10
42.04579748720698
 20
145.7005371122171
 30
0.0
 70
    32
  0
VERTEX
  5
110
  8
LAYER1
 62
   178
 10
42.59377209350899
 20
144.9461708901792
 30
0.0
 70
    32
  0
VERTEX
  5
111
  8
LAYER1
 62
   178
 10
43.41488117391199
 20
143.8137918700722
 30
0.0
 70
    32
  0
VERTEX
  5
112
  8
LAYER1
 62
   178
 10
43.81325082482392
 20
143.2625871324185
 30
0.0
 70
    32
  0
VERTEX
  5
113
  8
LAYER1
 62
   178
 10
45.18093170785938
 20
141.3539553883282
 30
0.0
 70
    32
  0
VERTEX
  5
114
  8
LAYER1
 62
   178
 10
46.05186647120108
 20
140.1191105876507
 30
0.0
 70
    32
  0
VERTEX
  5
115
  8
LAYER1
 62
   178
 10
46.911063765333
 20
138.8798471183231
 30
0.0
 70
    32
  0
VERTEX
  5
116
  8
LAYER1
 62
   178
 10
47.75576574016381
 20
137.6353142587606
 30
0.0
 70
    32
  0
VERTEX
  5
117
  8
LAYER1
 62
   178
 10
48.58321454560213
 20
136.3846612873785
 30
0.0
 70
    32
  0
VERTEX
  5
118
  8
LAYER1
 62
   178
 10
49.39065233155664
 20
135.1270374825919
 30
0.0
 70
    32
  0
VERTEX
  5
119
  8
LAYER1
 62
   178
 10
49.78600526407393
 20
134.4953456671767
 30
0.0
 70
    32
  0
VERTEX
  5
11A
  8
LAYER1
 62
   178
 10
50.877036929125
 20
132.6858107878751
 30
0.0
 70
    32
  0
VERTEX
  5
11B
  8
LAYER1
 62
   178
 10
51.105733784192
 20
132.2921259387521
 30
0.0
 70
    32
  0
VERTEX
  5
11C
  8
LAYER1
 62
   178
 10
51.99233700000001
 20
130.7079370000001
 30
0.0
 70
    32
  0
SEQEND
  5
11D
  8
LAYER1
 62
   178
  0
POLYLINE
  5
11E
  8
LAYER1
 62
   178
 10
0.0
 20
0.0
 30
0.0
 66
     1
 70
     8
  0
VERTEX
  5
11F
  8
LAYER1
 62
   178
 10
51.99233700000001
 20
130.7079370000001
 30
0.0
 70
    32
  0
VERTEX
  5
120
  8
LAYER1
 62
   178
 10
52.04282621977372
 20
130.5247307661032
 30
0.0
 70
    32
  0
VERTEX
  5
121
  8
LAYER1
 62
   178
 10
52.04600986782868
 20
130.5139632640975
 30
0.0
 70
    32
  0
VERTEX
  5
122
  8
LAYER1
 62
   178
 10
52.05244775033792
 20
130.4924314437365
 30
0.0
 70
    32
  0
VERTEX
  5
123
  8
LAYER1
 62
   178
 10
52.06560495806888
 20
130.4493806382615
 30
0.0
 70
    32
  0
VERTEX
  5
124
  8
LAYER1
 62
   178
 10
52.09303792130402
 20
130.3633311734641
 30
0.0
 70
    32
  0
VERTEX
  5
125
  8
LAYER1
 62
   178
 10
52.152320254251
 20
130.1914472697911
 30
0.0
 70
    32
  0
VERTEX
  5
126
  8
LAYER1
 62
   178
 10
52.28808826912501
 20
129.8485910966251
 30
0.0
 70
    32
  0
VERTEX
  5
127
  8
LAYER1
 62
   178
 10
52.62473947937702
 20
129.1669375309571
 30
0.0
 70
    32
  0
VERTEX
  5
128
  8
LAYER1
 62
   178
 10
53.528916898569
 20
127.8231634738291
 30
0.0
 70
    32
  0
VERTEX
  5
129
  8
LAYER1
 62
   178
 10
54.85529525239629
 20
126.3384320933684
 30
0.0
 70
    32
  0
VERTEX
  5
12A
  8
LAYER1
 62
   178
 10
56.024085945081
 20
125.2401312688211
 30
0.0
 70
    32
  0
VERTEX
  5
12B
  8
LAYER1
 62
   178
 10
56.741654961189
 20
124.6216439512491
 30
0.0
 70
    32
  0
VERTEX
  5
12C
  8
LAYER1
 62
   178
 10
57.47982855147302
 20
124.0159494708931
 30
0.0
 70
    32
  0
VERTEX
  5
12D
  8
LAYER1
 62
   178
 10
58.230153652125
 20
123.4239900996251
 30
0.0
 70
    32
  0
VERTEX
  5
12E
  8
LAYER1
 62
   178
 10
58.607231436399
 20
123.1334555398591
 30
0.0
 70
    32
  0
VERTEX
  5
12F
  8
LAYER1
 62
   178
 10
58.984177199337
 20
122.8467081093171
 30
0.0
 70
    32
  0
VERTEX
  5
130
  8
LAYER1
 62
   178
 10
59.733446129301
 20
122.2850457718411
 30
0.0
 70
    32
  0
VERTEX
  5
131
  8
LAYER1
 62
   178
 10
60.10365603037499
 20
122.0103664328751
 30
0.0
 70
    32
  0
VERTEX
  5
132
  8
LAYER1
 62
   178
 10
60.469507378209
 20
121.7399453590691
 30
0.0
 70
    32
  0
VERTEX
  5
133
  8
LAYER1
 62
   178
 10
60.829943539827
 20
121.4739003344071
 30
0.0
 70
    32
  0
VERTEX
  5
134
  8
LAYER1
 62
   178
 10
61.183907882253
 20
121.2123491428731
 30
0.0
 70
    32
  0
VERTEX
  5
135
  8
LAYER1
 62
   178
 10
61.530343772511
 20
120.9554095684511
 30
0.0
 70
    32
  0
VERTEX
  5
136
  8
LAYER1
 62
   178
 10
61.70040835027201
 20
120.8287059451521
 30
0.0
 70
    32
  0
VERTEX
  5
137
  8
LAYER1
 62
   178
 10
62.03357037544799
 20
120.5789046413681
 30
0.0
 70
    32
  0
VERTEX
  5
138
  8
LAYER1
 62
   178
 10
63.04063712714061
 20
119.8015430830782
 30
0.0
 70
    32
  0
VERTEX
  5
139
  8
LAYER1
 62
   178
 10
63.49255256000705
 20
119.4335585008749
 30
0.0
 70
    32
  0
VERTEX
  5
13A
  8
LAYER1
 62
   178
 10
63.90401065940699
 20
119.0800452671871
 30
0.0
 70
    32
  0
VERTEX
  5
13B
  8
LAYER1
 62
   178
 10
64.31908702302574
 20
118.6942079941273
 30
0.0
 70
    32
  0
VERTEX
  5
13C
  8
LAYER1
 62
   178
 10
64.58741874336786
 20
118.4184544970204
 30
0.0
 70
    32
  0
VERTEX
  5
13D
  8
LAYER1
 62
   178
 10
64.72590051123856
 20
118.2628911049817
 30
0.0
 70
    32
  0
VERTEX
  5
13E
  8
LAYER1
 62
   178
 10
64.85030067070899
 20
118.1113877863731
 30
0.0
 70
    32
  0
VERTEX
  5
13F
  8
LAYER1
 62
   178
 10
64.96005246820286
 20
117.9640077178091
 30
0.0
 70
    32
  0
VERTEX
  5
140
  8
LAYER1
 62
   178
 10
65.00925812071604
 20
117.8918836449858
 30
0.0
 70
    32
  0
VERTEX
  5
141
  8
LAYER1
 62
   178
 10
65.14921708999198
 20
117.6504161936721
 30
0.0
 70
    32
  0
VERTEX
  5
142
  8
LAYER1
 62
   178
 10
65.187236013375
 20
117.5676680358751
 30
0.0
 70
    32
  0
VERTEX
  5
143
  8
LAYER1
 62
   178
 10
65.21888213356799
 20
117.4865733642881
 30
0.0
 70
    32
  0
VERTEX
  5
144
  8
LAYER1
 62
   178
 10
65.279097
 20
117.1790240000001
 30
0.0
 70
    32
  0
SEQEND
  5
145
  8
LAYER1
 62
   178
  0
POLYLINE
  5
146
  8
LAYER1
 62
   178
 10
0.0
 20
0.0
 30
0.0
 66
     1
 70
     8
  0
VERTEX
  5
147
  8
LAYER1
 62
   178
 10
65.279097
 20
117.1790240000001
 30
0.0
 70
    32
  0
VERTEX
  5
148
  8
LAYER1
 62
   178
 10
64.9882654712881
 20
117.3155074408667
 30
0.0
 70
    32
  0
VERTEX
  5
149
  8
LAYER1
 62
   178
 10
64.95592542555079
 20
117.3306717245235
 30
0.0
 70
    32
  0
VERTEX
  5
14A
  8
LAYER1
 62
   178
 10
64.89123024902176
 20
117.3609999145266
 30
0.0
 70
    32
  0
VERTEX
  5
14B
  8
LAYER1
 62
   178
 10
64.761779961296
 20
117.4216546652481
 30
0.0
 70
    32
  0
VERTEX
  5
14C
  8
LAYER1
 62
   178
 10
64.502642891574
 20
117.5429566892121
 30
0.0
 70
    32
  0
VERTEX
  5
14D
  8
LAYER1
 62
   178
 10
63.98344873024998
 20
117.7855231445001
 30
0.0
 70
    32
  0
VERTEX
  5
14E
  8
LAYER1
 62
   178
 10
62.941587961698
 20
118.2704442227241
 30
0.0
 70
    32
  0
VERTEX
  5
14F
  8
LAYER1
 62
   178
 10
60.84563777390598
 20
119.2389473554281
 30
0.0
 70
    32
  0
VERTEX
  5
150
  8
LAYER1
 62
   178
 10
56.63836325632967
 20
121.157504600303
 30
0.0
 70
    32
  0
VERTEX
  5
151
  8
LAYER1
 62
   178
 10
56.61811185899398
 20
121.1666639711721
 30
0.0
 70
    32
  0
VERTEX
  5
152
  8
LAYER1
 62
   178
 10
47.49313652310302
 20
125.2323085138928
 30
0.0
 70
    32
  0
VERTEX
  5
153
  8
LAYER1
 62
   178
 10
40.30182145474998
 20
128.3674212755001
 30
0.0
 70
    32
  0
VERTEX
  5
154
  8
LAYER1
 62
   178
 10
39.02488599999999
 20
128.9193110000001
 30
0.0
 70
    32
  0
SEQEND
  5
155
  8
LAYER1
 62
   178
  0
POLYLINE
  5
156
  8
LAYER1
 62
   178
 10
0.0
 20
0.0
 30
0.0
 66
     1
 70
     8
  0
VERTEX
  5
157
  8
LAYER1
 62
   178
 10
39.02488599999999
 20
128.9193110000001
 30
0.0
 70
    32
  0
VERTEX
  5
158
  8
LAYER1
 62
   178
 10
38.83026173970507
 20
128.9959114266388
 30
0.0
 70
    32
  0
VERTEX
  5
159
  8
LAYER1
 62
   178
 10
38.79122172437536
 20
129.0113032971917
 30
0.0
 70
    32
  0
VERTEX
  5
15A
  8
LAYER1
 62
   178
 10
38.71302796271199
 20
129.0421580926321
 30
0.0
 70
    32
  0
VERTEX
  5
15B
  8
LAYER1
 62
   178
 10
38.55619052830298
 20
129.1041493427331
 30
0.0
 70
    32
  0
VERTEX
  5
15C
  8
LAYER1
 62
   178
 10
38.24075611862499
 20
129.2292380148751
 30
0.0
 70
    32
  0
VERTEX
  5
15D
  8
LAYER1
 62
   178
 10
37.603169963581
 20
129.4836763273911
 30
0.0
 70
    32
  0
VERTEX
  5
15E
  8
LAYER1
 62
   178
 10
36.30369493275699
 20
130.0082870691271
 30
0.0
 70
    32
  0
VERTEX
  5
15F
  8
LAYER1
 62
   178
 10
33.87070830980784
 20
131.0090145788377
 30
0.0
 70
    32
  0
VERTEX
  5
160
  8
LAYER1
 62
   178
 10
33.62806696429299
 20
131.1099669696231
 30
0.0
 70
    32
  0
VERTEX
  5
161
  8
LAYER1
 62
   178
 10
27.63731825677642
 20
133.6535580483464
 30
0.0
 70
    32
  0
VERTEX
  5
162
  8
LAYER1
 62
   178
 10
23.08857821387503
 20
135.6343253876251
 30
0.0
 70
    32
  0
VERTEX
  5
163
  8
LAYER1
 62
   178
 10
22.27984300000003
 20
135.9897850000001
 30
0.0
 70
    32
  0
SEQEND
  5
164
  8
LAYER1
 62
   178
  0
POLYLINE
  5
165
  8
LAYER1
 62
   178
 10
0.0
 20
0.0
 30
0.0
 66
     1
 70
     8
  0
VERTEX
  5
166
  8
LAYER1
 62
   178
 10
22.27984300000003
 20
135.9897850000001
 30
0.0
 70
    32
  0
VERTEX
  5
167
  8
LAYER1
 62
   178
 10
22.04182014380277
 20
136.0548239425255
 30
0.0
 70
    32
  0
VERTEX
  5
168
  8
LAYER1
 62
   178
 10
21.99383279794116
 20
136.068459286509
 30
0.0
 70
    32
  0
VERTEX
  5
169
  8
LAYER1
 62
   178
 10
21.89748162741603
 20
136.0963418049841
 30
0.0
 70
    32
  0
VERTEX
  5
16A
  8
LAYER1
 62
   178
 10
21.70329540652902
 20
136.1544991265711
 30
0.0
 70
    32
  0
VERTEX
  5
16B
  8
LAYER1
 62
   178
 10
21.30916372837503
 20
136.279942609125
 30
0.0
 70
    32
  0
VERTEX
  5
16C
  8
LAYER1
 62
   178
 10
20.49927369028303
 20
136.5638225384171
 30
0.0
 70
    32
  0
VERTEX
  5
16D
  8
LAYER1
 62
   178
 10
18.80426899685102
 20
137.2353751070491
 30
0.0
 70
    32
  0
VERTEX
  5
16E
  8
LAYER1
 62
   178
 10
17.03045454687502
 20
137.9916433906251
 30
0.0
 70
    32
  0
VERTEX
  5
16F
  8
LAYER1
 62
   178
 10
16.26148391233609
 20
138.3218961964333
 30
0.0
 70
    32
  0
VERTEX
  5
170
  8
LAYER1
 62
   178
 10
15.20361802009901
 20
138.7682179110011
 30
0.0
 70
    32
  0
VERTEX
  5
171
  8
LAYER1
 62
   178
 10
13.34954709626702
 20
139.5006891900331
 30
0.0
 70
    32
  0
VERTEX
  5
172
  8
LAYER1
 62
   178
 10
12.42035738537501
 20
139.8302581521251
 30
0.0
 70
    32
  0
VERTEX
  5
173
  8
LAYER1
 62
   178
 10
11.49402945512301
 20
140.1246477495771
 30
0.0
 70
    32
  0
VERTEX
  5
174
  8
LAYER1
 62
   178
 10
10.57378676547901
 20
140.3758067976211
 30
0.0
 70
    32
  0
VERTEX
  5
175
  8
LAYER1
 62
   178
 10
9.66285277641101
 20
140.5756841114891
 30
0.0
 70
    32
  0
VERTEX
  5
176
  8
LAYER1
 62
   178
 10
8.76445094788701
 20
140.7162285064131
 30
0.0
 70
    32
  0
VERTEX
  5
177
  8
LAYER1
 62
   178
 10
8.32095692506901
 20
140.7617348640311
 30
0.0
 70
    32
  0
VERTEX
  5
178
  8
LAYER1
 62
   178
 10
8.100812919488009
 20
140.7778562837121
 30
0.0
 70
    32
  0
VERTEX
  5
179
  8
LAYER1
 62
   178
 10
7.663982752792009
 20
140.7962066060081
 30
0.0
 70
    32
  0
VERTEX
  5
17A
  8
LAYER1
 62
   178
 10
6.618345682323817
 20
140.7575635160435
 30
0.0
 70
    32
  0
VERTEX
  5
17B
  8
LAYER1
 62
   178
 10
6.280531720359384
 20
140.7169133671407
 30
0.0
 70
    32
  0
VERTEX
  5
17C
  8
LAYER1
 62
   178
 10
5.612720411347338
 20
140.5897788170996
 30
0.0
 70
    32
  0
VERTEX
  5
17D
  8
LAYER1
 62
   178
 10
5.285549741608201
 20
140.502450228822
 30
0.0
 70
    32
  0
VERTEX
  5
17E
  8
LAYER1
 62
   178
 10
4.963157226653012
 20
140.3985610200471
 30
0.0
 70
    32
  0
VERTEX
  5
17F
  8
LAYER1
 62
   178
 10
4.333571155912561
 20
140.1389415060281
 30
0.0
 70
    32
  0
VERTEX
  5
180
  8
LAYER1
 62
   178
 10
3.725691188762142
 20
139.806601805088
 30
0.0
 70
    32
  0
VERTEX
  5
181
  8
LAYER1
 62
   178
 10
3.14124631483791
 20
139.3972234472715
 30
0.0
 70
    32
  0
VERTEX
  5
182
  8
LAYER1
 62
   178
 10
2.858352347096914
 20
139.1622952501739
 30
0.0
 70
    32
  0
VERTEX
  5
183
  8
LAYER1
 62
   178
 10
2.719332034652422
 20
139.037035230752
 30
0.0
 70
    32
  0
VERTEX
  5
184
  8
LAYER1
 62
   178
 10
2.089536574125025
 20
138.3775562133751
 30
0.0
 70
    32
  0
VERTEX
  5
185
  8
LAYER1
 62
   178
 10
1.930720814272026
 20
138.184435966528
 30
0.0
 70
    32
  0
VERTEX
  5
186
  8
LAYER1
 62
   178
 10
1.323437000000029
 20
137.3245520000001
 30
0.0
 70
    32
  0
SEQEND
  5
187
  8
LAYER1
 62
   178
  0
POLYLINE
  5
188
  8
LAYER1
 62
   178
 10
0.0
 20
0.0
 30
0.0
 66
     1
 70
     8
  0
VERTEX
  5
189
  8
LAYER1
 62
   178
 10
1.323437000000029
 20
137.3245520000001
 30
0.0
 70
    32
  0
VERTEX
  5
18A
  8
LAYER1
 62
   178
 10
1.273942268421594
 20
137.0095578380088
 30
0.0
 70
    32
  0
VERTEX
  5
18B
  8
LAYER1
 62
   178
 10
1.271148128977678
 20
136.9910214830113
 30
0.0
 70
    32
  0
VERTEX
  5
18C
  8
LAYER1
 62
   178
 10
1.265598815554717
 20
136.9539464121329
 30
0.0
 70
    32
  0
VERTEX
  5
18D
  8
LAYER1
 62
   178
 10
1.254655855053529
 20
136.8797869220406
 30
0.0
 70
    32
  0
VERTEX
  5
18E
  8
LAYER1
 62
   178
 10
1.23339103531203
 20
136.7314313100961
 30
0.0
 70
    32
  0
VERTEX
  5
18F
  8
LAYER1
 62
   178
 10
1.19333328792803
 20
136.4345796518241
 30
0.0
 70
    32
  0
VERTEX
  5
190
  8
LAYER1
 62
   178
 10
1.12300525800003
 20
135.840363339
 30
0.0
 70
    32
  0
VERTEX
  5
191
  8
LAYER1
 62
   178
 10
1.020698229056031
 20
134.6502686582481
 30
0.0
 70
    32
  0
VERTEX
  5
192
  8
LAYER1
 62
   178
 10
0.9630736672320317
 20
132.266550516456
 30
0.0
 70
    32
  0
VERTEX
  5
193
  8
LAYER1
 62
   178
 10
1.35526609376139
 20
127.6978414166302
 30
0.0
 70
    32
  0
VERTEX
  5
194
  8
LAYER1
 62
   178
 10
1.384529507168031
 20
127.509954632744
 30
0.0
 70
    32
  0
VERTEX
  5
195
  8
LAYER1
 62
   178
 10
2.423967163936029
 20
122.8153469412881
 30
0.0
 70
    32
  0
VERTEX
  5
196
  8
LAYER1
 62
   178
 10
3.138819873152027
 20
120.5091140398161
 30
0.0
 70
    32
  0
VERTEX
  5
197
  8
LAYER1
 62
   178
 10
3.538623070384027
 20
119.3693847652721
 30
0.0
 70
    32
  0
VERTEX
  5
198
  8
LAYER1
 62
   178
 10
4.281312707078695
 20
117.4438153443038
 30
0.0
 70
    32
  0
VERTEX
  5
199
  8
LAYER1
 62
   178
 10
4.925828854518544
 20
115.9227794287408
 30
0.0
 70
    32
  0
VERTEX
  5
19A
  8
LAYER1
 62
   178
 10
5.758917768000027
 20
114.1089925440001
 30
0.0
 70
    32
  0
VERTEX
  5
19B
  8
LAYER1
 62
   178
 10
6.639550846814842
 20
112.3350575152594
 30
0.0
 70
    32
  0
VERTEX
  5
19C
  8
LAYER1
 62
   178
 10
7.794290997000026
 20
110.1799664760001
 30
0.0
 70
    32
  0
VERTEX
  5
19D
  8
LAYER1
 62
   178
 10
8.50955200000003
 20
108.9232480000001
 30
0.0
 70
    32
  0
SEQEND
  5
19E
  8
LAYER1
 62
   178
  0
POLYLINE
  5
19F
  8
LAYER1
 62
   178
 10
0.0
 20
0.0
 30
0.0
 66
     1
 70
     8
  0
VERTEX
  5
1A0
  8
LAYER1
 62
   178
 10
8.50955200000003
 20
108.9232480000001
 30
0.0
 70
    32
  0
VERTEX
  5
1A1
  8
LAYER1
 62
   178
 10
8.650126627983152
 20
108.7315878274429
 30
0.0
 70
    32
  0
VERTEX
  5
1A2
  8
LAYER1
 62
   178
 10
8.658431718448094
 20
108.7202910526436
 30
0.0
 70
    32
  0
VERTEX
  5
1A3
  8
LAYER1
 62
   178
 10
8.675053833830106
 20
108.6976900244708
 30
0.0
 70
    32
  0
VERTEX
  5
1A4
  8
LAYER1
 62
   178
 10
8.708345713108404
 20
108.6524581524254
 30
0.0
 70
    32
  0
VERTEX
  5
1A5
  8
LAYER1
 62
   178
 10
8.775119351368028
 20
108.5618759343121
 30
0.0
 70
    32
  0
VERTEX
  5
1A6
  8
LAYER1
 62
   178
 10
8.909420431867026
 20
108.3802439122031
 30
0.0
 70
    32
  0
VERTEX
  5
1A7
  8
LAYER1
 62
   178
 10
9.180992090125027
 20
108.0151600061251
 30
0.0
 70
    32
  0
VERTEX
  5
1A8
  8
LAYER1
 62
   178
 10
9.735647646409026
 20
107.2781165998811
 30
0.0
 70
    32
  0
VERTEX
  5
1A9
  8
LAYER1
 62
   178
 10
10.88808172387302
 20
105.7797582378571
 30
0.0
 70
    32
  0
VERTEX
  5
1AA
  8
LAYER1
 62
   178
 10
13.06290788599893
 20
103.0534143281419
 30
0.0
 70
    32
  0
VERTEX
  5
1AB
  8
LAYER1
 62
   178
 10
13.34203378497701
 20
102.7118019301931
 30
0.0
 70
    32
  0
VERTEX
  5
1AC
  8
LAYER1
 62
   178
 10
15.95017780972901
 20
99.5980911577611
 30
0.0
 70
    32
  0
VERTEX
  5
1AD
  8
LAYER1
 62
   178
 10
17.29535184175301
 20
98.04253971477709
 30
0.0
 70
    32
  0
VERTEX
  5
1AE
  8
LAYER1
 62
   178
 10
19.1496039663139
 20
95.94957103125174
 30
0.0
 70
    32
  0
VERTEX
  5
1AF
  8
LAYER1
 62
   178
 10
21.24240515200002
 20
93.65572828800009
 30
0.0
 70
    32
  0
VERTEX
  5
1B0
  8
LAYER1
 62
   178
 10
23.82318501737501
 20
90.92606555137509
 30
0.0
 70
    32
  0
VERTEX
  5
1B1
  8
LAYER1
 62
   178
 10
24.67524400000001
 20
90.04955000000007
 30
0.0
 70
    32
  0
SEQEND
  5
1B2
  8
LAYER1
 62
   178
  0
POLYLINE
  5
1B3
  8
LAYER1
 62
   178
 10
0.0
 20
0.0
 30
0.0
 66
     1
 70
     8
  0
VERTEX
  5
1B4
  8
LAYER1
 62
   178
 10
24.67524400000001
 20
90.04955000000007
 30
0.0
 70
    32
  0
VERTEX
  5
1B5
  8
LAYER1
 62
   178
 10
24.86772386801947
 20
89.94674366105217
 30
0.0
 70
    32
  0
VERTEX
  5
1B6
  8
LAYER1
 62
   178
 10
24.88851460763087
 20
89.93605841117001
 30
0.0
 70
    32
  0
VERTEX
  5
1B7
  8
LAYER1
 62
   178
 10
24.92974113689613
 20
89.91512686084668
 30
0.0
 70
    32
  0
VERTEX
  5
1B8
  8
LAYER1
 62
   178
 10
25.01078045637601
 20
89.87501102599208
 30
0.0
 70
    32
  0
VERTEX
  5
1B9
  8
LAYER1
 62
   178
 10
25.16725262536901
 20
89.80170016367306
 30
0.0
 70
    32
  0
VERTEX
  5
1BA
  8
LAYER1
 62
   178
 10
25.45815897337501
 20
89.68221562237505
 30
0.0
 70
    32
  0
VERTEX
  5
1BB
  8
LAYER1
 62
   178
 10
25.720420172621
 20
89.59787390415705
 30
0.0
 70
    32
  0
VERTEX
  5
1BC
  8
LAYER1
 62
   178
 10
25.95492282856301
 20
89.54742690337108
 30
0.0
 70
    32
  0
VERTEX
  5
1BD
  8
LAYER1
 62
   178
 10
26.344198932359
 20
89.54322463150305
 30
0.0
 70
    32
  0
VERTEX
  5
1BE
  8
LAYER1
 62
   178
 10
26.633080128411
 20
89.65962396158706
 30
0.0
 70
    32
  0
VERTEX
  5
1BF
  8
LAYER1
 62
   178
 10
26.76041052198673
 20
89.78223076520077
 30
0.0
 70
    32
  0
VERTEX
  5
1C0
  8
LAYER1
 62
   178
 10
26.93802917187499
 20
90.21428804687508
 30
0.0
 70
    32
  0
VERTEX
  5
1C1
  8
LAYER1
 62
   178
 10
26.96828270658299
 20
90.63258311171106
 30
0.0
 70
    32
  0
VERTEX
  5
1C2
  8
LAYER1
 62
   178
 10
26.95595734627699
 20
90.87260302990907
 30
0.0
 70
    32
  0
VERTEX
  5
1C3
  8
LAYER1
 62
   178
 10
26.92651270813898
 20
91.13154039776308
 30
0.0
 70
    32
  0
VERTEX
  5
1C4
  8
LAYER1
 62
   178
 10
26.81981202019099
 20
91.70117505984709
 30
0.0
 70
    32
  0
VERTEX
  5
1C5
  8
LAYER1
 62
   178
 10
26.65527348638699
 20
92.3315022527791
 30
0.0
 70
    32
  0
VERTEX
  5
1C6
  8
LAYER1
 62
   178
 10
26.18105425580298
 20
93.7342948504511
 30
0.0
 70
    32
  0
VERTEX
  5
1C7
  8
LAYER1
 62
   178
 10
25.56059776557098
 20
95.26003942930711
 30
0.0
 70
    32
  0
VERTEX
  5
1C8
  8
LAYER1
 62
   178
 10
24.75843636191198
 20
97.02400970170413
 30
0.0
 70
    32
  0
VERTEX
  5
1C9
  8
LAYER1
 62
   178
 10
23.50931680566719
 20
99.54329784597005
 30
0.0
 70
    32
  0
VERTEX
  5
1CA
  8
LAYER1
 62
   178
 10
22.110089
 20
102.2030830000001
 30
0.0
 70
    32
  0
SEQEND
  5
1CB
  8
LAYER1
 62
   178
  0
POLYLINE
  5
1CC
  8
LAYER1
 62
   178
 10
0.0
 20
0.0
 30
0.0
 66
     1
 70
     8
  0
VERTEX
  5
1CD
  8
LAYER1
 62
   178
 10
22.110089
 20
102.2030830000001
 30
0.0
 70
    32
  0
VERTEX
  5
1CE
  8
LAYER1
 62
   178
 10
22.02180624827156
 20
102.3859570679033
 30
0.0
 70
    32
  0
VERTEX
  5
1CF
  8
LAYER1
 62
   178
 10
22.01193265741211
 20
102.4065974251603
 30
0.0
 70
    32
  0
VERTEX
  5
1D0
  8
LAYER1
 62
   178
 10
21.99214816738812
 20
102.4480684185919
 30
0.0
 70
    32
  0
VERTEX
  5
1D1
  8
LAYER1
 62
   178
 10
21.95243305611999
 20
102.5317660823361
 30
0.0
 70
    32
  0
VERTEX
  5
1D2
  8
LAYER1
 62
   178
 10
21.87244312470499
 20
102.7021406070341
 30
0.0
 70
    32
  0
VERTEX
  5
1D3
  8
LAYER1
 62
   178
 10
21.71042295437499
 20
103.0544583627501
 30
0.0
 70
    32
  0
VERTEX
  5
1D4
  8
LAYER1
 62
   178
 10
21.37980960783499
 20
103.8025840393181
 30
0.0
 70
    32
  0
VERTEX
  5
1D5
  8
LAYER1
 62
   178
 10
20.70499668419497
 20
105.4505187718461
 30
0.0
 70
    32
  0
VERTEX
  5
1D6
  8
LAYER1
 62
   178
 10
20.03627029687497
 20
107.2582650937502
 30
0.0
 70
    32
  0
VERTEX
  5
1D7
  8
LAYER1
 62
   178
 10
19.8921626918321
 20
107.6743730589479
 30
0.0
 70
    32
  0
VERTEX
  5
1D8
  8
LAYER1
 62
   178
 10
19.71326512073497
 20
108.2061552570381
 30
0.0
 70
    32
  0
VERTEX
  5
1D9
  8
LAYER1
 62
   178
 10
19.55619026116497
 20
108.6883199291221
 30
0.0
 70
    32
  0
VERTEX
  5
1DA
  8
LAYER1
 62
   178
 10
19.40267225835498
 20
109.1749035052541
 30
0.0
 70
    32
  0
VERTEX
  5
1DB
  8
LAYER1
 62
   178
 10
19.10812193629498
 20
110.1581449009261
 30
0.0
 70
    32
  0
VERTEX
  5
1DC
  8
LAYER1
 62
   178
 10
18.83324438111499
 20
111.1495145065822
 30
0.0
 70
    32
  0
VERTEX
  5
1DD
  8
LAYER1
 62
   178
 10
18.58166981937499
 20
112.1426473847501
 30
0.0
 70
    32
  0
VERTEX
  5
1DE
  8
LAYER1
 62
   178
 10
18.46575560684499
 20
112.6378860080661
 30
0.0
 70
    32
  0
VERTEX
  5
1DF
  8
LAYER1
 62
   178
 10
18.35702847763499
 20
113.1311785979581
 30
0.0
 70
    32
  0
VERTEX
  5
1E0
  8
LAYER1
 62
   178
 10
18.162950582455
 20
114.1087432087341
 30
0.0
 70
    32
  0
VERTEX
  5
1E1
  8
LAYER1
 62
   178
 10
18.078507373125
 20
114.5914239952501
 30
0.0
 70
    32
  0
VERTEX
  5
1E2
  8
LAYER1
 62
   178
 10
18.003066360395
 20
115.0689762796061
 30
0.0
 70
    32
  0
VERTEX
  5
1E3
  8
LAYER1
 62
   178
 10
17.937081322585
 20
115.5406044446181
 30
0.0
 70
    32
  0
VERTEX
  5
1E4
  8
LAYER1
 62
   178
 10
17.881006038015
 20
116.0055128731021
 30
0.0
 70
    32
  0
VERTEX
  5
1E5
  8
LAYER1
 62
   178
 10
17.83529428500501
 20
116.4629059478741
 30
0.0
 70
    32
  0
VERTEX
  5
1E6
  8
LAYER1
 62
   178
 10
17.81646653856001
 20
116.6885355972481
 30
0.0
 70
    32
  0
VERTEX
  5
1E7
  8
LAYER1
 62
   178
 10
17.78715091724001
 20
117.1331638592321
 30
0.0
 70
    32
  0
VERTEX
  5
1E8
  8
LAYER1
 62
   178
 10
17.86217297573249
 20
119.5284045841259
 30
0.0
 70
    32
  0
VERTEX
  5
1E9
  8
LAYER1
 62
   178
 10
17.89714079548502
 20
119.7560237503381
 30
0.0
 70
    32
  0
VERTEX
  5
1EA
  8
LAYER1
 62
   178
 10
18.01514665517245
 20
120.3233898111991
 30
0.0
 70
    32
  0
VERTEX
  5
1EB
  8
LAYER1
 62
   178
 10
18.0890645228148
 20
120.5914733758768
 30
0.0
 70
    32
  0
VERTEX
  5
1EC
  8
LAYER1
 62
   178
 10
18.17325021063315
 20
120.8485882957578
 30
0.0
 70
    32
  0
VERTEX
  5
1ED
  8
LAYER1
 62
   178
 10
18.26794711486018
 20
121.0943078201213
 30
0.0
 70
    32
  0
VERTEX
  5
1EE
  8
LAYER1
 62
   178
 10
18.37339863172855
 20
121.3282051982462
 30
0.0
 70
    32
  0
VERTEX
  5
1EF
  8
LAYER1
 62
   178
 10
18.48984815747094
 20
121.5498536794114
 30
0.0
 70
    32
  0
VERTEX
  5
1F0
  8
LAYER1
 62
   178
 10
18.55227323499261
 20
121.6559512240339
 30
0.0
 70
    32
  0
VERTEX
  5
1F1
  8
LAYER1
 62
   178
 10
18.79048897716003
 20
121.9979920577281
 30
0.0
 70
    32
  0
VERTEX
  5
1F2
  8
LAYER1
 62
   178
 10
18.88362963812504
 20
122.1098834172501
 30
0.0
 70
    32
  0
VERTEX
  5
1F3
  8
LAYER1
 62
   178
 10
18.98128973984003
 20
122.2165145653121
 30
0.0
 70
    32
  0
VERTEX
  5
1F4
  8
LAYER1
 62
   178
 10
19.41825900000003
 20
122.5884480000001
 30
0.0
 70
    32
  0
SEQEND
  5
1F5
  8
LAYER1
 62
   178
  0
POLYLINE
  5
1F6
  8
LAYER1
 62
   178
 10
0.0
 20
0.0
 30
0.0
 66
     1
 70
     8
  0
VERTEX
  5
1F7
  8
LAYER1
 62
   178
 10
19.41825900000003
 20
122.5884480000001
 30
0.0
 70
    32
  0
VERTEX
  5
1F8
  8
LAYER1
 62
   178
 10
19.74638845562381
 20
122.2946274701379
 30
0.0
 70
    32
  0
VERTEX
  5
1F9
  8
LAYER1
 62
   178
 10
19.76572534011809
 20
122.2772961785086
 30
0.0
 70
    32
  0
VERTEX
  5
1FA
  8
LAYER1
 62
   178
 10
19.8044108665723
 20
122.2426181493634
 30
0.0
 70
    32
  0
VERTEX
  5
1FB
  8
LAYER1
 62
   178
 10
19.8818290056169
 20
122.1732009577748
 30
0.0
 70
    32
  0
VERTEX
  5
1FC
  8
LAYER1
 62
   178
 10
20.03685407844003
 20
122.0341272433921
 30
0.0
 70
    32
  0
VERTEX
  5
1FD
  8
LAYER1
 62
   178
 10
20.34766300453503
 20
121.7550641056981
 30
0.0
 70
    32
  0
VERTEX
  5
1FE
  8
LAYER1
 62
   178
 10
20.97234479062503
 20
121.1936079217501
 30
0.0
 70
    32
  0
VERTEX
  5
1FF
  8
LAYER1
 62
   178
 10
22.23419459524503
 20
120.0600393368461
 30
0.0
 70
    32
  0
VERTEX
  5
200
  8
LAYER1
 62
   178
 10
24.80968310896502
 20
117.7715846368621
 30
0.0
 70
    32
  0
VERTEX
  5
201
  8
LAYER1
 62
   178
 10
29.82614526896124
 20
113.5608911679076
 30
0.0
 70
    32
  0
VERTEX
  5
202
  8
LAYER1
 62
   178
 10
30.182567552085
 20
113.2798638190381
 30
0.0
 70
    32
  0
VERTEX
  5
203
  8
LAYER1
 62
   178
 10
32.98839308020501
 20
111.1740026742541
 30
0.0
 70
    32
  0
VERTEX
  5
204
  8
LAYER1
 62
   178
 10
34.42299564562501
 20
110.1773792557501
 30
0.0
 70
    32
  0
VERTEX
  5
205
  8
LAYER1
 62
   178
 10
35.87942721184501
 20
109.2264110209261
 30
0.0
 70
    32
  0
VERTEX
  5
206
  8
LAYER1
 62
   178
 10
37.358214628785
 20
108.3271857805981
 30
0.0
 70
    32
  0
VERTEX
  5
207
  8
LAYER1
 62
   178
 10
38.859884746365
 20
107.4857913455821
 30
0.0
 70
    32
  0
VERTEX
  5
208
  8
LAYER1
 62
   178
 10
40.38496441450501
 20
106.7083155266941
 30
0.0
 70
    32
  0
VERTEX
  5
209
  8
LAYER1
 62
   178
 10
41.156447470635
 20
106.3454495391781
 30
0.0
 70
    32
  0
VERTEX
  5
20A
  8
LAYER1
 62
   178
 10
41.54445361632001
 20
106.1708174530561
 30
0.0
 70
    32
  0
VERTEX
  5
20B
  8
LAYER1
 62
   178
 10
42.32503630308
 20
105.8356307063041
 30
0.0
 70
    32
  0
VERTEX
  5
20C
  8
LAYER1
 62
   178
 10
43.07079578915422
 20
105.5357430026561
 30
0.0
 70
    32
  0
VERTEX
  5
20D
  8
LAYER1
 62
   178
 10
44.90473589039063
 20
104.8842246029063
 30
0.0
 70
    32
  0
VERTEX
  5
20E
  8
LAYER1
 62
   178
 10
46.21964693712868
 20
104.4935431746032
 30
0.0
 70
    32
  0
VERTEX
  5
20F
  8
LAYER1
 62
   178
 10
46.88349140696113
 20
104.3208864619203
 30
0.0
 70
    32
  0
VERTEX
  5
210
  8
LAYER1
 62
   178
 10
47.55164227279501
 20
104.1638966437861
 30
0.0
 70
    32
  0
VERTEX
  5
211
  8
LAYER1
 62
   178
 10
48.90100448754447
 20
103.8985503718717
 30
0.0
 70
    32
  0
VERTEX
  5
212
  8
LAYER1
 62
   178
 10
49.58228648399874
 20
103.7910102584458
 30
0.0
 70
    32
  0
VERTEX
  5
213
  8
LAYER1
 62
   178
 10
50.26801617153188
 20
103.7007697202768
 30
0.0
 70
    32
  0
VERTEX
  5
214
  8
LAYER1
 62
   178
 10
50.95822887391321
 20
103.6282369275419
 30
0.0
 70
    32
  0
VERTEX
  5
215
  8
LAYER1
 62
   178
 10
51.65295991491212
 20
103.5738200504181
 30
0.0
 70
    32
  0
VERTEX
  5
216
  8
LAYER1
 62
   178
 10
52.35224461829792
 20
103.5379272590824
 30
0.0
 70
    32
  0
VERTEX
  5
217
  8
LAYER1
 62
   178
 10
52.70360563206386
 20
103.5270549487655
 30
0.0
 70
    32
  0
VERTEX
  5
218
  8
LAYER1
 62
   178
 10
53.92877628252
 20
103.5266854916161
 30
0.0
 70
    32
  0
VERTEX
  5
219
  8
LAYER1
 62
   178
 10
54.36775267687501
 20
103.5407689582501
 30
0.0
 70
    32
  0
VERTEX
  5
21A
  8
LAYER1
 62
   178
 10
54.80850498528
 20
103.5624619760641
 30
0.0
 70
    32
  0
VERTEX
  5
21B
  8
LAYER1
 62
   178
 10
55.02954967976063
 20
103.5761917923024
 30
0.0
 70
    32
  0
VERTEX
  5
21C
  8
LAYER1
 62
   178
 10
56.58943800000001
 20
103.7272320000001
 30
0.0
 70
    32
  0
SEQEND
  5
21D
  8
LAYER1
 62
   178
  0
POLYLINE
  5
21E
  8
LAYER1
 62
   178
 10
0.0
 20
0.0
 30
0.0
 66
     1
 70
     8
  0
VERTEX
  5
21F
  8
LAYER1
 62
   178
 10
56.58943800000001
 20
103.7272320000001
 30
0.0
 70
    32
  0
VERTEX
  5
220
  8
LAYER1
 62
   178
 10
56.84723364589568
 20
103.8736268960898
 30
0.0
 70
    32
  0
VERTEX
  5
221
  8
LAYER1
 62
   178
 10
56.87537977288869
 20
103.8889966467677
 30
0.0
 70
    32
  0
VERTEX
  5
222
  8
LAYER1
 62
   178
 10
56.93137614191664
 20
103.9192027839395
 30
0.0
 70
    32
  0
VERTEX
  5
223
  8
LAYER1
 62
   178
 10
57.04219190903201
 20
103.9774919735601
 30
0.0
 70
    32
  0
VERTEX
  5
224
  8
LAYER1
 62
   178
 10
57.25916811063301
 20
104.0856609900151
 30
0.0
 70
    32
  0
VERTEX
  5
225
  8
LAYER1
 62
   178
 10
57.67491959237501
 20
104.2690253806251
 30
0.0
 70
    32
  0
VERTEX
  5
226
  8
LAYER1
 62
   178
 10
58.436982142491
 20
104.5091700634051
 30
0.0
 70
    32
  0
VERTEX
  5
227
  8
LAYER1
 62
   178
 10
59.710251769027
 20
104.5256068012851
 30
0.0
 70
    32
  0
VERTEX
  5
228
  8
LAYER1
 62
   178
 10
60.11140595200001
 20
104.3879681600001
 30
0.0
 70
    32
  0
VERTEX
  5
229
  8
LAYER1
 62
   178
 10
60.68513374607853
 20
104.0176178899852
 30
0.0
 70
    32
  0
VERTEX
  5
22A
  8
LAYER1
 62
   178
 10
61.46861856552298
 20
103.0429398949651
 30
0.0
 70
    32
  0
VERTEX
  5
22B
  8
LAYER1
 62
   178
 10
62.076715414459
 20
101.7380477528451
 30
0.0
 70
    32
  0
VERTEX
  5
22C
  8
LAYER1
 62
   178
 10
62.33989838137499
 20
100.9871957756251
 30
0.0
 70
    32
  0
VERTEX
  5
22D
  8
LAYER1
 62
   178
 10
62.58608768317099
 20
100.1869241528051
 30
0.0
 70
    32
  0
VERTEX
  5
22E
  8
LAYER1
 62
   178
 10
62.82297079978299
 20
99.34937110326509
 30
0.0
 70
    32
  0
VERTEX
  5
22F
  8
LAYER1
 62
   178
 10
62.94032487612499
 20
98.92040723687506
 30
0.0
 70
    32
  0
VERTEX
  5
230
  8
LAYER1
 62
   178
 10
63.05823521114699
 20
98.48667484588506
 30
0.0
 70
    32
  0
VERTEX
  5
231
  8
LAYER1
 62
   178
 10
63.17766273984098
 20
98.04969120765509
 30
0.0
 70
    32
  0
VERTEX
  5
232
  8
LAYER1
 62
   178
 10
63.29956839719899
 20
97.61097359954508
 30
0.0
 70
    32
  0
VERTEX
  5
233
  8
LAYER1
 62
   178
 10
63.42491311821299
 20
97.17203929891508
 30
0.0
 70
    32
  0
VERTEX
  5
234
  8
LAYER1
 62
   178
 10
63.48917541977599
 20
96.95296503808007
 30
0.0
 70
    32
  0
VERTEX
  5
235
  8
LAYER1
 62
   178
 10
63.62148048938399
 20
96.51655059372007
 30
0.0
 70
    32
  0
VERTEX
  5
236
  8
LAYER1
 62
   178
 10
64.09679148517186
 20
95.13076288132821
 30
0.0
 70
    32
  0
VERTEX
  5
237
  8
LAYER1
 62
   178
 10
64.27196722033516
 20
94.69262975238779
 30
0.0
 70
    32
  0
VERTEX
  5
238
  8
LAYER1
 62
   178
 10
64.36789287554113
 20
94.46831197373467
 30
0.0
 70
    32
  0
VERTEX
  5
239
  8
LAYER1
 62
   178
 10
64.51360902568565
 20
94.14754567121443
 30
0.0
 70
    32
  0
VERTEX
  5
23A
  8
LAYER1
 62
   178
 10
64.66678937698099
 20
93.83483724635506
 30
0.0
 70
    32
  0
VERTEX
  5
23B
  8
LAYER1
 62
   178
 10
64.99760437655672
 20
93.23684936004858
 30
0.0
 70
    32
  0
VERTEX
  5
23C
  8
LAYER1
 62
   178
 10
65.17626987160344
 20
92.95319756381627
 30
0.0
 70
    32
  0
VERTEX
  5
23D
  8
LAYER1
 62
   178
 10
65.36446126133362
 20
92.68085897567445
 30
0.0
 70
    32
  0
VERTEX
  5
23E
  8
LAYER1
 62
   178
 10
65.5626939691304
 20
92.42064742823051
 30
0.0
 70
    32
  0
VERTEX
  5
23F
  8
LAYER1
 62
   178
 10
65.77148341837695
 20
92.17337675409186
 30
0.0
 70
    32
  0
VERTEX
  5
240
  8
LAYER1
 62
   178
 10
65.99134503245641
 20
91.93986078586593
 30
0.0
 70
    32
  0
VERTEX
  5
241
  8
LAYER1
 62
   178
 10
66.10558897111575
 20
91.82851513916002
 30
0.0
 70
    32
  0
VERTEX
  5
242
  8
LAYER1
 62
   178
 10
66.52432400453598
 20
91.47264216388008
 30
0.0
 70
    32
  0
VERTEX
  5
243
  8
LAYER1
 62
   178
 10
66.68226426512499
 20
91.35771863187507
 30
0.0
 70
    32
  0
VERTEX
  5
244
  8
LAYER1
 62
   178
 10
66.84514826534398
 20
91.24918935552007
 30
0.0
 70
    32
  0
VERTEX
  5
245
  8
LAYER1
 62
   178
 10
66.92848170433787
 20
91.1973818318582
 30
0.0
 70
    32
  0
VERTEX
  5
246
  8
LAYER1
 62
   178
 10
67.54852399999999
 20
90.88280800000007
 30
0.0
 70
    32
  0
SEQEND
  5
247
  8
LAYER1
 62
   178
  0
POLYLINE
  5
248
  8
LAYER1
 62
   178
 10
0.0
 20
0.0
 30
0.0
 66
     1
 70
     8
  0
VERTEX
  5
249
  8
LAYER1
 62
   178
 10
67.54852399999999
 20
90.88280800000007
 30
0.0
 70
    32
  0
VERTEX
  5
24A
  8
LAYER1
 62
   178
 10
67.92716250353241
 20
90.75827237502324
 30
0.0
 70
    32
  0
VERTEX
  5
24B
  8
LAYER1
 62
   178
 10
68.26411947911049
 20
90.63915466902075
 30
0.0
 70
    32
  0
VERTEX
  5
24C
  8
LAYER1
 62
   178
 10
68.3153299041186
 20
90.62027310729692
 30
0.0
 70
    32
  0
VERTEX
  5
24D
  8
LAYER1
 62
   178
 10
68.416137850752
 20
90.58244904960004
 30
0.0
 70
    32
  0
VERTEX
  5
24E
  8
LAYER1
 62
   178
 10
68.61135608537496
 20
90.50655481062506
 30
0.0
 70
    32
  0
VERTEX
  5
24F
  8
LAYER1
 62
   178
 10
68.91805306607407
 20
90.37932236148154
 30
0.0
 70
    32
  0
VERTEX
  5
250
  8
LAYER1
 62
   178
 10
69.33545457457927
 20
90.18668557478885
 30
0.0
 70
    32
  0
VERTEX
  5
251
  8
LAYER1
 62
   178
 10
69.70339618161572
 20
89.99182728793987
 30
0.0
 70
    32
  0
VERTEX
  5
252
  8
LAYER1
 62
   178
 10
70.02380484746469
 20
89.79466226577846
 30
0.0
 70
    32
  0
VERTEX
  5
253
  8
LAYER1
 62
   178
 10
70.16678650253175
 20
89.69518809296919
 30
0.0
 70
    32
  0
VERTEX
  5
254
  8
LAYER1
 62
   178
 10
70.597399024
 20
89.32516112000009
 30
0.0
 70
    32
  0
VERTEX
  5
255
  8
LAYER1
 62
   178
 10
70.90998117187499
 20
88.91154557812507
 30
0.0
 70
    32
  0
VERTEX
  5
256
  8
LAYER1
 62
   178
 10
71.0094250361406
 20
88.70063844054695
 30
0.0
 70
    32
  0
VERTEX
  5
257
  8
LAYER1
 62
   178
 10
71.10644821826031
 20
88.22927448410701
 30
0.0
 70
    32
  0
VERTEX
  5
258
  8
LAYER1
 62
   178
 10
70.96369663847537
 20
87.45305502771126
 30
0.0
 70
    32
  0
VERTEX
  5
259
  8
LAYER1
 62
   178
 10
70.90181605691296
 20
87.30300423770828
 30
0.0
 70
    32
  0
VERTEX
  5
25A
  8
LAYER1
 62
   178
 10
70.74919201554384
 20
86.99859061374067
 30
0.0
 70
    32
  0
VERTEX
  5
25B
  8
LAYER1
 62
   178
 10
70.34330978091097
 20
86.37185977422506
 30
0.0
 70
    32
  0
VERTEX
  5
25C
  8
LAYER1
 62
   178
 10
69.8314722220046
 20
85.72000906834694
 30
0.0
 70
    32
  0
VERTEX
  5
25D
  8
LAYER1
 62
   178
 10
69.247547592728
 20
85.04154040300007
 30
0.0
 70
    32
  0
VERTEX
  5
25E
  8
LAYER1
 62
   178
 10
68.93617502080237
 20
84.68850065525027
 30
0.0
 70
    32
  0
VERTEX
  5
25F
  8
LAYER1
 62
   178
 10
68.62540414698437
 20
84.33495568507817
 30
0.0
 70
    32
  0
VERTEX
  5
260
  8
LAYER1
 62
   178
 10
68.3105841972822
 20
83.97065165230592
 30
0.0
 70
    32
  0
VERTEX
  5
261
  8
LAYER1
 62
   178
 10
67.99891013867699
 20
83.59875682147506
 30
0.0
 70
    32
  0
VERTEX
  5
262
  8
LAYER1
 62
   178
 10
67.69461550290667
 20
83.21908393094732
 30
0.0
 70
    32
  0
VERTEX
  5
263
  8
LAYER1
 62
   178
 10
67.40193382170911
 20
82.83144571908443
 30
0.0
 70
    32
  0
VERTEX
  5
264
  8
LAYER1
 62
   178
 10
67.12509862682226
 20
82.43565492424811
 30
0.0
 70
    32
  0
VERTEX
  5
265
  8
LAYER1
 62
   178
 10
66.99394644041344
 20
82.23464378895291
 30
0.0
 70
    32
  0
VERTEX
  5
266
  8
LAYER1
 62
   178
 10
66.93041822123459
 20
82.13334904596526
 30
0.0
 70
    32
  0
VERTEX
  5
267
  8
LAYER1
 62
   178
 10
66.65282239712501
 20
81.65091644187504
 30
0.0
 70
    32
  0
VERTEX
  5
268
  8
LAYER1
 62
   178
 10
66.58616131404801
 20
81.52240710400004
 30
0.0
 70
    32
  0
VERTEX
  5
269
  8
LAYER1
 62
   178
 10
66.348702
 20
81.00002400000004
 30
0.0
 70
    32
  0
SEQEND
  5
26A
  8
LAYER1
 62
   178
  0
POLYLINE
  5
26B
  8
LAYER1
 62
   178
 10
0.0
 20
0.0
 30
0.0
 66
     1
 70
     8
  0
VERTEX
  5
26C
  8
LAYER1
 62
   178
 10
66.348702
 20
81.00002400000004
 30
0.0
 70
    32
  0
VERTEX
  5
26D
  8
LAYER1
 62
   178
 10
65.89156390571385
 20
80.2472229556386
 30
0.0
 70
    32
  0
VERTEX
  5
26E
  8
LAYER1
 62
   178
 10
65.87777156646463
 20
80.22452944937541
 30
0.0
 70
    32
  0
VERTEX
  5
26F
  8
LAYER1
 62
   178
 10
65.85019755982543
 20
80.1791632889668
 30
0.0
 70
    32
  0
VERTEX
  5
270
  8
LAYER1
 62
   178
 10
65.79509225369335
 20
80.08851431010747
 30
0.0
 70
    32
  0
VERTEX
  5
271
  8
LAYER1
 62
   178
 10
65.68505262768713
 20
79.90754918811567
 30
0.0
 70
    32
  0
VERTEX
  5
272
  8
LAYER1
 62
   178
 10
65.46565858208801
 20
79.54694603020003
 30
0.0
 70
    32
  0
VERTEX
  5
273
  8
LAYER1
 62
   178
 10
65.02962140759699
 20
78.83101400392503
 30
0.0
 70
    32
  0
VERTEX
  5
274
  8
LAYER1
 62
   178
 10
64.168631453875
 20
77.41997467187505
 30
0.0
 70
    32
  0
VERTEX
  5
275
  8
LAYER1
 62
   178
 10
62.491634954919
 20
74.67901538797507
 30
0.0
 70
    32
  0
VERTEX
  5
276
  8
LAYER1
 62
   178
 10
59.32274221054298
 20
69.50413832657506
 30
0.0
 70
    32
  0
VERTEX
  5
277
  8
LAYER1
 62
   178
 10
56.41049098437498
 20
64.70543848437508
 30
0.0
 70
    32
  0
VERTEX
  5
278
  8
LAYER1
 62
   178
 10
55.05429638317898
 20
62.43470072447506
 30
0.0
 70
    32
  0
VERTEX
  5
279
  8
LAYER1
 62
   178
 10
53.76669069260697
 20
60.24306211417506
 30
0.0
 70
    32
  0
VERTEX
  5
27A
  8
LAYER1
 62
   178
 10
51.62559004671753
 20
56.4797972600979
 30
0.0
 70
    32
  0
VERTEX
  5
27B
  8
LAYER1
 62
   178
 10
49.33168057703898
 20
52.16786480097507
 30
0.0
 70
    32
  0
VERTEX
  5
27C
  8
LAYER1
 62
   178
 10
48.40916209494699
 20
50.29699616267507
 30
0.0
 70
    32
  0
VERTEX
  5
27D
  8
LAYER1
 62
   178
 10
47.97685283262499
 20
49.38032651562507
 30
0.0
 70
    32
  0
VERTEX
  5
27E
  8
LAYER1
 62
   178
 10
47.56408958562299
 20
48.47533636357507
 30
0.0
 70
    32
  0
VERTEX
  5
27F
  8
LAYER1
 62
   178
 10
46.79793922609099
 20
46.69790368527506
 30
0.0
 70
    32
  0
VERTEX
  5
280
  8
LAYER1
 62
   178
 10
46.44492115781699
 20
45.82421572942505
 30
0.0
 70
    32
  0
VERTEX
  5
281
  8
LAYER1
 62
   178
 10
46.276007129984
 20
45.39085640960005
 30
0.0
 70
    32
  0
VERTEX
  5
282
  8
LAYER1
 62
   178
 10
45.95348441325599
 20
44.53071788940005
 30
0.0
 70
    32
  0
VERTEX
  5
283
  8
LAYER1
 62
   178
 10
45.47979757371416
 20
43.16991415983148
 30
0.0
 70
    32
  0
VERTEX
  5
284
  8
LAYER1
 62
   178
 10
45.04823997685937
 20
41.78905031054692
 30
0.0
 70
    32
  0
VERTEX
  5
285
  8
LAYER1
 62
   178
 10
44.6790376154437
 20
40.44423213428793
 30
0.0
 70
    32
  0
VERTEX
  5
286
  8
LAYER1
 62
   178
 10
44.51563780589032
 20
39.77715791491552
 30
0.0
 70
    32
  0
VERTEX
  5
287
  8
LAYER1
 62
   178
 10
44.366504208329
 20
39.11319492822503
 30
0.0
 70
    32
  0
VERTEX
  5
288
  8
LAYER1
 62
   178
 10
44.11143154284967
 20
37.79326661342152
 30
0.0
 70
    32
  0
VERTEX
  5
289
  8
LAYER1
 62
   178
 10
44.00569042176528
 20
37.1366332655743
 30
0.0
 70
    32
  0
VERTEX
  5
28A
  8
LAYER1
 62
   178
 10
43.91461140634011
 20
36.48177511094066
 30
0.0
 70
    32
  0
VERTEX
  5
28B
  8
LAYER1
 62
   178
 10
43.83829346999102
 20
35.8283581396535
 30
0.0
 70
    32
  0
VERTEX
  5
28C
  8
LAYER1
 62
   178
 10
43.77683558613476
 20
35.17604834184574
 30
0.0
 70
    32
  0
VERTEX
  5
28D
  8
LAYER1
 62
   178
 10
43.73033672818816
 20
34.52451170765028
 30
0.0
 70
    32
  0
VERTEX
  5
28E
  8
LAYER1
 62
   178
 10
43.71272786312371
 20
34.19892894882369
 30
0.0
 70
    32
  0
VERTEX
  5
28F
  8
LAYER1
 62
   178
 10
43.68101708482399
 20
33.07217255060003
 30
0.0
 70
    32
  0
VERTEX
  5
290
  8
LAYER1
 62
   178
 10
43.68074523362499
 20
32.67141684062503
 30
0.0
 70
    32
  0
VERTEX
  5
291
  8
LAYER1
 62
   178
 10
43.68628249689598
 20
32.27046743040003
 30
0.0
 70
    32
  0
VERTEX
  5
292
  8
LAYER1
 62
   178
 10
43.76698399999999
 20
30.66317600000003
 30
0.0
 70
    32
  0
SEQEND
  5
293
  8
LAYER1
 62
   178
  0
POLYLINE
  5
294
  8
LAYER1
 62
   178
 10
0.0
 20
0.0
 30
0.0
 66
     1
 70
     8
  0
VERTEX
  5
295
  8
LAYER1
 62
   178
 10
43.76698399999999
 20
30.66317600000003
 30
0.0
 70
    32
  0
VERTEX
  5
296
  8
LAYER1
 62
   178
 10
43.73388984488675
 20
30.52988105950551
 30
0.0
 70
    32
  0
VERTEX
  5
297
  8
LAYER1
 62
   178
 10
43.73026831205273
 20
30.5153194480391
 30
0.0
 70
    32
  0
VERTEX
  5
298
  8
LAYER1
 62
   178
 10
43.72305797813711
 20
30.48634478573154
 30
0.0
 70
    32
  0
VERTEX
  5
299
  8
LAYER1
 62
   178
 10
43.70876677768798
 20
30.42898783260803
 30
0.0
 70
    32
  0
VERTEX
  5
29A
  8
LAYER1
 62
   178
 10
43.68069056929698
 20
30.31662844425203
 30
0.0
 70
    32
  0
VERTEX
  5
29B
  8
LAYER1
 62
   178
 10
43.62646950637498
 20
30.10120799450003
 30
0.0
 70
    32
  0
VERTEX
  5
29C
  8
LAYER1
 62
   178
 10
43.525005466619
 20
29.70660244600403
 30
0.0
 70
    32
  0
VERTEX
  5
29D
  8
LAYER1
 62
   178
 10
43.34401109664299
 20
29.05466909838802
 30
0.0
 70
    32
  0
VERTEX
  5
29E
  8
LAYER1
 62
   178
 10
43.18087379687499
 20
28.57117531250002
 30
0.0
 70
    32
  0
VERTEX
  5
29F
  8
LAYER1
 62
   178
 10
43.021928116307
 20
28.23860416341202
 30
0.0
 70
    32
  0
VERTEX
  5
2A0
  8
LAYER1
 62
   178
 10
42.9085595940422
 20
28.08899718072097
 30
0.0
 70
    32
  0
VERTEX
  5
2A1
  8
LAYER1
 62
   178
 10
42.853508603931
 20
28.03943872619603
 30
0.0
 70
    32
  0
VERTEX
  5
2A2
  8
LAYER1
 62
   178
 10
42.66194980873901
 20
27.95616207592402
 30
0.0
 70
    32
  0
VERTEX
  5
2A3
  8
LAYER1
 62
   178
 10
42.64103923394386
 20
27.95353836131433
 30
0.0
 70
    32
  0
VERTEX
  5
2A4
  8
LAYER1
 62
   178
 10
42.433586279723
 20
27.97125728766802
 30
0.0
 70
    32
  0
VERTEX
  5
2A5
  8
LAYER1
 62
   178
 10
42.30133228659101
 20
28.01022030275602
 30
0.0
 70
    32
  0
VERTEX
  5
2A6
  8
LAYER1
 62
   178
 10
42.22993990351701
 20
28.03659770577202
 30
0.0
 70
    32
  0
VERTEX
  5
2A7
  8
LAYER1
 62
   178
 10
42.11566906325601
 20
28.08401389289602
 30
0.0
 70
    32
  0
VERTEX
  5
2A8
  8
LAYER1
 62
   178
 10
41.504246570029
 20
28.37698976356402
 30
0.0
 70
    32
  0
VERTEX
  5
2A9
  8
LAYER1
 62
   178
 10
41.11500992979013
 20
28.56053975607952
 30
0.0
 70
    32
  0
VERTEX
  5
2AA
  8
LAYER1
 62
   178
 10
40.8963034593379
 20
28.65746965889846
 30
0.0
 70
    32
  0
VERTEX
  5
2AB
  8
LAYER1
 62
   178
 10
40.42635253612502
 20
28.84811539550002
 30
0.0
 70
    32
  0
VERTEX
  5
2AC
  8
LAYER1
 62
   178
 10
40.00000000000001
 20
29.00000000000002
 30
0.0
 70
    32
  0
SEQEND
  5
2AD
  8
LAYER1
 62
   178
  0
POLYLINE
  5
2AE
  8
LAYER1
 62
   178
 10
0.0
 20
0.0
 30
0.0
 66
     1
 70
     8
  0
VERTEX
  5
2AF
  8
LAYER1
 62
   178
 10
40.00000000000001
 20
29.00000000000002
 30
0.0
 70
    32
  0
VERTEX
  5
2B0
  8
LAYER1
 62
   178
 10
39.5572865172715
 20
29.12068320068458
 30
0.0
 70
    32
  0
VERTEX
  5
2B1
  8
LAYER1
 62
   178
 10
39.50900125110352
 20
29.13296848675588
 30
0.0
 70
    32
  0
VERTEX
  5
2B2
  8
LAYER1
 62
   178
 10
39.41297135380188
 20
29.15687136612915
 30
0.0
 70
    32
  0
VERTEX
  5
2B3
  8
LAYER1
 62
   178
 10
39.22306841196001
 20
29.20202194583202
 30
0.0
 70
    32
  0
VERTEX
  5
2B4
  8
LAYER1
 62
   178
 10
38.85184444031501
 20
29.28182712533302
 30
0.0
 70
    32
  0
VERTEX
  5
2B5
  8
LAYER1
 62
   178
 10
38.143360153125
 20
29.40045145487502
 30
0.0
 70
    32
  0
VERTEX
  5
2B6
  8
LAYER1
 62
   178
 10
36.85933426670502
 20
29.48173911739103
 30
0.0
 70
    32
  0
VERTEX
  5
2B7
  8
LAYER1
 62
   178
 10
35.74701875196501
 20
29.37028472976302
 30
0.0
 70
    32
  0
VERTEX
  5
2B8
  8
LAYER1
 62
   178
 10
34.79975775418501
 20
29.08433542632702
 30
0.0
 70
    32
  0
VERTEX
  5
2B9
  8
LAYER1
 62
   178
 10
34.01089541864502
 20
28.64213834141903
 30
0.0
 70
    32
  0
VERTEX
  5
2BA
  8
LAYER1
 62
   178
 10
33.37377589062501
 20
28.06194060937502
 30
0.0
 70
    32
  0
VERTEX
  5
2BB
  8
LAYER1
 62
   178
 10
33.20529810618832
 20
27.855939950515
 30
0.0
 70
    32
  0
VERTEX
  5
2BC
  8
LAYER1
 62
   178
 10
32.881743315405
 20
27.36198936453102
 30
0.0
 70
    32
  0
VERTEX
  5
2BD
  8
LAYER1
 62
   178
 10
32.52814183826501
 20
26.56053174122302
 30
0.0
 70
    32
  0
VERTEX
  5
2BE
  8
LAYER1
 62
   178
 10
32.22241952000002
 20
24.96861513600002
 30
0.0
 70
    32
  0
VERTEX
  5
2BF
  8
LAYER1
 62
   178
 10
32.36492981610502
 20
22.70458015007102
 30
0.0
 70
    32
  0
VERTEX
  5
2C0
  8
LAYER1
 62
   178
 10
32.60364600856502
 20
21.66929764948302
 30
0.0
 70
    32
  0
VERTEX
  5
2C1
  8
LAYER1
 62
   178
 10
32.76035608437502
 20
21.15350711362502
 30
0.0
 70
    32
  0
VERTEX
  5
2C2
  8
LAYER1
 62
   178
 10
32.94085817078502
 20
20.64199157644701
 30
0.0
 70
    32
  0
VERTEX
  5
2C3
  8
LAYER1
 62
   178
 10
33.14432028595502
 20
20.13703192974101
 30
0.0
 70
    32
  0
VERTEX
  5
2C4
  8
LAYER1
 62
   178
 10
33.36991044804502
 20
19.64090906529901
 30
0.0
 70
    32
  0
VERTEX
  5
2C5
  8
LAYER1
 62
   178
 10
33.61679667521502
 20
19.15590387491301
 30
0.0
 70
    32
  0
VERTEX
  5
2C6
  8
LAYER1
 62
   178
 10
33.74796581888002
 20
18.91828318617601
 30
0.0
 70
    32
  0
VERTEX
  5
2C7
  8
LAYER1
 62
   178
 10
34.02523617772002
 20
18.45423117898401
 30
0.0
 70
    32
  0
VERTEX
  5
2C8
  8
LAYER1
 62
   178
 10
35.05476670101564
 20
17.07403892110938
 30
0.0
 70
    32
  0
VERTEX
  5
2C9
  8
LAYER1
 62
   178
 10
35.63672065757994
 20
16.47503373463021
 30
0.0
 70
    32
  0
VERTEX
  5
2CA
  8
LAYER1
 62
   178
 10
35.97669203828315
 20
16.17422611977825
 30
0.0
 70
    32
  0
VERTEX
  5
2CB
  8
LAYER1
 62
   178
 10
36.25870701465502
 20
15.94980563288101
 30
0.0
 70
    32
  0
VERTEX
  5
2CC
  8
LAYER1
 62
   178
 10
36.91715572516571
 20
15.50814195818018
 30
0.0
 70
    32
  0
VERTEX
  5
2CD
  8
LAYER1
 62
   178
 10
37.25893782324844
 20
15.32170532544741
 30
0.0
 70
    32
  0
VERTEX
  5
2CE
  8
LAYER1
 62
   178
 10
37.60849674203689
 20
15.15983005284613
 30
0.0
 70
    32
  0
VERTEX
  5
2CF
  8
LAYER1
 62
   178
 10
37.96538622564666
 20
15.02373955816615
 30
0.0
 70
    32
  0
VERTEX
  5
2D0
  8
LAYER1
 62
   178
 10
38.32916001819337
 20
14.91465725919727
 30
0.0
 70
    32
  0
VERTEX
  5
2D1
  8
LAYER1
 62
   178
 10
38.69937186379261
 20
14.83380657372929
 30
0.0
 70
    32
  0
VERTEX
  5
2D2
  8
LAYER1
 62
   178
 10
38.88675260152307
 20
14.80435040411745
 30
0.0
 70
    32
  0
VERTEX
  5
2D3
  8
LAYER1
 62
   178
 10
38.98098726950234
 20
14.79243151825245
 30
0.0
 70
    32
  0
VERTEX
  5
2D4
  8
LAYER1
 62
   178
 10
39.54616106468001
 20
14.76139871493601
 30
0.0
 70
    32
  0
VERTEX
  5
2D5
  8
LAYER1
 62
   178
 10
39.784343979375
 20
14.76903220262501
 30
0.0
 70
    32
  0
VERTEX
  5
2D6
  8
LAYER1
 62
   178
 10
40.02431498752
 20
14.78913889894401
 30
0.0
 70
    32
  0
VERTEX
  5
2D7
  8
LAYER1
 62
   178
 10
40.14493852734564
 20
14.80395879767538
 30
0.0
 70
    32
  0
VERTEX
  5
2D8
  8
LAYER1
 62
   178
 10
41.00000000000001
 20
15.00000000000001
 30
0.0
 70
    32
  0
SEQEND
  5
2D9
  8
LAYER1
 62
   178
  0
POLYLINE
  5
2DA
  8
LAYER1
 62
   178
 10
0.0
 20
0.0
 30
0.0
 66
     1
 70
     8
  0
VERTEX
  5
2DB
  8
LAYER1
 62
   178
 10
103.0
 20
11.0
 30
0.0
 70
    32
  0
VERTEX
  5
2DC
  8
LAYER1
 62
   178
 10
103.1119482934898
 20
11.12083521315031
 30
0.0
 70
    32
  0
VERTEX
  5
2DD
  8
LAYER1
 62
   178
 10
103.1242182696134
 20
11.13431890135352
 30
0.0
 70
    32
  0
VERTEX
  5
2DE
  8
LAYER1
 62
   178
 10
103.1486568558768
 20
11.16132004842388
 30
0.0
 70
    32
  0
VERTEX
  5
2DF
  8
LAYER1
 62
   178
 10
103.197128256256
 20
11.215455648664
 30
0.0
 70
    32
  0
VERTEX
  5
2E0
  8
LAYER1
 62
   178
 10
103.292445502714
 20
11.324245861091
 30
0.0
 70
    32
  0
VERTEX
  5
2E1
  8
LAYER1
 62
   178
 10
103.47655805275
 20
11.543788634125
 30
0.0
 70
    32
  0
VERTEX
  5
2E2
  8
LAYER1
 62
   178
 10
103.818537575878
 20
11.989813976057
 30
0.0
 70
    32
  0
VERTEX
  5
2E3
  8
LAYER1
 62
   178
 10
104.396251870966
 20
12.902347068529
 30
0.0
 70
    32
  0
VERTEX
  5
2E4
  8
LAYER1
 62
   178
 10
105.116601909334
 20
14.75112868912099
 30
0.0
 70
    32
  0
VERTEX
  5
2E5
  8
LAYER1
 62
   178
 10
105.1348661071281
 20
14.8323885411355
 30
0.0
 70
    32
  0
VERTEX
  5
2E6
  8
LAYER1
 62
   178
 10
105.237609979318
 20
16.52064670241699
 30
0.0
 70
    32
  0
VERTEX
  5
2E7
  8
LAYER1
 62
   178
 10
105.171509578414
 20
16.935048178141
 30
0.0
 70
    32
  0
VERTEX
  5
2E8
  8
LAYER1
 62
   178
 10
104.9801968959797
 20
17.57478944274337
 30
0.0
 70
    32
  0
VERTEX
  5
2E9
  8
LAYER1
 62
   178
 10
104.683659273472
 20
18.16507742376799
 30
0.0
 70
    32
  0
VERTEX
  5
2EA
  8
LAYER1
 62
   178
 10
104.5781720677704
 20
18.32514661728249
 30
0.0
 70
    32
  0
VERTEX
  5
2EB
  8
LAYER1
 62
   178
 10
103.768718163298
 20
19.16160810128699
 30
0.0
 70
    32
  0
VERTEX
  5
2EC
  8
LAYER1
 62
   178
 10
103.4717989212796
 20
19.3658928458537
 30
0.0
 70
    32
  0
VERTEX
  5
2ED
  8
LAYER1
 62
   178
 10
103.1472191531627
 20
19.55000808088287
 30
0.0
 70
    32
  0
VERTEX
  5
2EE
  8
LAYER1
 62
   178
 10
102.7947853887929
 20
19.71283863656836
 30
0.0
 70
    32
  0
VERTEX
  5
2EF
  8
LAYER1
 62
   178
 10
102.60806279859
 20
19.78592366909279
 30
0.0
 70
    32
  0
VERTEX
  5
2F0
  8
LAYER1
 62
   178
 10
102.03802919725
 20
19.962051748375
 30
0.0
 70
    32
  0
VERTEX
  5
2F1
  8
LAYER1
 62
   178
 10
101.907230513152
 20
19.993708402688
 30
0.0
 70
    32
  0
VERTEX
  5
2F2
  8
LAYER1
 62
   178
 10
101.357017
 20
20.096448
 30
0.0
 70
    32
  0
SEQEND
  5
2F3
  8
LAYER1
 62
   178
  0
POLYLINE
  5
2F4
  8
LAYER1
 62
   178
 10
0.0
 20
0.0
 30
0.0
 66
     1
 70
     8
  0
VERTEX
  5
2F5
  8
LAYER1
 62
   178
 10
101.357017
 20
20.096448
 30
0.0
 70
    32
  0
VERTEX
  5
2F6
  8
LAYER1
 62
   178
 10
101.2318791237551
 20
20.19616774605263
 30
0.0
 70
    32
  0
VERTEX
  5
2F7
  8
LAYER1
 62
   178
 10
101.2185985211621
 20
20.20752988346876
 30
0.0
 70
    32
  0
VERTEX
  5
2F8
  8
LAYER1
 62
   178
 10
101.1924077485131
 20
20.230423525509
 30
0.0
 70
    32
  0
VERTEX
  5
2F9
  8
LAYER1
 62
   178
 10
101.14149922772
 20
20.276888436688
 30
0.0
 70
    32
  0
VERTEX
  5
2FA
  8
LAYER1
 62
   178
 10
101.045504639005
 20
20.372530033572
 30
0.0
 70
    32
  0
VERTEX
  5
2FB
  8
LAYER1
 62
   178
 10
100.876248111875
 20
20.5746704545
 30
0.0
 70
    32
  0
VERTEX
  5
2FC
  8
LAYER1
 62
   178
 10
100.624208369335
 20
21.022461237444
 30
0.0
 70
    32
  0
VERTEX
  5
2FD
  8
LAYER1
 62
   178
 10
100.430363815295
 20
22.092730827268
 30
0.0
 70
    32
  0
VERTEX
  5
2FE
  8
LAYER1
 62
   178
 10
100.461670025363
 20
22.65862581982814
 30
0.0
 70
    32
  0
VERTEX
  5
2FF
  8
LAYER1
 62
   178
 10
100.582245234375
 20
23.3971525625
 30
0.0
 70
    32
  0
VERTEX
  5
300
  8
LAYER1
 62
   178
 10
100.9983479046549
 20
24.937208179332
 30
0.0
 70
    32
  0
VERTEX
  5
301
  8
LAYER1
 62
   178
 10
101.597167104215
 20
26.71437941395601
 30
0.0
 70
    32
  0
VERTEX
  5
302
  8
LAYER1
 62
   178
 10
101.939625176875
 20
27.69234643050001
 30
0.0
 70
    32
  0
VERTEX
  5
303
  8
LAYER1
 62
   178
 10
102.297198111135
 20
28.730148002564
 30
0.0
 70
    32
  0
VERTEX
  5
304
  8
LAYER1
 62
   178
 10
102.659697816755
 20
29.827969347172
 30
0.0
 70
    32
  0
VERTEX
  5
305
  8
LAYER1
 62
   178
 10
103.016936203495
 20
30.985995681348
 30
0.0
 70
    32
  0
VERTEX
  5
306
  8
LAYER1
 62
   178
 10
103.358725181115
 20
32.20441222211601
 30
0.0
 70
    32
  0
VERTEX
  5
307
  8
LAYER1
 62
   178
 10
103.5097438499299
 20
32.79240299259922
 30
0.0
 70
    32
  0
VERTEX
  5
308
  8
LAYER1
 62
   178
 10
103.74871475284
 20
33.81263879265601
 30
0.0
 70
    32
  0
VERTEX
  5
309
  8
LAYER1
 62
   178
 10
104.1630903296093
 20
36.04542863912501
 30
0.0
 70
    32
  0
VERTEX
  5
30A
  8
LAYER1
 62
   178
 10
104.3186185963719
 20
37.22228505479176
 30
0.0
 70
    32
  0
VERTEX
  5
30B
  8
LAYER1
 62
   178
 10
104.3810770619972
 20
37.82587209967076
 30
0.0
 70
    32
  0
VERTEX
  5
30C
  8
LAYER1
 62
   178
 10
104.432420972985
 20
38.43958159360402
 30
0.0
 70
    32
  0
VERTEX
  5
30D
  8
LAYER1
 62
   178
 10
104.4990328026474
 20
39.69741760170477
 30
0.0
 70
    32
  0
VERTEX
  5
30E
  8
LAYER1
 62
   178
 10
104.5129345571218
 20
40.34156895240801
 30
0.0
 70
    32
  0
VERTEX
  5
30F
  8
LAYER1
 62
   178
 10
104.5129894285581
 20
40.995892425237
 30
0.0
 70
    32
  0
VERTEX
  5
310
  8
LAYER1
 62
   178
 10
104.468826193916
 20
42.33510541034376
 30
0.0
 70
    32
  0
VERTEX
  5
311
  8
LAYER1
 62
   178
 10
104.4232419236373
 20
43.02001975915726
 30
0.0
 70
    32
  0
VERTEX
  5
312
  8
LAYER1
 62
   178
 10
104.3942752768397
 20
43.36630933062123
 30
0.0
 70
    32
  0
VERTEX
  5
313
  8
LAYER1
 62
   178
 10
104.26080005916
 20
44.584758726224
 30
0.0
 70
    32
  0
VERTEX
  5
314
  8
LAYER1
 62
   178
 10
104.200457095625
 20
45.02538089050001
 30
0.0
 70
    32
  0
VERTEX
  5
315
  8
LAYER1
 62
   178
 10
104.13309936544
 20
45.46988741529601
 30
0.0
 70
    32
  0
VERTEX
  5
316
  8
LAYER1
 62
   178
 10
103.790337
 20
47.28681500000001
 30
0.0
 70
    32
  0
SEQEND
  5
317
  8
LAYER1
 62
   178
  0
POLYLINE
  5
318
  8
LAYER1
 62
   178
 10
0.0
 20
0.0
 30
0.0
 66
     1
 70
     8
  0
VERTEX
  5
319
  8
LAYER1
 62
   178
 10
103.790337
 20
47.28681500000001
 30
0.0
 70
    32
  0
VERTEX
  5
31A
  8
LAYER1
 62
   178
 10
103.9535312577492
 20
47.37832521043956
 30
0.0
 70
    32
  0
VERTEX
  5
31B
  8
LAYER1
 62
   178
 10
103.9717178432773
 20
47.38864661854299
 30
0.0
 70
    32
  0
VERTEX
  5
31C
  8
LAYER1
 62
   178
 10
104.0081231391832
 20
47.40937975998726
 30
0.0
 70
    32
  0
VERTEX
  5
31D
  8
LAYER1
 62
   178
 10
104.081061742064
 20
47.45120305299202
 30
0.0
 70
    32
  0
VERTEX
  5
31E
  8
LAYER1
 62
   178
 10
104.227447085466
 20
47.536243352798
 30
0.0
 70
    32
  0
VERTEX
  5
31F
  8
LAYER1
 62
   178
 10
104.52221906975
 20
47.71162419425001
 30
0.0
 70
    32
  0
VERTEX
  5
320
  8
LAYER1
 62
   178
 10
105.119518203582
 20
48.08138993774602
 30
0.0
 70
    32
  0
VERTEX
  5
321
  8
LAYER1
 62
   178
 10
106.343136935054
 20
48.87936241296202
 30
0.0
 70
    32
  0
VERTEX
  5
322
  8
LAYER1
 62
   178
 10
108.4162085532711
 20
50.2610739780156
 30
0.0
 70
    32
  0
VERTEX
  5
323
  8
LAYER1
 62
   178
 10
108.890454675246
 20
50.56846928313803
 30
0.0
 70
    32
  0
VERTEX
  5
324
  8
LAYER1
 62
   178
 10
110.205009925118
 20
51.37925965915405
 30
0.0
 70
    32
  0
VERTEX
  5
325
  8
LAYER1
 62
   178
 10
110.87051144775
 20
51.75863882825004
 30
0.0
 70
    32
  0
VERTEX
  5
326
  8
LAYER1
 62
   178
 10
111.540733588942
 20
52.11397864982604
 30
0.0
 70
    32
  0
VERTEX
  5
327
  8
LAYER1
 62
   178
 10
112.215104863766
 20
52.44025762269806
 30
0.0
 70
    32
  0
VERTEX
  5
328
  8
LAYER1
 62
   178
 10
112.893053787294
 20
52.73245424568205
 30
0.0
 70
    32
  0
VERTEX
  5
329
  8
LAYER1
 62
   178
 10
113.574008874598
 20
52.98554701759406
 30
0.0
 70
    32
  0
VERTEX
  5
32A
  8
LAYER1
 62
   178
 10
113.915435140626
 20
53.09586024027805
 30
0.0
 70
    32
  0
VERTEX
  5
32B
  8
LAYER1
 62
   178
 10
114.428559529968
 20
53.23927324870407
 30
0.0
 70
    32
  0
VERTEX
  5
32C
  8
LAYER1
 62
   178
 10
115.0706397587631
 20
53.37830405707203
 30
0.0
 70
    32
  0
VERTEX
  5
32D
  8
LAYER1
 62
   178
 10
115.5433270790937
 20
53.44991465384381
 30
0.0
 70
    32
  0
VERTEX
  5
32E
  8
LAYER1
 62
   178
 10
116.1016480479573
 20
53.49859179317972
 30
0.0
 70
    32
  0
VERTEX
  5
32F
  8
LAYER1
 62
   178
 10
116.660185104562
 20
53.50591533368607
 30
0.0
 70
    32
  0
VERTEX
  5
330
  8
LAYER1
 62
   178
 10
117.2186317175634
 20
53.46919185785767
 30
0.0
 70
    32
  0
VERTEX
  5
331
  8
LAYER1
 62
   178
 10
117.7766813556172
 20
53.38572794818931
 30
0.0
 70
    32
  0
VERTEX
  5
332
  8
LAYER1
 62
   178
 10
118.3340274873789
 20
53.25283018717585
 30
0.0
 70
    32
  0
VERTEX
  5
333
  8
LAYER1
 62
   178
 10
118.612340947355
 20
53.16700191944432
 30
0.0
 70
    32
  0
VERTEX
  5
334
  8
LAYER1
 62
   178
 10
118.751391012434
 20
53.11909564250254
 30
0.0
 70
    32
  0
VERTEX
  5
335
  8
LAYER1
 62
   178
 10
119.40274301525
 20
52.84841670575008
 30
0.0
 70
    32
  0
VERTEX
  5
336
  8
LAYER1
 62
   178
 10
119.573245197888
 20
52.76454082246407
 30
0.0
 70
    32
  0
VERTEX
  5
337
  8
LAYER1
 62
   178
 10
120.253561
 20
52.37321300000006
 30
0.0
 70
    32
  0
SEQEND
  5
338
  8
LAYER1
 62
   178
  0
POLYLINE
  5
339
  8
LAYER1
 62
   178
 10
0.0
 20
0.0
 30
0.0
 66
     1
 70
     8
  0
VERTEX
  5
33A
  8
LAYER1
 62
   178
 10
120.253561
 20
52.37321300000006
 30
0.0
 70
    32
  0
VERTEX
  5
33B
  8
LAYER1
 62
   178
 10
120.4387552553965
 20
52.33818687983797
 30
0.0
 70
    32
  0
VERTEX
  5
33C
  8
LAYER1
 62
   178
 10
120.4758291276801
 20
52.33202341395994
 30
0.0
 70
    32
  0
VERTEX
  5
33D
  8
LAYER1
 62
   178
 10
120.550004234664
 20
52.32053067501606
 30
0.0
 70
    32
  0
VERTEX
  5
33E
  8
LAYER1
 62
   178
 10
120.698437092541
 20
52.30085548967905
 30
0.0
 70
    32
  0
VERTEX
  5
33F
  8
LAYER1
 62
   178
 10
120.995418937875
 20
52.27453445962506
 30
0.0
 70
    32
  0
VERTEX
  5
340
  8
LAYER1
 62
   178
 10
121.588131578407
 20
52.27231512533307
 30
0.0
 70
    32
  0
VERTEX
  5
341
  8
LAYER1
 62
   178
 10
122.754828111279
 20
52.45601026670106
 30
0.0
 70
    32
  0
VERTEX
  5
342
  8
LAYER1
 62
   178
 10
124.2452760416403
 20
53.05646669764133
 30
0.0
 70
    32
  0
VERTEX
  5
343
  8
LAYER1
 62
   178
 10
124.903509803071
 20
53.46747904274904
 30
0.0
 70
    32
  0
VERTEX
  5
344
  8
LAYER1
 62
   178
 10
126.596773698767
 20
55.13113486417305
 30
0.0
 70
    32
  0
VERTEX
  5
345
  8
LAYER1
 62
   178
 10
127.194197986519
 20
56.13006381226104
 30
0.0
 70
    32
  0
VERTEX
  5
346
  8
LAYER1
 62
   178
 10
127.416883667723
 20
56.65774645233704
 30
0.0
 70
    32
  0
VERTEX
  5
347
  8
LAYER1
 62
   178
 10
127.507504324201
 20
56.92694767721904
 30
0.0
 70
    32
  0
VERTEX
  5
348
  8
LAYER1
 62
   178
 10
127.616153996968
 20
57.33608763399204
 30
0.0
 70
    32
  0
VERTEX
  5
349
  8
LAYER1
 62
   178
 10
127.7240920878974
 20
58.07917697186895
 30
0.0
 70
    32
  0
VERTEX
  5
34A
  8
LAYER1
 62
   178
 10
127.670435718137
 20
59.14528318120304
 30
0.0
 70
    32
  0
VERTEX
  5
34B
  8
LAYER1
 62
   178
 10
127.5678640361123
 20
59.59653264656961
 30
0.0
 70
    32
  0
VERTEX
  5
34C
  8
LAYER1
 62
   178
 10
127.4146289199891
 20
60.0432070791309
 30
0.0
 70
    32
  0
VERTEX
  5
34D
  8
LAYER1
 62
   178
 10
127.2086270751816
 20
60.48322884677152
 30
0.0
 70
    32
  0
VERTEX
  5
34E
  8
LAYER1
 62
   178
 10
127.0851813499632
 20
60.70009572121049
 30
0.0
 70
    32
  0
VERTEX
  5
34F
  8
LAYER1
 62
   178
 10
127.0182322627277
 20
60.80762953557834
 30
0.0
 70
    32
  0
VERTEX
  5
350
  8
LAYER1
 62
   178
 10
126.656430239625
 20
61.30308996787503
 30
0.0
 70
    32
  0
VERTEX
  5
351
  8
LAYER1
 62
   178
 10
126.548248141888
 20
61.43028427347203
 30
0.0
 70
    32
  0
VERTEX
  5
352
  8
LAYER1
 62
   178
 10
126.058517
 20
61.92580300000002
 30
0.0
 70
    32
  0
SEQEND
  5
353
  8
LAYER1
 62
   178
  0
POLYLINE
  5
354
  8
LAYER1
 62
   178
 10
0.0
 20
0.0
 30
0.0
 66
     1
 70
     8
  0
VERTEX
  5
355
  8
LAYER1
 62
   178
 10
126.058517
 20
61.92580300000002
 30
0.0
 70
    32
  0
VERTEX
  5
356
  8
LAYER1
 62
   178
 10
125.9308342316772
 20
62.12919202639205
 30
0.0
 70
    32
  0
VERTEX
  5
357
  8
LAYER1
 62
   178
 10
125.9164499134727
 20
62.1515240728809
 30
0.0
 70
    32
  0
VERTEX
  5
358
  8
LAYER1
 62
   178
 10
125.8875637784607
 20
62.19602846811814
 30
0.0
 70
    32
  0
VERTEX
  5
359
  8
LAYER1
 62
   178
 10
125.829323632144
 20
62.28439926748003
 30
0.0
 70
    32
  0
VERTEX
  5
35A
  8
LAYER1
 62
   178
 10
125.710988779286
 20
62.45859530054503
 30
0.0
 70
    32
  0
VERTEX
  5
35B
  8
LAYER1
 62
   178
 10
125.46703639225
 20
62.79685629437503
 30
0.0
 70
    32
  0
VERTEX
  5
35C
  8
LAYER1
 62
   178
 10
124.951085369522
 20
63.43326351551503
 30
0.0
 70
    32
  0
VERTEX
  5
35D
  8
LAYER1
 62
   178
 10
123.815674142434
 20
64.54889507315502
 30
0.0
 70
    32
  0
VERTEX
  5
35E
  8
LAYER1
 62
   178
 10
121.4166175994246
 20
66.0791289126868
 30
0.0
 70
    32
  0
VERTEX
  5
35F
  8
LAYER1
 62
   178
 10
121.200221465666
 20
66.17763610139504
 30
0.0
 70
    32
  0
VERTEX
  5
360
  8
LAYER1
 62
   178
 10
119.759840875378
 20
66.70572240143505
 30
0.0
 70
    32
  0
VERTEX
  5
361
  8
LAYER1
 62
   178
 10
118.257464690082
 20
67.05293711171504
 30
0.0
 70
    32
  0
VERTEX
  5
362
  8
LAYER1
 62
   178
 10
116.712923339474
 20
67.22676864695504
 30
0.0
 70
    32
  0
VERTEX
  5
363
  8
LAYER1
 62
   178
 10
115.931037736458
 20
67.25100585353506
 30
0.0
 70
    32
  0
VERTEX
  5
364
  8
LAYER1
 62
   178
 10
115.538775679646
 20
67.24786433924506
 30
0.0
 70
    32
  0
VERTEX
  5
365
  8
LAYER1
 62
   178
 10
114.949604979728
 20
67.22440600156006
 30
0.0
 70
    32
  0
VERTEX
  5
366
  8
LAYER1
 62
   178
 10
114.4368230761608
 20
67.18595515701841
 30
0.0
 70
    32
  0
VERTEX
  5
367
  8
LAYER1
 62
   178
 10
113.6744512944062
 20
67.09813932273443
 30
0.0
 70
    32
  0
VERTEX
  5
368
  8
LAYER1
 62
   178
 10
113.0401920714107
 20
66.99727805042576
 30
0.0
 70
    32
  0
VERTEX
  5
369
  8
LAYER1
 62
   178
 10
112.409917359102
 20
66.87193425836506
 30
0.0
 70
    32
  0
VERTEX
  5
36A
  8
LAYER1
 62
   178
 10
111.7849567306625
 20
66.72261002318623
 30
0.0
 70
    32
  0
VERTEX
  5
36B
  8
LAYER1
 62
   178
 10
111.1666397592747
 20
66.5498074215232
 30
0.0
 70
    32
  0
VERTEX
  5
36C
  8
LAYER1
 62
   178
 10
110.5562960181211
 20
66.35402853000983
 30
0.0
 70
    32
  0
VERTEX
  5
36D
  8
LAYER1
 62
   178
 10
110.2545296005015
 20
66.24767987450738
 30
0.0
 70
    32
  0
VERTEX
  5
36E
  8
LAYER1
 62
   178
 10
109.40985482275
 20
65.91479769812507
 30
0.0
 70
    32
  0
VERTEX
  5
36F
  8
LAYER1
 62
   178
 10
109.230248714048
 20
65.83704630496007
 30
0.0
 70
    32
  0
VERTEX
  5
370
  8
LAYER1
 62
   178
 10
108.523827
 20
65.50597000000008
 30
0.0
 70
    32
  0
SEQEND
  5
371
  8
LAYER1
 62
   178
  0
POLYLINE
  5
372
  8
LAYER1
 62
   178
 10
0.0
 20
0.0
 30
0.0
 66
     1
 70
     8
  0
VERTEX
  5
373
  8
LAYER1
 62
   178
 10
72.95925799999999
 20
124.6771810000001
 30
0.0
 70
    32
  0
VERTEX
  5
374
  8
LAYER1
 62
   178
 10
73.35822804216805
 20
124.8966593645307
 30
0.0
 70
    32
  0
VERTEX
  5
375
  8
LAYER1
 62
   178
 10
73.38172728294244
 20
124.9095081668198
 30
0.0
 70
    32
  0
VERTEX
  5
376
  8
LAYER1
 62
   178
 10
73.42873582320509
 20
124.9351850786642
 30
0.0
 70
    32
  0
VERTEX
  5
377
  8
LAYER1
 62
   178
 10
73.52279302722835
 20
124.9864559501366
 30
0.0
 70
    32
  0
VERTEX
  5
378
  8
LAYER1
 62
   178
 10
73.71106703840798
 20
125.0886644339681
 30
0.0
 70
    32
  0
VERTEX
  5
379
  8
LAYER1
 62
   178
 10
74.08824634642697
 20
125.2917367631921
 30
0.0
 70
    32
  0
VERTEX
  5
37A
  8
LAYER1
 62
   178
 10
74.845073090125
 20
125.6924100520001
 30
0.0
 70
    32
  0
VERTEX
  5
37B
  8
LAYER1
 62
   178
 10
76.36814296832901
 20
126.4711286239841
 30
0.0
 70
    32
  0
VERTEX
  5
37C
  8
LAYER1
 62
   178
 10
79.44829932931297
 20
127.9321135288481
 30
0.0
 70
    32
  0
VERTEX
  5
37D
  8
LAYER1
 62
   178
 10
85.71548680033696
 20
130.4207526495521
 30
0.0
 70
    32
  0
VERTEX
  5
37E
  8
LAYER1
 62
   178
 10
85.84573294358135
 20
130.4653660564802
 30
0.0
 70
    32
  0
VERTEX
  5
37F
  8
LAYER1
 62
   178
 10
88.88583695652099
 20
131.4212515896161
 30
0.0
 70
    32
  0
VERTEX
  5
380
  8
LAYER1
 62
   178
 10
90.47655218112499
 20
131.8546056880001
 30
0.0
 70
    32
  0
VERTEX
  5
381
  8
LAYER1
 62
   178
 10
92.06957075724898
 20
132.2410999323041
 30
0.0
 70
    32
  0
VERTEX
  5
382
  8
LAYER1
 62
   178
 10
93.66385012527698
 20
132.5790371177921
 30
0.0
 70
    32
  0
VERTEX
  5
383
  8
LAYER1
 62
   178
 10
95.25834772559296
 20
132.8667200397281
 30
0.0
 70
    32
  0
VERTEX
  5
384
  8
LAYER1
 62
   178
 10
96.85202099858098
 20
133.1024514933761
 30
0.0
 70
    32
  0
VERTEX
  5
385
  8
LAYER1
 62
   178
 10
97.64822271244698
 20
133.2003050431121
 30
0.0
 70
    32
  0
VERTEX
  5
386
  8
LAYER1
 62
   178
 10
98.84136510509597
 20
133.3214734728161
 30
0.0
 70
    32
  0
VERTEX
  5
387
  8
LAYER1
 62
   178
 10
99.58478421558688
 20
133.3812165645228
 30
0.0
 70
    32
  0
VERTEX
  5
388
  8
LAYER1
 62
   178
 10
101.4198029004531
 20
133.4754308231876
 30
0.0
 70
    32
  0
VERTEX
  5
389
  8
LAYER1
 62
   178
 10
102.7044846571676
 20
133.4949080963203
 30
0.0
 70
    32
  0
VERTEX
  5
38A
  8
LAYER1
 62
   178
 10
103.985396046639
 20
133.4748373127441
 30
0.0
 70
    32
  0
VERTEX
  5
38B
  8
LAYER1
 62
   178
 10
105.261977863917
 20
133.4143081309539
 30
0.0
 70
    32
  0
VERTEX
  5
38C
  8
LAYER1
 62
   178
 10
106.5336709040513
 20
133.3124102094446
 30
0.0
 70
    32
  0
VERTEX
  5
38D
  8
LAYER1
 62
   178
 10
107.7999159620918
 20
133.1682332067111
 30
0.0
 70
    32
  0
VERTEX
  5
38E
  8
LAYER1
 62
   178
 10
108.4308207462798
 20
133.0800055681648
 30
0.0
 70
    32
  0
VERTEX
  5
38F
  8
LAYER1
 62
   178
 10
108.745688120645
 20
133.0318071802958
 30
0.0
 70
    32
  0
VERTEX
  5
390
  8
LAYER1
 62
   178
 10
110.217634897375
 20
132.7687920730001
 30
0.0
 70
    32
  0
VERTEX
  5
391
  8
LAYER1
 62
   178
 10
110.602142558336
 20
132.6896264978561
 30
0.0
 70
    32
  0
VERTEX
  5
392
  8
LAYER1
 62
   178
 10
112.133142
 20
132.3298870000001
 30
0.0
 70
    32
  0
SEQEND
  5
393
  8
LAYER1
 62
   178
  0
POLYLINE
  5
394
  8
LAYER1
 62
   178
 10
0.0
 20
0.0
 30
0.0
 66
     1
 70
     8
  0
VERTEX
  5
395
  8
LAYER1
 62
   178
 10
112.133142
 20
132.3298870000001
 30
0.0
 70
    32
  0
VERTEX
  5
396
  8
LAYER1
 62
   178
 10
112.3777510392618
 20
132.2306536542439
 30
0.0
 70
    32
  0
VERTEX
  5
397
  8
LAYER1
 62
   178
 10
112.4044851987969
 20
132.219319833129
 30
0.0
 70
    32
  0
VERTEX
  5
398
  8
LAYER1
 62
   178
 10
112.457688290316
 20
132.1964688849168
 30
0.0
 70
    32
  0
VERTEX
  5
399
  8
LAYER1
 62
   178
 10
112.563037170512
 20
132.1500371019361
 30
0.0
 70
    32
  0
VERTEX
  5
39A
  8
LAYER1
 62
   178
 10
112.769534578428
 20
132.0542806887341
 30
0.0
 70
    32
  0
VERTEX
  5
39B
  8
LAYER1
 62
   178
 10
113.1659588555
 20
131.8514100652501
 30
0.0
 70
    32
  0
VERTEX
  5
39C
  8
LAYER1
 62
   178
 10
113.894372223756
 20
131.4019463650181
 30
0.0
 70
    32
  0
VERTEX
  5
39D
  8
LAYER1
 62
   178
 10
115.108233969932
 20
130.3417990319461
 30
0.0
 70
    32
  0
VERTEX
  5
39E
  8
LAYER1
 62
   178
 10
116.0262866875
 20
129.0927296562501
 30
0.0
 70
    32
  0
VERTEX
  5
39F
  8
LAYER1
 62
   178
 10
116.4887459150254
 20
128.1749505100825
 30
0.0
 70
    32
  0
VERTEX
  5
3A0
  8
LAYER1
 62
   178
 10
116.682303526668
 20
127.6859836789541
 30
0.0
 70
    32
  0
VERTEX
  5
3A1
  8
LAYER1
 62
   178
 10
117.343322170636
 20
124.5244436836581
 30
0.0
 70
    32
  0
VERTEX
  5
3A2
  8
LAYER1
 62
   178
 10
117.4004147134815
 20
123.6137233685927
 30
0.0
 70
    32
  0
VERTEX
  5
3A3
  8
LAYER1
 62
   178
 10
117.408534264
 20
122.1874195120001
 30
0.0
 70
    32
  0
VERTEX
  5
3A4
  8
LAYER1
 62
   178
 10
117.2708774520849
 20
119.9491893732705
 30
0.0
 70
    32
  0
VERTEX
  5
3A5
  8
LAYER1
 62
   178
 10
117.034911728
 20
117.8934278640001
 30
0.0
 70
    32
  0
VERTEX
  5
3A6
  8
LAYER1
 62
   178
 10
116.8917466315
 20
116.8566559332501
 30
0.0
 70
    32
  0
VERTEX
  5
3A7
  8
LAYER1
 62
   178
 10
116.6034228695
 20
114.8805812197501
 30
0.0
 70
    32
  0
VERTEX
  5
3A8
  8
LAYER1
 62
   178
 10
116.474755
 20
113.9565350000001
 30
0.0
 70
    32
  0
SEQEND
  5
3A9
  8
LAYER1
 62
   178
  0
POLYLINE
  5
3AA
  8
LAYER1
 62
   178
 10
0.0
 20
0.0
 30
0.0
 66
     1
 70
     8
  0
VERTEX
  5
3AB
  8
LAYER1
 62
   178
 10
116.474755
 20
113.9565350000001
 30
0.0
 70
    32
  0
VERTEX
  5
3AC
  8
LAYER1
 62
   178
 10
116.4263340505129
 20
113.660264932208
 30
0.0
 70
    32
  0
VERTEX
  5
3AD
  8
LAYER1
 62
   178
 10
116.4233630351437
 20
113.6428871005268
 30
0.0
 70
    32
  0
VERTEX
  5
3AE
  8
LAYER1
 62
   178
 10
116.4173803249824
 20
113.6081479770196
 30
0.0
 70
    32
  0
VERTEX
  5
3AF
  8
LAYER1
 62
   178
 10
116.4052525070796
 20
113.5387357961848
 30
0.0
 70
    32
  0
VERTEX
  5
3B0
  8
LAYER1
 62
   178
 10
116.380349841848
 20
113.4001749533121
 30
0.0
 70
    32
  0
VERTEX
  5
3B1
  8
LAYER1
 62
   178
 10
116.327976880837
 20
113.1241013753781
 30
0.0
 70
    32
  0
VERTEX
  5
3B2
  8
LAYER1
 62
   178
 10
116.213124333875
 20
112.5760989117501
 30
0.0
 70
    32
  0
VERTEX
  5
3B3
  8
LAYER1
 62
   178
 10
115.944303918199
 20
111.4962908414061
 30
0.0
 70
    32
  0
VERTEX
  5
3B4
  8
LAYER1
 62
   178
 10
115.260691223903
 20
109.3984068319821
 30
0.0
 70
    32
  0
VERTEX
  5
3B5
  8
LAYER1
 62
   178
 10
113.4429037989301
 20
105.5135503734492
 30
0.0
 70
    32
  0
VERTEX
  5
3B6
  8
LAYER1
 62
   178
 10
113.393493776047
 20
105.4251249671181
 30
0.0
 70
    32
  0
VERTEX
  5
3B7
  8
LAYER1
 62
   178
 10
111.019505758719
 20
101.7019344102861
 30
0.0
 70
    32
  0
VERTEX
  5
3B8
  8
LAYER1
 62
   178
 10
109.702404852583
 20
99.9166645359021
 30
0.0
 70
    32
  0
VERTEX
  5
3B9
  8
LAYER1
 62
   178
 10
109.021817099211
 20
99.04005565333411
 30
0.0
 70
    32
  0
VERTEX
  5
3BA
  8
LAYER1
 62
   178
 10
107.8400875423258
 20
97.56901308419663
 30
0.0
 70
    32
  0
VERTEX
  5
3BB
  8
LAYER1
 62
   178
 10
106.8691098047407
 20
96.39329253155564
 30
0.0
 70
    32
  0
VERTEX
  5
3BC
  8
LAYER1
 62
   178
 10
105.694123352
 20
94.99127112800011
 30
0.0
 70
    32
  0
VERTEX
  5
3BD
  8
LAYER1
 62
   178
 10
104.5289704672592
 20
93.6041765031112
 30
0.0
 70
    32
  0
VERTEX
  5
3BE
  8
LAYER1
 62
   178
 10
103.107495358625
 20
91.88514218825009
 30
0.0
 70
    32
  0
VERTEX
  5
3BF
  8
LAYER1
 62
   178
 10
102.283665
 20
90.85860200000009
 30
0.0
 70
    32
  0
SEQEND
  5
3C0
  8
LAYER1
 62
   178
  0
POLYLINE
  5
3C1
  8
LAYER1
 62
   178
 10
0.0
 20
0.0
 30
0.0
 66
     1
 70
     8
  0
VERTEX
  5
3C2
  8
LAYER1
 62
   178
 10
102.283665
 20
90.85860200000009
 30
0.0
 70
    32
  0
VERTEX
  5
3C3
  8
LAYER1
 62
   178
 10
102.226063598121
 20
90.68990574694206
 30
0.0
 70
    32
  0
VERTEX
  5
3C4
  8
LAYER1
 62
   178
 10
102.2198336922363
 20
90.67103911353526
 30
0.0
 70
    32
  0
VERTEX
  5
3C5
  8
LAYER1
 62
   178
 10
102.2074761149194
 20
90.63323190923383
 30
0.0
 70
    32
  0
VERTEX
  5
3C6
  8
LAYER1
 62
   178
 10
102.18317009532
 20
90.55732087728008
 30
0.0
 70
    32
  0
VERTEX
  5
3C7
  8
LAYER1
 62
   178
 10
102.136196174055
 20
90.4043053327701
 30
0.0
 70
    32
  0
VERTEX
  5
3C8
  8
LAYER1
 62
   178
 10
102.048813425625
 20
90.09344442375007
 30
0.0
 70
    32
  0
VERTEX
  5
3C9
  8
LAYER1
 62
   178
 10
101.900409284085
 20
89.45195614499009
 30
0.0
 70
    32
  0
VERTEX
  5
3CA
  8
LAYER1
 62
   178
 10
101.709854253645
 20
88.08633629883008
 30
0.0
 70
    32
  0
VERTEX
  5
3CB
  8
LAYER1
 62
   178
 10
101.6854097617944
 20
85.95092724144907
 30
0.0
 70
    32
  0
VERTEX
  5
3CC
  8
LAYER1
 62
   178
 10
101.760219854205
 20
84.99590388587005
 30
0.0
 70
    32
  0
VERTEX
  5
3CD
  8
LAYER1
 62
   178
 10
102.398196147885
 20
81.37203438619008
 30
0.0
 70
    32
  0
VERTEX
  5
3CE
  8
LAYER1
 62
   178
 10
103.1772675070087
 20
78.56308833414019
 30
0.0
 70
    32
  0
VERTEX
  5
3CF
  8
LAYER1
 62
   178
 10
103.802997
 20
76.6723668148149
 30
0.0
 70
    32
  0
VERTEX
  5
3D0
  8
LAYER1
 62
   178
 10
104.336669550625
 20
75.19754622189822
 30
0.0
 70
    32
  0
VERTEX
  5
3D1
  8
LAYER1
 62
   178
 10
105.36161316
 20
72.58845528000006
 30
0.0
 70
    32
  0
VERTEX
  5
3D2
  8
LAYER1
 62
   178
 10
106.3047106
 20
70.35990798814822
 30
0.0
 70
    32
  0
VERTEX
  5
3D3
  8
LAYER1
 62
   178
 10
107.639263696875
 20
67.38986714625007
 30
0.0
 70
    32
  0
VERTEX
  5
3D4
  8
LAYER1
 62
   178
 10
108.523827
 20
65.50597000000008
 30
0.0
 70
    32
  0
SEQEND
  5
3D5
  8
LAYER1
 62
   178
  0
LINE
  5
3D6
  8
LAYER1
 62
   178
 10
23.00000000000001
 20
1.0
 30
0.0
 11
116.0
 21
1.0
 31
0.0
  0
LINE
  5
3D7
  8
LAYER1
 62
   178
 10
41.00000000000001
 20
15.00000000000001
 30
0.0
 11
41.00000000000001
 21
11.0
 31
0.0
  0
LINE
  5
3D8
  8
LAYER1
 62
   178
 10
111.0
 20
11.0
 30
0.0
 11
103.0
 21
11.0
 31
0.0
  0
LINE
  5
3D9
  8
LAYER1
 62
   178
 10
116.0
 20
1.0
 30
0.0
 11
116.0
 21
6.000000000000004
 31
0.0
  0
ARC
  5
3DA
  8
LAYER1
 62
   178
 10
111.0
 20
6.000000000000004
 30
0.0
 40
4.999999999999998
 50
359.9999999999994
 51
90.0
  0
LINE
  5
3DB
  8
LAYER1
 62
   178
 10
41.00000000000001
 20
11.0
 30
0.0
 11
28.0
 21
11.0
 31
0.0
  0
LINE
  5
3DC
  8
LAYER1
 62
   178
 10
23.00000000000001
 20
6.000000000000004
 30
0.0
 11
23.00000000000001
 21
1.0
 31
0.0
  0
ARC
  5
3DD
  8
LAYER1
 62
   178
 10
28.0
 20
6.000000000000004
 30
0.0
 40
4.999999999999998
 50
90.0
 51
179.9999999999994
  0
ENDSEC
  0
EOF
